<?xml version="1.0" encoding="utf-8" standalone="no"?>
<!DOCTYPE svg PUBLIC "-//W3C//DTD SVG 1.1//EN"
  "http://www.w3.org/Graphics/SVG/1.1/DTD/svg11.dtd">
<!-- Created with matplotlib (http://matplotlib.org/) -->
<svg height="360pt" version="1.1" viewBox="0 0 360 360" width="360pt" xmlns="http://www.w3.org/2000/svg" xmlns:xlink="http://www.w3.org/1999/xlink">
 <defs>
  <style type="text/css">
*{stroke-linecap:butt;stroke-linejoin:round;}
  </style>
 </defs>
 <g id="figure_1">
  <g id="patch_1">
   <path d="M 0 360 
L 360 360 
L 360 0 
L 0 0 
z
" style="fill:#ffffff;"/>
  </g>
  <g id="axes_1">
   <g id="patch_2">
    <path d="M 45 315 
L 324 315 
L 324 43.2 
L 45 43.2 
z
" style="fill:#ffffff;"/>
   </g>
   <g id="matplotlib.axis_1">
    <g id="xtick_1">
     <g id="line2d_1"/>
     <g id="text_1">
      <!-- $10^{-3}$ -->
      <defs>
       <path d="M 9.703125 60.015625 
L 9.703125 55 
C 15.203125 55 19 56 23.40625 57.90625 
L 23.40625 5.015625 
L 10.296875 5.015625 
L 10.296875 0 
L 43 0 
L 43 5.015625 
L 29.90625 5.015625 
L 29.90625 67 
C 27.5 67 27.90625 66.359375 26 64.875 
C 21.90625 61.71875 16.203125 60.015625 9.703125 60.015625 
z
" id="Computer_Modern_Bright-49"/>
       <path d="M 14.796875 63.859375 
C 11.90625 61.859375 9.90625 59.140625 8.40625 56.03125 
C 4.796875 49 4.40625 40.765625 4.40625 31.828125 
C 4.40625 20.578125 6.40625 10.25 12 4.3125 
C 17.296875 -1.203125 25.703125 -2.609375 32.796875 0.296875 
C 37.203125 2.015625 40.40625 5.71875 42.40625 9.734375 
C 46 16.875 46.40625 25.40625 46.40625 34.234375 
C 46.40625 37.046875 46.296875 39.859375 46 42.671875 
C 45.296875 49.40625 43 56.828125 39.296875 60.953125 
C 33.203125 67.6875 22.296875 69.1875 14.796875 63.859375 
z
M 34.90625 58.140625 
C 39.59375 53.125 40 43.484375 40 34.34375 
L 40 28.921875 
C 40 24.296875 39.203125 18.28125 38.203125 14.859375 
C 36.796875 10.140625 34.5 6.734375 29.90625 4.625 
C 24.296875 2.609375 18.5 4.515625 15.296875 8.9375 
C 11 14.65625 10.796875 24.796875 10.796875 33.734375 
C 10.796875 42.171875 10.90625 51.515625 15 57.03125 
C 19.5 63.0625 29.203125 64.0625 34.90625 58.140625 
z
" id="Computer_Modern_Bright-48"/>
       <path d="M 9.796875 28.078125 
C 8 27.484375 7.796875 24.78125 9.796875 24.28125 
C 10.296875 24.078125 10.90625 24.1875 11.5 24.1875 
L 64.703125 24.1875 
C 65.90625 24.1875 67.796875 23.78125 68.796875 24.78125 
C 69.90625 25.875 69.296875 27.875 67.703125 28.1875 
C 66.5 28.375 65.09375 28.1875 63.90625 28.1875 
L 11.40625 28.1875 
C 10.90625 28.1875 10.296875 28.28125 9.796875 28.078125 
z
" id="Computer_Modern_Bright_Math_Symbols-0"/>
       <path d="M 8.09375 50.71875 
C 8.90625 51.921875 9.5 53.234375 10.40625 54.4375 
C 12.5 57.25 15.40625 59.453125 18.703125 60.765625 
C 23.90625 62.875 31.5 62.875 35.59375 58.21875 
C 39.203125 54.078125 37.703125 47.609375 34.40625 43.78125 
C 31.40625 40.25 27.5 38.53125 21.703125 38.53125 
C 20 38.53125 18.40625 38.03125 16.703125 38.03125 
L 16.703125 33 
L 23.59375 33 
C 29.40625 33 33.203125 32.109375 36.40625 28.6875 
C 41.90625 22.859375 41.40625 12.515625 35.296875 7.203125 
C 32.203125 4.59375 27.90625 3.78125 23.90625 4.078125 
C 16.09375 4.6875 9.203125 8.8125 4.59375 15.234375 
C 4.09375 14.234375 4.09375 12.828125 3.90625 11.71875 
C 3.59375 10.109375 3.59375 10.109375 4.59375 8.8125 
C 7.5 4.890625 13.203125 1.28125 17.703125 -0.03125 
C 25.703125 -2.4375 35 -1.34375 41.203125 4.78125 
C 42.40625 6 43.5 7.296875 44.40625 8.703125 
C 48.09375 14.53125 48.203125 22.15625 44.09375 27.78125 
C 42.40625 30.09375 40.203125 31.90625 37.703125 33.3125 
C 36 34.3125 34 35.3125 32 35.515625 
C 37.796875 38.234375 43.203125 42.828125 44.203125 50.359375 
C 45.09375 57.375 41 61.6875 36.796875 64.1875 
C 30.296875 68 21.796875 68 15.09375 64.671875 
C 12 63.171875 9.203125 60.96875 7.09375 58.25 
C 6.703125 57.75 5.203125 56.046875 5.203125 55.234375 
C 5.203125 54.734375 5.59375 54.234375 5.90625 53.828125 
z
" id="Computer_Modern_Bright-51"/>
      </defs>
      <g style="fill:#262626;" transform="translate(45.988284 328.902195)scale(0.12 -0.12)">
       <use transform="scale(0.996264)" xlink:href="#Computer_Modern_Bright-49"/>
       <use transform="translate(50.643218 0)scale(0.996264)" xlink:href="#Computer_Modern_Bright-48"/>
       <use transform="translate(101.286436 36.153639)scale(0.697382)" xlink:href="#Computer_Modern_Bright_Math_Symbols-0"/>
       <use transform="translate(155.527429 36.153639)scale(0.697382)" xlink:href="#Computer_Modern_Bright-51"/>
      </g>
     </g>
    </g>
    <g id="xtick_2">
     <g id="line2d_2"/>
     <g id="text_2">
      <!-- $10^{-2}$ -->
      <defs>
       <path d="M 7.296875 45.96875 
C 8.703125 51.59375 11.09375 57.984375 16.796875 60.5 
C 19.203125 61.5 21.796875 61.703125 24.40625 61.5 
C 29.296875 61.09375 34.09375 59.09375 37.09375 55.09375 
C 39.296875 52.078125 40.09375 48.375 39.703125 44.78125 
C 38.5 34.34375 28.296875 26.84375 21.703125 21.234375 
C 17.90625 18.03125 7.09375 7.8125 7.09375 7.8125 
L 5.40625 6.203125 
C 4.5 5.3125 4.40625 5.3125 4.40625 3.5 
L 4.40625 0 
L 46.40625 0 
L 46.40625 5.625 
L 10.203125 5.625 
C 13.40625 8.734375 26.703125 20.515625 28.5 21.921875 
C 34.296875 26.65625 40.796875 31.375 44.296875 38.21875 
C 48.203125 46.0625 46.5 55.9375 39.90625 61.765625 
C 35.90625 65.296875 30.40625 67 25.09375 67 
C 20.203125 67 15.203125 66 11.296875 62.90625 
C 8.296875 60.390625 5.796875 56.6875 4.40625 52.875 
C 4.09375 52.28125 3.59375 51.28125 3.703125 50.578125 
C 3.796875 49.984375 4.40625 49.484375 4.703125 49.078125 
C 5.5 48.078125 6.296875 46.875 7.296875 45.96875 
z
" id="Computer_Modern_Bright-50"/>
      </defs>
      <g style="fill:#262626;" transform="translate(88.261011 328.902195)scale(0.12 -0.12)">
       <use transform="scale(0.996264)" xlink:href="#Computer_Modern_Bright-49"/>
       <use transform="translate(50.643218 0)scale(0.996264)" xlink:href="#Computer_Modern_Bright-48"/>
       <use transform="translate(101.286436 36.153639)scale(0.697382)" xlink:href="#Computer_Modern_Bright_Math_Symbols-0"/>
       <use transform="translate(155.527429 36.153639)scale(0.697382)" xlink:href="#Computer_Modern_Bright-50"/>
      </g>
     </g>
    </g>
    <g id="xtick_3">
     <g id="line2d_3"/>
     <g id="text_3">
      <!-- $10^{-1}$ -->
      <g style="fill:#262626;" transform="translate(130.533738 328.902195)scale(0.12 -0.12)">
       <use transform="scale(0.996264)" xlink:href="#Computer_Modern_Bright-49"/>
       <use transform="translate(50.643218 0)scale(0.996264)" xlink:href="#Computer_Modern_Bright-48"/>
       <use transform="translate(101.286436 36.153639)scale(0.697382)" xlink:href="#Computer_Modern_Bright_Math_Symbols-0"/>
       <use transform="translate(155.527429 36.153639)scale(0.697382)" xlink:href="#Computer_Modern_Bright-49"/>
      </g>
     </g>
    </g>
    <g id="xtick_4">
     <g id="line2d_4"/>
     <g id="text_4">
      <!-- $10^{0}$ -->
      <g style="fill:#262626;" transform="translate(176.099719 328.902195)scale(0.12 -0.12)">
       <use transform="scale(0.996264)" xlink:href="#Computer_Modern_Bright-49"/>
       <use transform="translate(50.643218 0)scale(0.996264)" xlink:href="#Computer_Modern_Bright-48"/>
       <use transform="translate(101.286436 36.153639)scale(0.697382)" xlink:href="#Computer_Modern_Bright-48"/>
      </g>
     </g>
    </g>
    <g id="xtick_5">
     <g id="line2d_5"/>
     <g id="text_5">
      <!-- $10^{1}$ -->
      <g style="fill:#262626;" transform="translate(218.372446 328.902195)scale(0.12 -0.12)">
       <use transform="scale(0.996264)" xlink:href="#Computer_Modern_Bright-49"/>
       <use transform="translate(50.643218 0)scale(0.996264)" xlink:href="#Computer_Modern_Bright-48"/>
       <use transform="translate(101.286436 36.153639)scale(0.697382)" xlink:href="#Computer_Modern_Bright-49"/>
      </g>
     </g>
    </g>
    <g id="xtick_6">
     <g id="line2d_6"/>
     <g id="text_6">
      <!-- $10^{2}$ -->
      <g style="fill:#262626;" transform="translate(260.645173 328.902195)scale(0.12 -0.12)">
       <use transform="scale(0.996264)" xlink:href="#Computer_Modern_Bright-49"/>
       <use transform="translate(50.643218 0)scale(0.996264)" xlink:href="#Computer_Modern_Bright-48"/>
       <use transform="translate(101.286436 36.153639)scale(0.697382)" xlink:href="#Computer_Modern_Bright-50"/>
      </g>
     </g>
    </g>
    <g id="xtick_7">
     <g id="line2d_7"/>
     <g id="text_7">
      <!-- $10^{3}$ -->
      <g style="fill:#262626;" transform="translate(302.917901 328.902195)scale(0.12 -0.12)">
       <use transform="scale(0.996264)" xlink:href="#Computer_Modern_Bright-49"/>
       <use transform="translate(50.643218 0)scale(0.996264)" xlink:href="#Computer_Modern_Bright-48"/>
       <use transform="translate(101.286436 36.153639)scale(0.697382)" xlink:href="#Computer_Modern_Bright-51"/>
      </g>
     </g>
    </g>
    <g id="xtick_8">
     <g id="line2d_8"/>
    </g>
    <g id="xtick_9">
     <g id="line2d_9"/>
    </g>
    <g id="xtick_10">
     <g id="line2d_10"/>
    </g>
    <g id="xtick_11">
     <g id="line2d_11"/>
    </g>
    <g id="xtick_12">
     <g id="line2d_12"/>
    </g>
    <g id="xtick_13">
     <g id="line2d_13"/>
    </g>
    <g id="xtick_14">
     <g id="line2d_14"/>
    </g>
    <g id="xtick_15">
     <g id="line2d_15"/>
    </g>
    <g id="xtick_16">
     <g id="line2d_16"/>
    </g>
    <g id="xtick_17">
     <g id="line2d_17"/>
    </g>
    <g id="xtick_18">
     <g id="line2d_18"/>
    </g>
    <g id="xtick_19">
     <g id="line2d_19"/>
    </g>
    <g id="xtick_20">
     <g id="line2d_20"/>
    </g>
    <g id="xtick_21">
     <g id="line2d_21"/>
    </g>
    <g id="xtick_22">
     <g id="line2d_22"/>
    </g>
    <g id="xtick_23">
     <g id="line2d_23"/>
    </g>
    <g id="xtick_24">
     <g id="line2d_24"/>
    </g>
    <g id="xtick_25">
     <g id="line2d_25"/>
    </g>
    <g id="xtick_26">
     <g id="line2d_26"/>
    </g>
    <g id="xtick_27">
     <g id="line2d_27"/>
    </g>
    <g id="xtick_28">
     <g id="line2d_28"/>
    </g>
    <g id="xtick_29">
     <g id="line2d_29"/>
    </g>
    <g id="xtick_30">
     <g id="line2d_30"/>
    </g>
    <g id="xtick_31">
     <g id="line2d_31"/>
    </g>
    <g id="xtick_32">
     <g id="line2d_32"/>
    </g>
    <g id="xtick_33">
     <g id="line2d_33"/>
    </g>
    <g id="xtick_34">
     <g id="line2d_34"/>
    </g>
    <g id="xtick_35">
     <g id="line2d_35"/>
    </g>
    <g id="xtick_36">
     <g id="line2d_36"/>
    </g>
    <g id="xtick_37">
     <g id="line2d_37"/>
    </g>
    <g id="xtick_38">
     <g id="line2d_38"/>
    </g>
    <g id="xtick_39">
     <g id="line2d_39"/>
    </g>
    <g id="xtick_40">
     <g id="line2d_40"/>
    </g>
    <g id="xtick_41">
     <g id="line2d_41"/>
    </g>
    <g id="xtick_42">
     <g id="line2d_42"/>
    </g>
    <g id="xtick_43">
     <g id="line2d_43"/>
    </g>
    <g id="xtick_44">
     <g id="line2d_44"/>
    </g>
    <g id="xtick_45">
     <g id="line2d_45"/>
    </g>
    <g id="xtick_46">
     <g id="line2d_46"/>
    </g>
    <g id="xtick_47">
     <g id="line2d_47"/>
    </g>
    <g id="xtick_48">
     <g id="line2d_48"/>
    </g>
    <g id="xtick_49">
     <g id="line2d_49"/>
    </g>
    <g id="xtick_50">
     <g id="line2d_50"/>
    </g>
    <g id="xtick_51">
     <g id="line2d_51"/>
    </g>
    <g id="xtick_52">
     <g id="line2d_52"/>
    </g>
    <g id="xtick_53">
     <g id="line2d_53"/>
    </g>
    <g id="xtick_54">
     <g id="line2d_54"/>
    </g>
    <g id="xtick_55">
     <g id="line2d_55"/>
    </g>
    <g id="xtick_56">
     <g id="line2d_56"/>
    </g>
    <g id="xtick_57">
     <g id="line2d_57"/>
    </g>
    <g id="xtick_58">
     <g id="line2d_58"/>
    </g>
    <g id="xtick_59">
     <g id="line2d_59"/>
    </g>
    <g id="xtick_60">
     <g id="line2d_60"/>
    </g>
    <g id="xtick_61">
     <g id="line2d_61"/>
    </g>
    <g id="text_8">
     <!-- $k_{cat}$ of biomass reaction [s$^{-1}$] -->
     <defs>
      <path d="M 22.90625 69.5 
L 8.203125 0 
C 10.203125 0 12.203125 0 13.90625 0.296875 
L 14.296875 1.390625 
C 15.296875 6.4375 16.40625 11.359375 17.5 16.40625 
L 18.703125 17.609375 
C 21.90625 20.125 24.90625 22.9375 28.203125 25.453125 
L 29.5 22.4375 
C 33.09375 15.1875 36.296875 7.34375 40.09375 0.296875 
C 42.09375 0 44.59375 0 46.90625 0 
L 36.796875 21.8125 
C 35.703125 24.53125 34.203125 26.671875 33.296875 29.59375 
L 34.796875 31.09375 
L 54.5 47.5 
L 54.5 47.5 
C 51.90625 47.5 49.296875 47.5 46.796875 47.5 
L 45.703125 46.703125 
L 19.40625 24.75 
L 28.90625 69.5 
z
" id="Computer_Modern_Bright_Math_Slanted-107"/>
      <path d="M 45.59375 11.328125 
C 44.40625 10.609375 43.40625 9.703125 42.296875 9 
C 39.703125 7.265625 37 5.9375 34 5.21875 
C 29.5 4 25.296875 4 21.5 5.890625 
C 15.796875 9 14.90625 16.21875 15.796875 22.015625 
C 17.203125 30.625 21.90625 39.84375 30.703125 42.75 
C 35.40625 44.25 41.5 43.65625 45.5 41.953125 
C 47.296875 41.15625 48.796875 39.953125 50.40625 38.953125 
L 52.5 44.484375 
C 50.40625 45.640625 48.296875 46.78125 46 47.453125 
C 41.296875 49 33.5 49 29.203125 47.484375 
C 18.796875 43.5625 11 33.09375 9.40625 22.109375 
C 8.296875 14.859375 10.203125 7.71875 15 3.421875 
C 23.203125 -3.796875 35.796875 -0.1875 42.90625 4.3125 
C 43.5 4.71875 44.40625 5.125 44.796875 5.71875 
C 45.09375 6.21875 45.40625 10.03125 45.59375 11.328125 
z
" id="Computer_Modern_Bright_Math_Slanted-99"/>
      <path d="M 16.90625 38.953125 
C 18.5 39.640625 19.90625 40.640625 21.5 41.328125 
C 25 43.015625 28.90625 44 32.796875 44 
C 34 44 35.203125 44.109375 36.296875 43.796875 
C 39.90625 42.8125 41.90625 39.0625 41.796875 35.3125 
C 41.796875 33.234375 40.796875 30.0625 40.5 28.484375 
C 40.5 27.6875 40.203125 27 39.296875 27 
L 37.703125 27 
C 35.40625 26.703125 33 26.703125 30.703125 26.40625 
C 22.09375 25.109375 12.5 21.921875 8.90625 14.84375 
C 6.59375 10.265625 7.203125 2.890625 12.40625 0.515625 
C 15.203125 -0.5 16.90625 -0.5 20.703125 0.09375 
C 26.40625 0.921875 32.203125 3.234375 36.203125 7.578125 
L 34.703125 0.609375 
L 39.296875 0.609375 
C 40.296875 0.609375 41.203125 0.40625 41.203125 1.703125 
C 41.703125 3.578125 43.203125 11.140625 43.296875 11.53125 
C 43.796875 13.90625 48 33.09375 48.203125 34.578125 
C 48.5 38.453125 47.40625 42.53125 44.5 45.3125 
C 42.296875 47.3125 39.40625 48.40625 36.40625 48.71875 
C 30.5 49.21875 22.59375 46.90625 19.40625 45.3125 
C 18.90625 45.109375 18.09375 44.90625 17.703125 44.421875 
C 17.40625 44.015625 17.40625 43.3125 17.40625 42.828125 
C 17.203125 41.53125 17 40.234375 16.90625 38.953125 
z
M 39.59375 24 
L 38.09375 17.078125 
C 37.59375 14.578125 37.203125 12.171875 35.5 10.078125 
C 32.203125 5.96875 26.09375 4.15625 21 4.765625 
C 18.5 5.0625 15.703125 6.0625 14.5 8.46875 
C 12.703125 11.96875 15.40625 15.984375 18.09375 18.1875 
C 23.09375 22.09375 31.59375 24 39.59375 24 
z
" id="Computer_Modern_Bright_Math_Slanted-97"/>
      <path d="M 11.90625 47.015625 
L 10.90625 42 
L 20.5 42 
C 19.703125 39.1875 19.296875 36.296875 18.703125 33.5 
L 14.59375 14.1875 
C 13.703125 10.40625 12.59375 4.890625 14.5 1.59375 
C 15.796875 -0.5 17.90625 -1 20.203125 -1 
C 23.90625 -1 27.59375 -0.109375 31 1.203125 
C 31.90625 1.5 35 2.796875 35.5 3.40625 
C 35.703125 3.6875 35.59375 4.296875 35.59375 4.6875 
C 35.59375 5.890625 35.40625 7 35.40625 8.203125 
C 34.59375 7.796875 33.90625 7.203125 33.09375 6.6875 
C 32.09375 6.09375 31.09375 5.59375 30 5.1875 
C 28.296875 4.59375 24.796875 3.59375 22.703125 4.296875 
C 20.203125 5.09375 19.90625 8.09375 20 10.40625 
C 20.203125 12.703125 24.796875 34.09375 26.296875 40.59375 
C 26.59375 41.703125 26.5 42 27.90625 42 
L 42.09375 42 
L 43.09375 47.015625 
L 27.59375 47.015625 
L 30.5 60.5 
C 28.5 60.5 26.296875 60.5 24.59375 60.1875 
C 23.09375 56.328125 23 51.0625 21.5 47.203125 
L 20.703125 47.015625 
z
" id="Computer_Modern_Bright_Math_Slanted-116"/>
      <path d="M 10.703125 42.078125 
C 1.796875 33.234375 0.796875 17.875 8.5 7.9375 
C 9.59375 6.421875 10.90625 5.125 12.40625 4.015625 
C 16.09375 1 21.5 -1.203125 27.796875 -0.5 
C 37.796875 0.703125 44.703125 8.84375 46.796875 17.375 
C 49.59375 29.328125 43.703125 42.671875 32.703125 46.890625 
C 24.09375 50.40625 15.5 46.890625 10.703125 42.078125 
z
M 35.703125 39.359375 
C 40.5 35.03125 41.40625 28.109375 41 21.984375 
C 40.703125 17.265625 39.40625 12.34375 36.09375 8.828125 
C 30.703125 3 20.703125 3 14.90625 8.625 
C 11.90625 11.84375 10.09375 16.453125 9.796875 21.984375 
C 9.296875 30.109375 11.296875 38.75 19.296875 41.96875 
C 25.203125 44.578125 32 42.671875 35.703125 39.359375 
z
" id="Computer_Modern_Bright-111"/>
      <path d="M 10.59375 47.015625 
L 2 47.015625 
L 2 42 
L 10.59375 42 
L 10.59375 -0.5 
L 16.90625 -0.5 
L 16.90625 42 
L 29.296875 42 
L 29.296875 47.015625 
L 16.796875 47.015625 
L 16.796875 55.78125 
C 16.796875 57.1875 16.5 58.921875 17.09375 60.328125 
C 19.203125 64.75 26.296875 65.5625 32.09375 64.5625 
C 33.296875 64.359375 34.40625 63.953125 35.59375 63.75 
L 35.59375 69.390625 
C 28.796875 70.5 21.296875 70.5 15.703125 65.921875 
C 14.796875 65.125 14 64.34375 13.296875 63.328125 
C 11.203125 60.75 10.59375 57.875 10.59375 53.390625 
z
" id="Computer_Modern_Bright-102"/>
      <path d="M 6.40625 69.6875 
L 6.40625 0 
L 12.796875 0 
L 12.796875 6.328125 
L 12.90625 6.328125 
C 14 4.109375 16.5 2.015625 18.59375 0.90625 
C 25.796875 -2.90625 34.40625 0.90625 39.09375 7.03125 
C 48.59375 19.578125 44.796875 40.875 32.296875 46.796875 
C 27.40625 49 21.5 48 17.09375 44.984375 
C 15.40625 43.78125 14 42.375 12.703125 40.765625 
L 12.703125 69.6875 
z
M 21.90625 42.984375 
C 26.59375 43.375 31.5 41.265625 34.296875 37.453125 
C 36.203125 34.9375 37.203125 31.9375 37.703125 28.8125 
C 38.703125 21.484375 37.90625 12.25 31.40625 7.4375 
C 30.296875 6.625 29.09375 6.03125 27.796875 5.515625 
C 22.40625 3.515625 17 4.109375 14 8.84375 
C 13.09375 10.4375 12.796875 10.546875 12.796875 12.953125 
L 12.796875 33.734375 
C 12.796875 34.75 12.59375 35.953125 13 36.859375 
C 14.59375 40.171875 18.296875 42.671875 21.90625 42.984375 
z
" id="Computer_Modern_Bright-98"/>
      <path d="M 6.40625 70 
L 6.40625 63.671875 
L 12.703125 63.671875 
L 12.703125 70 
z
M 6.40625 47.390625 
L 6.40625 0 
L 12.703125 0 
L 12.703125 47.390625 
z
" id="Computer_Modern_Bright-105"/>
      <path d="M 12.59375 37.359375 
L 12.5 37.359375 
L 12.5 47.390625 
L 6.40625 47.390625 
L 6.40625 0 
L 12.796875 0 
L 12.796875 22.046875 
C 12.796875 26.953125 12.5 31.875 14.703125 36.375 
C 16.59375 40.28125 19.90625 43.390625 25.796875 42.78125 
C 28.796875 42.78125 31.796875 41.984375 33.703125 39.453125 
C 35.5 37.140625 35.59375 34.140625 35.59375 31.3125 
L 35.59375 0 
L 42 0 
L 42 22.046875 
C 42 26.953125 41.703125 31.875 43.90625 36.375 
C 45.796875 40.28125 49.09375 43.390625 55 42.78125 
C 58 42.78125 61 41.984375 62.90625 39.453125 
C 64.703125 37.140625 64.796875 34.140625 64.796875 31.3125 
L 64.796875 0 
L 71.203125 0 
L 71.203125 26.5625 
C 71.203125 31.375 71.796875 36.78125 69.703125 41.1875 
C 67.59375 45.296875 64.203125 47.5 58.703125 47.5 
C 55.5 47.796875 52.296875 47.3125 49.40625 45.84375 
C 45.90625 43.921875 43.296875 40.75 41.703125 37.265625 
C 41 40.578125 40.203125 42.828125 38 45 
C 35.703125 47.0625 32.59375 48 29.59375 48 
C 22.296875 48.59375 17.703125 45.5625 14.59375 41 
C 13.796875 39.875 13 38.671875 12.59375 37.359375 
z
" id="Computer_Modern_Bright-109"/>
      <path d="M 7.90625 39.015625 
C 9.59375 39.859375 11 41.09375 12.703125 41.921875 
C 15.40625 43.15625 18.203125 44 21.203125 44 
C 22.59375 44.09375 24.203125 44.296875 25.59375 44 
C 28.09375 43.59375 30.296875 42.078125 31.796875 39.953125 
C 33.296875 37.515625 33.90625 35.390625 33.90625 31.46875 
L 33.90625 27.015625 
C 29.09375 27.015625 24.296875 26.609375 19.703125 25.390625 
C 13.90625 24.078125 7.59375 21.125 5.5 15.84375 
C 3.40625 10.78125 5.59375 4.078125 10.09375 1.03125 
C 12.296875 -0.5 14.90625 -0.5 17.5 -0.296875 
C 21.703125 0 25.90625 1.015625 29.5 3.25 
C 31.203125 4.25 32.90625 5.578125 33.90625 7.296875 
L 34 7.296875 
L 34 0.203125 
L 40.296875 0.203125 
L 40.296875 26.890625 
C 40.296875 29.8125 40.59375 32.953125 40 35.890625 
C 39.40625 39.921875 36.90625 43.265625 34 45.59375 
C 30.59375 48.21875 26.703125 49.109375 21.5 48.71875 
C 16.703125 48.71875 13 47.5 9.40625 45.765625 
C 8.90625 45.5625 7.90625 45.234375 7.59375 44.640625 
C 7.296875 44.21875 7.5 43.515625 7.5 43 
C 7.703125 41.671875 7.796875 40.34375 7.90625 39.015625 
z
M 33.90625 24 
L 33.90625 16.375 
C 33.90625 14.0625 34 11.953125 32.703125 9.953125 
C 31.59375 8.34375 30.09375 7.234375 28.5 6.4375 
C 22.796875 3.515625 14.09375 4.421875 11.59375 9.25 
C 9.59375 12.75 11.703125 16.875 14.59375 19.1875 
C 18.90625 22.5 27.296875 24 33.90625 24 
z
" id="Computer_Modern_Bright-97"/>
      <path d="M 3.09375 9.640625 
C 2.90625 8.234375 2.59375 6.9375 2.40625 5.53125 
C 2.203125 4.421875 1.90625 3.921875 2.90625 3.421875 
C 7 1.015625 11.90625 -0.296875 17.703125 -0.796875 
C 24.203125 -1.40625 32.40625 0.109375 35.59375 6.53125 
C 36.5 8.34375 37 10.34375 37.09375 12.359375 
C 37.5 19.578125 31.796875 24.203125 26.90625 25.90625 
C 21.40625 28.015625 13.90625 27.3125 10.09375 31.53125 
C 8.09375 33.84375 8 37.265625 9.90625 39.671875 
C 13.90625 45.296875 26.796875 42.875 31.90625 40.375 
C 32.703125 39.96875 33.40625 39.46875 34.296875 39.265625 
L 35.203125 44.6875 
C 30.5 46.796875 26.40625 48 19.90625 48 
C 14.296875 48 9.203125 46.703125 6 43.484375 
C 2.796875 40.171875 1.703125 34.640625 3.59375 30.4375 
C 5.40625 26.40625 9.203125 23.796875 13.296875 22.5 
C 19.203125 20.390625 25.90625 21.390625 29.796875 16.578125 
C 32 13.765625 31.59375 9.546875 29.09375 7.03125 
C 24.296875 2.609375 14.09375 4.21875 8.5 6.625 
C 6.59375 7.4375 4.90625 8.640625 3.09375 9.640625 
z
" id="Computer_Modern_Bright-115"/>
      <path d="M 12.5 34.75 
L 12.40625 34.75 
L 12.40625 47.390625 
L 6.40625 47.390625 
L 6.40625 0 
L 12.703125 0 
L 12.703125 22.890625 
C 12.703125 24.40625 12.703125 25.90625 12.90625 27.40625 
C 14.296875 35.953125 21.703125 42.28125 31.40625 42.28125 
L 31.40625 48 
C 25 48 19.09375 44.890625 15.296875 39.765625 
C 14.203125 38.265625 13 36.546875 12.5 34.75 
z
" id="Computer_Modern_Bright-114"/>
      <path d="M 41.796875 10.9375 
C 39.5 9.234375 38.796875 8.328125 35.90625 6.8125 
C 29.796875 3.5 22.59375 3.5 17.40625 7.171875 
C 12.40625 10.765625 9.5 16.640625 9.5 25 
L 42.5 25 
C 42.5 32.421875 40.796875 38.859375 36.59375 43.375 
C 32 47.890625 24.796875 49.296875 18.703125 47.390625 
C 16.40625 46.6875 14.296875 45.484375 12.40625 43.96875 
C 6.09375 38.859375 3.40625 30.71875 3.5 22.78125 
C 3.703125 12.34375 10.796875 1.90625 21.296875 -0.3125 
C 26.796875 -1.421875 32.59375 -0.203125 37.5 2.296875 
C 38.40625 2.796875 41.703125 4.609375 42.09375 5.515625 
C 42.40625 6.015625 41.796875 10.9375 41.796875 10.9375 
z
M 37.203125 28.90625 
L 10 28.90625 
C 11.203125 36.234375 17.203125 43.96875 25.296875 43.0625 
C 31.90625 42.46875 35.40625 37.75 36.703125 31.828125 
C 36.90625 30.8125 37 29.921875 37.203125 28.90625 
z
" id="Computer_Modern_Bright-101"/>
      <path d="M 42.40625 11.25 
C 40.5 9.84375 38.796875 8.328125 36.703125 7.125 
C 32 4.625 24.796875 3.421875 19.40625 5.921875 
C 11.59375 9.9375 9.5 19.6875 10.59375 27.71875 
C 10.796875 29.328125 11.09375 30.921875 11.59375 32.4375 
C 13.796875 38.96875 19.296875 44.078125 28.296875 43.078125 
C 33.09375 42.671875 35.5 41.875 39.296875 39.765625 
C 40 39.359375 40.59375 38.859375 41.40625 38.65625 
C 41.5 39.859375 41.796875 41.171875 42 42.375 
C 42.296875 43.984375 42.296875 44.1875 40.796875 44.890625 
C 39.703125 45.390625 38.59375 45.984375 37.40625 46.390625 
C 32.796875 48.40625 25.203125 49 20 47.5 
C 12.90625 45.484375 7.59375 39.359375 5.296875 32.53125 
C 4.203125 29.421875 3.90625 26.109375 3.90625 22.796875 
C 4 12.25 11.203125 1.90625 21.703125 -0.203125 
C 27.5 -1.40625 34.203125 0.296875 38.203125 2.40625 
C 39.203125 2.90625 42.203125 4.71875 42.703125 5.625 
C 43 6.125 42.40625 11.25 42.40625 11.25 
z
" id="Computer_Modern_Bright-99"/>
      <path d="M 10.796875 60.5 
L 10.796875 47.015625 
L 1.09375 47.015625 
L 1.09375 42 
L 10.703125 42 
L 10.703125 15.015625 
C 10.703125 10.578125 10.40625 5.234375 13.296875 1.515625 
C 15 -0.703125 17.296875 -1.296875 20.796875 -1 
C 23.703125 -1 26.59375 -0.390625 29.296875 0.65625 
C 30.203125 1.0625 33.5 2.515625 33.90625 3.234375 
C 34.09375 3.640625 32.796875 8.09375 32.796875 8.09375 
L 30.40625 6.265625 
C 27.296875 4.34375 21.09375 2.328125 18.5 5.96875 
C 16.203125 9.09375 16.796875 13.75 16.796875 17.375 
L 16.796875 42 
L 32.296875 42 
L 32.296875 47.015625 
L 16.796875 47.015625 
L 16.796875 60.5 
z
" id="Computer_Modern_Bright-116"/>
      <path d="M 12.59375 37.28125 
L 12.5 37.28125 
L 12.5 47.390625 
L 6.40625 47.390625 
L 6.40625 0 
L 12.796875 0 
L 12.796875 21.9375 
C 12.796875 26.84375 12.5 31.875 14.703125 36.46875 
C 15.796875 38.78125 17.5 40.78125 19.796875 41.984375 
C 21.703125 42.890625 23.703125 42.890625 25.796875 42.6875 
C 28.796875 42.6875 31.703125 41.890625 33.59375 39.375 
C 35.40625 37.0625 35.5 34.0625 35.5 31.25 
L 35.5 0 
L 41.90625 0 
L 41.90625 26.859375 
C 41.90625 31.875 42.40625 37.375 40 41.890625 
C 38.09375 45.5 34.40625 47.203125 30.5 47.703125 
C 28.5 48 26.40625 48 24.40625 47.609375 
C 19.203125 46.5 14.40625 42.296875 12.59375 37.28125 
z
" id="Computer_Modern_Bright-110"/>
      <path d="M 10.59375 76 
L 10.59375 -22 
L 26.296875 -22 
L 26.296875 -16.96875 
L 16.703125 -16.96875 
L 16.703125 70.984375 
L 26.296875 70.984375 
L 26.296875 76 
z
" id="Computer_Modern_Bright-91"/>
      <path d="M 1.5 76 
L 1.5 70.984375 
L 11.09375 70.984375 
L 11.09375 -16.96875 
L 1.5 -16.96875 
L 1.5 -22 
L 17.203125 -22 
L 17.203125 76 
z
" id="Computer_Modern_Bright-93"/>
     </defs>
     <g style="fill:#262626;" transform="translate(97.050181 347.119464)scale(0.14 -0.14)">
      <use transform="translate(0 14.943915)scale(0.996264)" xlink:href="#Computer_Modern_Bright_Math_Slanted-107"/>
      <use transform="translate(48.567597 0)scale(0.697382)" xlink:href="#Computer_Modern_Bright_Math_Slanted-99"/>
      <use transform="translate(87.298029 0)scale(0.697382)" xlink:href="#Computer_Modern_Bright_Math_Slanted-97"/>
      <use transform="translate(122.805699 0)scale(0.697382)" xlink:href="#Computer_Modern_Bright_Math_Slanted-116"/>
      <use transform="translate(186.583895 14.943915)scale(0.996264)" xlink:href="#Computer_Modern_Bright-111"/>
      <use transform="translate(237.227113 14.943915)scale(0.996264)" xlink:href="#Computer_Modern_Bright-102"/>
      <use transform="translate(298.995269 14.943915)scale(0.996264)" xlink:href="#Computer_Modern_Bright-98"/>
      <use transform="translate(347.147766 14.943915)scale(0.996264)" xlink:href="#Computer_Modern_Bright-105"/>
      <use transform="translate(366.242724 14.943915)scale(0.996264)" xlink:href="#Computer_Modern_Bright-111"/>
      <use transform="translate(416.885942 14.943915)scale(0.996264)" xlink:href="#Computer_Modern_Bright-109"/>
      <use transform="translate(494.096069 14.943915)scale(0.996264)" xlink:href="#Computer_Modern_Bright-97"/>
      <use transform="translate(540.588151 14.943915)scale(0.996264)" xlink:href="#Computer_Modern_Bright-115"/>
      <use transform="translate(579.02718 14.943915)scale(0.996264)" xlink:href="#Computer_Modern_Bright-115"/>
      <use transform="translate(648.931421 14.943915)scale(0.996264)" xlink:href="#Computer_Modern_Bright-114"/>
      <use transform="translate(680.89478 14.943915)scale(0.996264)" xlink:href="#Computer_Modern_Bright-101"/>
      <use transform="translate(725.726448 14.943915)scale(0.996264)" xlink:href="#Computer_Modern_Bright-97"/>
      <use transform="translate(772.21853 14.943915)scale(0.996264)" xlink:href="#Computer_Modern_Bright-99"/>
      <use transform="translate(817.050198 14.943915)scale(0.996264)" xlink:href="#Computer_Modern_Bright-116"/>
      <use transform="translate(853.164585 14.943915)scale(0.996264)" xlink:href="#Computer_Modern_Bright-105"/>
      <use transform="translate(872.259544 14.943915)scale(0.996264)" xlink:href="#Computer_Modern_Bright-111"/>
      <use transform="translate(922.902762 14.943915)scale(0.996264)" xlink:href="#Computer_Modern_Bright-110"/>
      <use transform="translate(1002.520471 14.943915)scale(0.996264)" xlink:href="#Computer_Modern_Bright-91"/>
      <use transform="translate(1030.194358 14.943915)scale(0.996264)" xlink:href="#Computer_Modern_Bright-115"/>
      <use transform="translate(1068.633387 51.097553)scale(0.697382)" xlink:href="#Computer_Modern_Bright_Math_Symbols-0"/>
      <use transform="translate(1122.87438 51.097553)scale(0.697382)" xlink:href="#Computer_Modern_Bright-49"/>
      <use transform="translate(1158.822598 14.943915)scale(0.996264)" xlink:href="#Computer_Modern_Bright-93"/>
     </g>
    </g>
   </g>
   <g id="matplotlib.axis_2">
    <g id="ytick_1">
     <g id="line2d_62"/>
     <g id="text_9">
      <!-- $0.0$ -->
      <defs>
       <path d="M 10.703125 7.8125 
L 10.703125 0 
L 18.5 0 
L 18.5 7.8125 
z
" id="Computer_Modern_Bright_Math_Slanted-58"/>
      </defs>
      <g style="fill:#262626;" transform="translate(23.360295 319.151098)scale(0.12 -0.12)">
       <use transform="scale(0.996264)" xlink:href="#Computer_Modern_Bright-48"/>
       <use transform="translate(50.643218 0)scale(0.996264)" xlink:href="#Computer_Modern_Bright_Math_Slanted-58"/>
       <use transform="translate(79.700665 0)scale(0.996264)" xlink:href="#Computer_Modern_Bright-48"/>
      </g>
     </g>
    </g>
    <g id="ytick_2">
     <g id="line2d_63"/>
     <g id="text_10">
      <!-- $0.1$ -->
      <g style="fill:#262626;" transform="translate(23.360295 284.031558)scale(0.12 -0.12)">
       <use transform="scale(0.996264)" xlink:href="#Computer_Modern_Bright-48"/>
       <use transform="translate(50.643218 0)scale(0.996264)" xlink:href="#Computer_Modern_Bright_Math_Slanted-58"/>
       <use transform="translate(79.700665 0)scale(0.996264)" xlink:href="#Computer_Modern_Bright-49"/>
      </g>
     </g>
    </g>
    <g id="ytick_3">
     <g id="line2d_64"/>
     <g id="text_11">
      <!-- $0.2$ -->
      <g style="fill:#262626;" transform="translate(23.360295 248.912019)scale(0.12 -0.12)">
       <use transform="scale(0.996264)" xlink:href="#Computer_Modern_Bright-48"/>
       <use transform="translate(50.643218 0)scale(0.996264)" xlink:href="#Computer_Modern_Bright_Math_Slanted-58"/>
       <use transform="translate(79.700665 0)scale(0.996264)" xlink:href="#Computer_Modern_Bright-50"/>
      </g>
     </g>
    </g>
    <g id="ytick_4">
     <g id="line2d_65"/>
     <g id="text_12">
      <!-- $0.3$ -->
      <g style="fill:#262626;" transform="translate(23.360295 213.79248)scale(0.12 -0.12)">
       <use transform="scale(0.996264)" xlink:href="#Computer_Modern_Bright-48"/>
       <use transform="translate(50.643218 0)scale(0.996264)" xlink:href="#Computer_Modern_Bright_Math_Slanted-58"/>
       <use transform="translate(79.700665 0)scale(0.996264)" xlink:href="#Computer_Modern_Bright-51"/>
      </g>
     </g>
    </g>
    <g id="ytick_5">
     <g id="line2d_66"/>
     <g id="text_13">
      <!-- $0.4$ -->
      <defs>
       <path d="M 2.09375 18 
L 31 18 
L 31 0 
L 37.296875 0 
L 37.296875 18 
L 48.703125 18 
L 48.703125 23.328125 
L 37.296875 23.328125 
L 37.296875 66.46875 
L 31.90625 66.46875 
C 30.09375 66.46875 29.59375 66.578125 28.796875 65.0625 
C 24.796875 58.515625 3.703125 25.765625 3 24.859375 
C 2.203125 23.4375 2.09375 23.546875 2.09375 21.4375 
z
M 31.296875 60.875 
L 31.296875 23.328125 
L 8.59375 23.328125 
C 9.296875 24.734375 10.296875 26.03125 11.203125 27.4375 
C 16.203125 35.171875 28.09375 53.546875 30.59375 59.28125 
C 30.90625 59.78125 31 60.375 31.296875 60.875 
z
" id="Computer_Modern_Bright-52"/>
      </defs>
      <g style="fill:#262626;" transform="translate(23.360295 178.672941)scale(0.12 -0.12)">
       <use transform="scale(0.996264)" xlink:href="#Computer_Modern_Bright-48"/>
       <use transform="translate(50.643218 0)scale(0.996264)" xlink:href="#Computer_Modern_Bright_Math_Slanted-58"/>
       <use transform="translate(79.700665 0)scale(0.996264)" xlink:href="#Computer_Modern_Bright-52"/>
      </g>
     </g>
    </g>
    <g id="ytick_6">
     <g id="line2d_67"/>
     <g id="text_14">
      <!-- $0.5$ -->
      <defs>
       <path d="M 8.40625 66.328125 
L 8.40625 30.453125 
L 12.203125 30.453125 
C 12.703125 30.453125 13.40625 30.359375 13.796875 30.5625 
C 14.296875 30.859375 14.59375 31.5625 14.90625 31.96875 
C 15.59375 32.859375 16.40625 33.5625 17.203125 34.265625 
C 20.796875 37.28125 27.703125 38.484375 32.296875 36.171875 
C 38.59375 33.171875 39.796875 25.21875 39.296875 19 
C 39 15.0625 37.796875 11.453125 35.5 9.140625 
C 30.203125 3.5 21.296875 3.5 14.796875 6.796875 
C 11.59375 8.40625 8.90625 10.921875 6.90625 13.921875 
L 6.796875 13.921875 
C 6.5 13.421875 4.203125 9.90625 4.203125 9.296875 
C 4.203125 8.890625 4.5 8.59375 4.703125 8.296875 
C 7.703125 4.78125 11.59375 2.0625 16.09375 0.5625 
C 25 -2.25 35 -0.046875 41.296875 7.1875 
C 48.796875 15.921875 47.796875 30.15625 39.09375 37.765625 
C 36.5 40.1875 32.90625 41.890625 28.59375 42.28125 
C 22.796875 43.09375 17.59375 40.28125 14.5 37.671875 
L 14.5 61 
L 42.90625 61 
L 42.90625 66.328125 
z
" id="Computer_Modern_Bright-53"/>
      </defs>
      <g style="fill:#262626;" transform="translate(23.360295 143.553402)scale(0.12 -0.12)">
       <use transform="scale(0.996264)" xlink:href="#Computer_Modern_Bright-48"/>
       <use transform="translate(50.643218 0)scale(0.996264)" xlink:href="#Computer_Modern_Bright_Math_Slanted-58"/>
       <use transform="translate(79.700665 0)scale(0.996264)" xlink:href="#Computer_Modern_Bright-53"/>
      </g>
     </g>
    </g>
    <g id="ytick_7">
     <g id="line2d_68"/>
     <g id="text_15">
      <!-- $0.6$ -->
      <defs>
       <path d="M 11.296875 32.625 
L 11.203125 32.625 
C 11.203125 41.765625 12.796875 52.421875 20.59375 58.25 
C 24.90625 61.375 30.703125 62.96875 38.203125 61.171875 
C 39.796875 60.765625 41.296875 60.15625 42.796875 59.765625 
L 42.796875 63.28125 
C 42.796875 63.671875 42.90625 64.375 42.59375 64.78125 
C 41.90625 65.6875 36.296875 66.59375 36.09375 66.59375 
C 27.40625 67.59375 21.703125 65.6875 16.40625 61.171875 
C 10 55.640625 6.296875 47.515625 5.09375 39.28125 
C 4 32.65625 4.90625 22 6.203125 16.78125 
C 8.296875 9.046875 12.296875 2.21875 19.703125 -0.390625 
C 24.09375 -2 29.5 -2 33.703125 0.015625 
C 37.09375 1.640625 39.90625 4.46875 42.09375 7.5 
C 45.59375 12.34375 46.5 18.21875 46.09375 24.171875 
C 45.90625 27.109375 45.5 30.046875 44.296875 32.765625 
C 42.40625 37.125 39.203125 41.671875 35.09375 43.6875 
C 33.203125 44.5 31.203125 44.5 29.203125 44.5 
C 23.90625 44.5 18.90625 42.1875 15.203125 38.359375 
C 13.59375 36.75 12 34.71875 11.296875 32.625 
z
M 24.40625 39.515625 
C 28.203125 39.8125 32.203125 39.21875 35.09375 36.5 
C 38.90625 32.890625 39.59375 27.765625 39.59375 22.8125 
C 39.59375 19.46875 39.703125 16.015625 38.703125 12.859375 
C 38.09375 11.234375 37.296875 9.828125 36.40625 8.5 
C 34.203125 5.5625 31.40625 4.125 26.796875 3.515625 
C 22.296875 3.515625 17.796875 5.3125 15.203125 9.125 
C 13.59375 11.328125 12.796875 14.046875 12.296875 16.640625 
C 11.703125 19.34375 11.296875 22.140625 11.5 24.859375 
C 12 31.984375 17 38.515625 24.40625 39.515625 
z
" id="Computer_Modern_Bright-54"/>
      </defs>
      <g style="fill:#262626;" transform="translate(23.360295 108.433863)scale(0.12 -0.12)">
       <use transform="scale(0.996264)" xlink:href="#Computer_Modern_Bright-48"/>
       <use transform="translate(50.643218 0)scale(0.996264)" xlink:href="#Computer_Modern_Bright_Math_Slanted-58"/>
       <use transform="translate(79.700665 0)scale(0.996264)" xlink:href="#Computer_Modern_Bright-54"/>
      </g>
     </g>
    </g>
    <g id="ytick_8">
     <g id="line2d_69"/>
     <g id="text_16">
      <!-- $0.7$ -->
      <defs>
       <path d="M 3.59375 65.625 
L 3.59375 60 
L 42.796875 60 
L 39.09375 56.375 
C 35.796875 52.859375 32.796875 49.125 30.09375 45.109375 
C 21.09375 31.515625 16.203125 15.3125 16.203125 -1 
L 22.90625 -1 
C 22.90625 13.703125 26.59375 28.390625 33.59375 41.375 
C 37 47.921875 40.59375 52.640625 45.296875 58.171875 
C 45.90625 58.78125 46.796875 59.484375 47.09375 60.28125 
C 47.296875 60.78125 47.203125 61.484375 47.203125 62.109375 
L 47.203125 65.625 
z
" id="Computer_Modern_Bright-55"/>
      </defs>
      <g style="fill:#262626;" transform="translate(23.360295 73.314324)scale(0.12 -0.12)">
       <use transform="scale(0.996264)" xlink:href="#Computer_Modern_Bright-48"/>
       <use transform="translate(50.643218 0)scale(0.996264)" xlink:href="#Computer_Modern_Bright_Math_Slanted-58"/>
       <use transform="translate(79.700665 0)scale(0.996264)" xlink:href="#Computer_Modern_Bright-55"/>
      </g>
     </g>
    </g>
    <g id="text_17">
     <!-- growth rate [h$^{-1}$] -->
     <defs>
      <path d="M 35.40625 11.984375 
L 35.5 11.984375 
L 35.5 2.65625 
C 35.5 -0.15625 35.5 -2.859375 34.59375 -5.5625 
C 33.09375 -9.1875 30.5 -12.5 26.203125 -13.09375 
C 25 -13.203125 23.703125 -13.09375 22.5 -13 
C 16 -13 11.703125 -11.046875 6.5 -8.671875 
L 6.5 -12.484375 
C 6.5 -14.40625 6.796875 -14.5 8.703125 -15.109375 
C 13.796875 -17.21875 23 -19.3125 29.296875 -17.71875 
C 36.296875 -15.90625 41.40625 -9.28125 41.90625 -1.21875 
C 42 0.1875 41.90625 1.703125 41.90625 3.125 
L 41.90625 48 
L 35.59375 48 
L 35.59375 39.984375 
C 34.09375 42.484375 32.5 44.796875 29.90625 46.40625 
C 22.90625 50.625 13.40625 46 9.5 40.578125 
C 3.09375 32.640625 1.90625 20.34375 7 11.484375 
C 8 9.78125 9.203125 8.171875 10.59375 6.765625 
C 15.40625 2.046875 23.59375 -0.46875 29.5 3.75 
C 31.90625 5.359375 34.703125 9.078125 35.40625 11.984375 
z
M 25.5 43 
C 26.40625 43 27.40625 43 28.296875 42.796875 
C 31.90625 42.09375 33.90625 38.875 35.09375 35.65625 
C 35.796875 33.453125 35.59375 31.046875 35.59375 28.734375 
C 35.59375 23.71875 35.5 18.5 33.796875 13.765625 
C 32.59375 10.265625 30.09375 7.140625 26.203125 6.75 
C 24.90625 6.640625 23.59375 6.84375 22.296875 7.140625 
C 16.203125 8.546875 12 13.765625 10.703125 19.796875 
C 8.90625 28.53125 13.203125 39.171875 22 42.1875 
C 23.09375 42.59375 24.296875 42.890625 25.5 43 
z
" id="Computer_Modern_Bright-103"/>
      <path d="M 0.703125 47.5 
C 0.90625 46.203125 14.40625 0.90625 14.40625 0.90625 
C 14.703125 0 15.203125 0 16.5 0 
L 19.59375 0 
C 20.09375 0 20.796875 -0.09375 21.09375 0.296875 
C 21.40625 0.609375 22.296875 3.8125 22.296875 3.8125 
C 25.296875 14.625 30.5 30.96875 32.5 41.09375 
L 32.59375 41.09375 
C 32.59375 39.6875 33.09375 38.28125 33.40625 36.890625 
C 35 29.765625 43.5 1 43.90625 0.296875 
C 44.203125 -0.203125 45 0 45.5 0 
L 49.296875 0 
C 49.796875 0 50.5 -0.09375 50.90625 0.109375 
C 51.203125 0.296875 51.296875 0.703125 51.40625 1 
C 54.40625 11.640625 64.703125 45.203125 65.09375 47.5 
C 63 47.5 60.90625 47.5 59.09375 47.203125 
L 58.703125 46.1875 
C 54.90625 33 50.796875 20.203125 47.40625 6.609375 
L 47.296875 6.609375 
L 46.203125 11.21875 
L 35.703125 47.5 
L 29.796875 47.5 
C 26 33.875 21.59375 20.84375 18.40625 6.609375 
L 16.703125 13.609375 
C 13.40625 24.8125 10.296875 36.203125 6.90625 47.203125 
C 5.09375 47.5 2.796875 47.5 0.703125 47.5 
z
" id="Computer_Modern_Bright-119"/>
      <path d="M 6.40625 69.6875 
L 6.40625 0 
L 12.796875 0 
L 12.796875 21.984375 
C 12.796875 26.90625 12.5 31.9375 14.703125 36.546875 
C 15.796875 38.859375 17.5 40.875 19.796875 42.078125 
C 21.703125 42.984375 23.703125 42.984375 25.796875 42.78125 
C 28.796875 42.78125 31.703125 41.984375 33.59375 39.453125 
C 35.40625 37.140625 35.5 34.140625 35.5 31.3125 
L 35.5 0 
L 41.90625 0 
L 41.90625 27.21875 
C 41.90625 32.234375 42.40625 37.75 39.90625 42.28125 
C 37.90625 45.6875 34.40625 47.296875 30.703125 47.796875 
C 28.703125 48 26.703125 48 24.703125 47.703125 
C 21.09375 47.015625 18 45.03125 15.59375 42.34375 
C 14.5 41.046875 13.203125 39.46875 12.796875 37.765625 
L 12.703125 37.765625 
L 12.703125 69.6875 
z
" id="Computer_Modern_Bright-104"/>
     </defs>
     <g style="fill:#262626;" transform="translate(16.260804 230.512352)rotate(-90)scale(0.14 -0.14)">
      <use transform="scale(0.996264)" xlink:href="#Computer_Modern_Bright-103"/>
      <use transform="translate(48.152497 0)scale(0.996264)" xlink:href="#Computer_Modern_Bright-114"/>
      <use transform="translate(80.115856 0)scale(0.996264)" xlink:href="#Computer_Modern_Bright-111"/>
      <use transform="translate(127.853344 0)scale(0.996264)" xlink:href="#Computer_Modern_Bright-119"/>
      <use transform="translate(193.440385 0)scale(0.996264)" xlink:href="#Computer_Modern_Bright-116"/>
      <use transform="translate(229.554773 0)scale(0.996264)" xlink:href="#Computer_Modern_Bright-104"/>
      <use transform="translate(309.172482 0)scale(0.996264)" xlink:href="#Computer_Modern_Bright-114"/>
      <use transform="translate(341.135841 0)scale(0.996264)" xlink:href="#Computer_Modern_Bright-97"/>
      <use transform="translate(387.627923 0)scale(0.996264)" xlink:href="#Computer_Modern_Bright-116"/>
      <use transform="translate(423.742311 0)scale(0.996264)" xlink:href="#Computer_Modern_Bright-101"/>
      <use transform="translate(500.03919 0)scale(0.996264)" xlink:href="#Computer_Modern_Bright-91"/>
      <use transform="translate(527.713077 0)scale(0.996264)" xlink:href="#Computer_Modern_Bright-104"/>
      <use transform="translate(575.865574 36.153639)scale(0.697382)" xlink:href="#Computer_Modern_Bright_Math_Symbols-0"/>
      <use transform="translate(630.106568 36.153639)scale(0.697382)" xlink:href="#Computer_Modern_Bright-49"/>
      <use transform="translate(666.054785 0)scale(0.996264)" xlink:href="#Computer_Modern_Bright-93"/>
     </g>
    </g>
   </g>
   <g id="line2d_70">
    <path clip-path="url(#p7f7e481be0)" d="M 57.681818 281.251153 
L 66.136357 266.423592 
L 74.590917 247.401902 
L 83.045477 224.646465 
L 91.500017 199.440381 
L 99.954545 173.718608 
L 108.409084 149.49059 
L 116.863644 128.238384 
L 125.318204 110.65217 
L 133.772744 96.728915 
L 142.227273 86.032607 
L 150.681811 77.955623 
L 159.136371 71.910668 
L 167.590932 67.406841 
L 176.045471 64.065749 
L 184.5 61.598717 
L 192.954539 59.789428 
L 201.409098 58.475899 
L 209.863659 57.535207 
L 218.318199 56.872211 
L 226.772727 56.412543 
L 235.227266 56.098383 
L 243.681826 55.885896 
L 252.136386 55.742993 
L 260.590926 55.64699 
L 269.045455 55.582304 
L 277.499993 55.538447 
L 285.954553 55.508449 
L 294.409113 55.487712 
L 302.863653 55.473205 
L 311.318182 55.462927 
" style="fill:none;stroke:#56b4e9;stroke-linecap:round;stroke-width:2;"/>
   </g>
   <g id="line2d_71">
    <path clip-path="url(#p7f7e481be0)" d="M 57.681818 286.712301 
L 66.136357 274.813762 
L 74.590917 259.577876 
L 83.045477 241.148301 
L 91.500017 220.236319 
L 99.954545 198.02621 
L 108.409084 175.938957 
L 116.863644 155.251663 
L 125.318204 136.860771 
L 133.772744 121.233505 
L 142.227273 108.452689 
L 150.681811 98.33187 
L 159.136371 90.529575 
L 167.590932 84.642278 
L 176.045471 80.271812 
L 184.5 77.066559 
L 192.954539 74.738717 
L 201.409098 73.064077 
L 209.863659 71.872432 
L 218.318199 71.035398 
L 226.772727 70.455744 
L 235.227266 70.05977 
L 243.681826 69.792263 
L 252.136386 69.612853 
L 260.590926 69.492885 
L 269.045455 69.41258 
L 277.499993 69.358583 
L 285.954553 69.322008 
L 294.409113 69.296999 
L 302.863653 69.279708 
L 311.318182 69.267606 
" style="fill:none;stroke:#0072b2;stroke-linecap:round;stroke-width:2;"/>
   </g>
   <g id="line2d_72">
    <path clip-path="url(#p7f7e481be0)" d="M 57.681818 296.838335 
L 66.136357 289.688554 
L 74.590917 280.915171 
L 83.045477 270.606165 
L 91.500017 259.107558 
L 99.954545 247.028104 
L 108.409084 235.063115 
L 116.863644 223.835618 
L 125.318204 213.777866 
L 133.772744 205.092248 
L 142.227273 197.784032 
L 150.681811 191.730492 
L 159.136371 186.751003 
L 167.590932 182.658435 
L 176.045471 179.288024 
L 184.5 176.508438 
L 192.954539 174.221548 
L 201.409098 172.356009 
L 209.863659 170.858054 
L 218.318199 169.68203 
L 226.772727 168.783185 
L 235.227266 168.114731 
L 243.681826 167.629358 
L 252.136386 167.283049 
L 260.590926 167.038416 
L 269.045455 166.866099 
L 277.499993 166.744359 
L 285.954553 166.657733 
L 294.409113 166.595486 
L 302.863653 166.550256 
L 311.318182 166.517012 
" style="fill:none;stroke:#6e70e5;stroke-linecap:round;stroke-width:2;"/>
   </g>
   <g id="line2d_73">
    <path clip-path="url(#p7f7e481be0)" d="M 57.681818 300.721472 
L 66.136357 295.654517 
L 74.590917 289.538931 
L 83.045477 282.524344 
L 91.500017 274.893275 
L 99.954545 267.011475 
L 108.409084 259.269906 
L 116.863644 252.043583 
L 125.318204 245.628398 
L 133.772744 240.20968 
L 142.227273 235.849608 
L 150.681811 232.497803 
L 159.136371 230.020973 
L 167.590932 228.246749 
L 176.045471 227.00341 
L 184.5 226.143819 
L 192.954539 225.553453 
L 201.409098 225.148503 
L 209.863659 224.869961 
L 218.318199 224.67723 
L 226.772727 224.542742 
L 235.227266 224.44791 
L 243.681826 224.380237 
L 252.136386 224.331321 
L 260.590926 224.295502 
L 269.045455 224.268938 
L 277.499993 224.249008 
L 285.954553 224.233897 
L 294.409113 224.222337 
L 302.863653 224.213426 
L 311.318182 224.206515 
" style="fill:none;stroke:#cc79a7;stroke-linecap:round;stroke-width:2;"/>
   </g>
   <g id="line2d_74">
    <path clip-path="url(#p7f7e481be0)" d="M 57.681818 287.69493 
L 66.136357 277.076382 
L 74.590917 264.09836 
L 83.045477 249.240834 
L 91.500017 233.370637 
L 99.954545 217.546014 
L 108.409084 202.728765 
L 116.863644 189.57208 
L 125.318204 178.379716 
L 133.772744 169.154938 
L 142.227273 161.691067 
L 150.681811 155.692529 
L 159.136371 150.859315 
L 167.590932 146.935935 
L 176.045471 143.726305 
L 184.5 141.089837 
L 192.954539 138.929612 
L 201.409098 137.178276 
L 209.863659 135.784898 
L 218.318199 134.704542 
L 226.772727 133.891852 
L 235.227266 133.299318 
L 243.681826 132.879484 
L 252.136386 132.58883 
L 260.590926 132.39088 
L 269.045455 132.257359 
L 277.499993 132.167628 
L 285.954553 132.107258 
L 294.409113 132.066441 
L 302.863653 132.03863 
L 311.318182 132.019492 
" style="fill:none;stroke:#e69f00;stroke-linecap:round;stroke-width:2;"/>
   </g>
   <g id="line2d_75">
    <path clip-path="url(#p7f7e481be0)" d="M 57.681818 294.447079 
L 66.136357 287.190832 
L 74.590917 278.460338 
L 83.045477 268.513165 
L 91.500017 257.820915 
L 99.954545 246.958042 
L 108.409084 236.479901 
L 116.863644 226.814629 
L 125.318204 218.210035 
L 133.772744 210.719154 
L 142.227273 204.219221 
L 150.681811 198.615512 
L 159.136371 193.794136 
L 167.590932 189.64101 
L 176.045471 186.059335 
L 184.5 182.97591 
L 192.954539 180.340102 
L 201.409098 178.119702 
L 209.863659 176.293529 
L 218.318199 174.841047 
L 226.772727 173.729023 
L 235.227266 172.911137 
L 243.681826 172.331898 
L 252.136386 171.934653 
L 260.590926 171.66897 
L 269.045455 171.494489 
L 277.499993 171.381328 
L 285.954553 171.30853 
L 294.409113 171.261932 
L 302.863653 171.232186 
L 311.318182 171.213219 
" style="fill:none;stroke:#d55e00;stroke-linecap:round;stroke-width:2;"/>
   </g>
   <g id="line2d_76">
    <path clip-path="url(#p7f7e481be0)" d="M 269.138272 315 
L 269.138272 43.2 
" style="fill:none;stroke:#808080;stroke-dasharray:3.7,1.6;stroke-dashoffset:0;"/>
   </g>
   <g id="patch_3">
    <path d="M 45 315 
L 45 43.2 
" style="fill:none;stroke:#262626;stroke-linecap:square;stroke-linejoin:miter;stroke-width:1.25;"/>
   </g>
   <g id="patch_4">
    <path d="M 324 315 
L 324 43.2 
" style="fill:none;stroke:#262626;stroke-linecap:square;stroke-linejoin:miter;stroke-width:1.25;"/>
   </g>
   <g id="patch_5">
    <path d="M 45 315 
L 324 315 
" style="fill:none;stroke:#262626;stroke-linecap:square;stroke-linejoin:miter;stroke-width:1.25;"/>
   </g>
   <g id="patch_6">
    <path d="M 45 43.2 
L 324 43.2 
" style="fill:none;stroke:#262626;stroke-linecap:square;stroke-linejoin:miter;stroke-width:1.25;"/>
   </g>
   <g id="text_18">
    <!-- default $k_{cat}$ -->
    <defs>
     <path d="M 35.59375 69.6875 
L 35.59375 41.375 
C 33.703125 43.484375 31.796875 45.484375 29.203125 46.6875 
C 20.296875 50.40625 11.703125 45.59375 7.296875 37.65625 
C 2.203125 28.21875 2.796875 15.765625 8.90625 6.921875 
C 13.203125 0.796875 20.296875 -2.203125 27.796875 0.5 
C 30.703125 1.609375 34.203125 4.515625 35.40625 7.125 
L 35.5 7.125 
L 35.5 0 
L 41.90625 0 
L 41.90625 69.6875 
z
M 35.203125 37.453125 
C 35.703125 36.546875 35.5 35.34375 35.5 34.34375 
L 35.5 13.65625 
C 35.5 11.34375 35.40625 11.140625 34.09375 9.34375 
C 32.296875 6.625 29.5 4.71875 26.203125 4.421875 
C 21.40625 4.015625 16.5 6.328125 13.703125 10.25 
C 12.09375 12.546875 11.203125 15.359375 10.703125 18.171875 
C 10.5 19.28125 10.5 20.28125 10.40625 21.390625 
C 9.796875 28.015625 11.203125 35.84375 17 40.0625 
C 18 40.765625 19.09375 41.265625 20.203125 41.765625 
C 26 43.984375 32.40625 43.375 35.203125 37.453125 
z
" id="Computer_Modern_Bright-100"/>
     <path d="M 6.40625 47 
L 6.40625 12.96875 
C 6.40625 10.046875 6.5 7.140625 7.703125 4.421875 
C 9.59375 0.515625 13.59375 -1 17.703125 -1 
C 23.203125 -1 28.703125 0.8125 32.703125 4.734375 
C 33.796875 5.828125 34.796875 6.9375 35.5 8.34375 
L 35.59375 8.34375 
L 35.59375 -0.390625 
L 41.90625 -0.390625 
L 41.90625 47 
L 35.5 47 
L 35.5 22.90625 
C 35.5 18.6875 36.09375 14.0625 33.90625 10.25 
C 32.296875 7.4375 29.5 5.234375 26.40625 4.234375 
C 24.296875 3.625 22.09375 3.625 19.90625 3.828125 
C 17.796875 4.03125 15.5 4.234375 14.09375 6.03125 
C 12.09375 8.453125 12.796875 14.171875 12.796875 17.6875 
L 12.796875 47 
z
" id="Computer_Modern_Bright-117"/>
     <path d="M 6.40625 69.6875 
L 6.40625 0 
L 12.703125 0 
L 12.703125 69.6875 
z
" id="Computer_Modern_Bright-108"/>
    </defs>
    <g style="fill:#808080;" transform="translate(235.861571 40.875389)scale(0.14 -0.14)">
     <use transform="translate(0 14.943915)scale(0.996264)" xlink:href="#Computer_Modern_Bright-100"/>
     <use transform="translate(48.152497 14.943915)scale(0.996264)" xlink:href="#Computer_Modern_Bright-101"/>
     <use transform="translate(92.984165 14.943915)scale(0.996264)" xlink:href="#Computer_Modern_Bright-102"/>
     <use transform="translate(123.287109 14.943915)scale(0.996264)" xlink:href="#Computer_Modern_Bright-97"/>
     <use transform="translate(169.779191 14.943915)scale(0.996264)" xlink:href="#Computer_Modern_Bright-117"/>
     <use transform="translate(217.931688 14.943915)scale(0.996264)" xlink:href="#Computer_Modern_Bright-108"/>
     <use transform="translate(237.026647 14.943915)scale(0.996264)" xlink:href="#Computer_Modern_Bright-116"/>
     <use transform="translate(304.606246 14.943915)scale(0.996264)" xlink:href="#Computer_Modern_Bright_Math_Slanted-107"/>
     <use transform="translate(353.173843 0)scale(0.697382)" xlink:href="#Computer_Modern_Bright_Math_Slanted-99"/>
     <use transform="translate(391.904276 0)scale(0.697382)" xlink:href="#Computer_Modern_Bright_Math_Slanted-97"/>
     <use transform="translate(427.411945 0)scale(0.697382)" xlink:href="#Computer_Modern_Bright_Math_Slanted-116"/>
    </g>
   </g>
   <g id="legend_1">
    <g id="line2d_77">
     <path d="M 150.574895 247.537421 
L 170.574895 247.537421 
" style="fill:none;stroke:#56b4e9;stroke-linecap:round;stroke-width:2;"/>
    </g>
    <g id="line2d_78"/>
    <g id="text_19">
     <!-- max-gr -->
     <defs>
      <path d="M -0.203125 47.390625 
L 10.09375 34.46875 
L 18.203125 24.546875 
L 18.203125 24.453125 
L 15.703125 21.328125 
L -0.796875 0 
C 1.5 0 3.90625 0 6.09375 0 
L 7.40625 1.625 
L 20.90625 20.828125 
L 21 20.828125 
C 26 13.921875 31 6.90625 36.296875 0.296875 
C 38.40625 0 40.90625 0 43.296875 0 
L 31.09375 15.296875 
C 28.703125 18.40625 26.203125 21.4375 23.703125 24.453125 
L 23.703125 24.546875 
L 27.09375 28.75 
L 41.5 47.390625 
C 39.203125 47.390625 36.90625 47.390625 34.703125 47.390625 
L 33.40625 45.890625 
L 21 29.171875 
C 16.203125 35.046875 11.703125 41.3125 6.796875 47.09375 
C 4.703125 47.390625 2.203125 47.390625 -0.203125 47.390625 
z
" id="Computer_Modern_Bright-120"/>
      <path d="M 0.40625 26.015625 
L 0.40625 21 
L 28.296875 21 
L 28.296875 26.015625 
z
" id="Computer_Modern_Bright-45"/>
     </defs>
     <g style="fill:#262626;" transform="translate(178.574895 251.037421)scale(0.1 -0.1)">
      <use transform="scale(0.996264)" xlink:href="#Computer_Modern_Bright-109"/>
      <use transform="translate(77.210126 0)scale(0.996264)" xlink:href="#Computer_Modern_Bright-97"/>
      <use transform="translate(123.702209 0)scale(0.996264)" xlink:href="#Computer_Modern_Bright-120"/>
      <use transform="translate(166.043247 0)scale(0.996264)" xlink:href="#Computer_Modern_Bright-45"/>
      <use transform="translate(199.25192 0)scale(0.996264)" xlink:href="#Computer_Modern_Bright-103"/>
      <use transform="translate(247.404417 0)scale(0.996264)" xlink:href="#Computer_Modern_Bright-114"/>
     </g>
    </g>
    <g id="line2d_79">
     <path d="M 150.574895 258.197851 
L 170.574895 258.197851 
" style="fill:none;stroke:#0072b2;stroke-linecap:round;stroke-width:2;"/>
    </g>
    <g id="line2d_80"/>
    <g id="text_20">
     <!-- pareto -->
     <defs>
      <path d="M 12.703125 40.53125 
L 12.703125 47.15625 
L 6.40625 47.15625 
L 6.40625 -17 
L 12.796875 -17 
L 12.796875 6.09375 
C 14.203125 4.078125 15.796875 2.28125 17.90625 1.078125 
C 25 -3.25 34 0.171875 38.90625 6.59375 
C 45.40625 14.96875 46.09375 27.5 41.59375 36.984375 
C 39 42.4375 34.09375 47.5 27.796875 48 
C 22.296875 48 18.09375 45.8125 15.09375 43.125 
C 14.203125 42.328125 13.5 41.4375 12.703125 40.53125 
z
M 21.90625 42.875 
C 26 43.171875 30 41.265625 32.796875 38.265625 
C 34.5 36.34375 35.796875 34.140625 36.59375 31.734375 
C 40.09375 22.296875 36.90625 9.234375 26.796875 5.328125 
C 21 3.109375 15.296875 5.125 13.09375 10.546875 
C 12.59375 11.546875 12.796875 12.859375 12.796875 13.953125 
L 12.796875 34.640625 
C 12.796875 36.953125 13 37.15625 14.5 38.859375 
C 16.296875 41.0625 19 42.578125 21.90625 42.875 
z
" id="Computer_Modern_Bright-112"/>
     </defs>
     <g style="fill:#262626;" transform="translate(178.574895 261.697851)scale(0.1 -0.1)">
      <use transform="scale(0.996264)" xlink:href="#Computer_Modern_Bright-112"/>
      <use transform="translate(48.152497 0)scale(0.996264)" xlink:href="#Computer_Modern_Bright-97"/>
      <use transform="translate(91.73885 0)scale(0.996264)" xlink:href="#Computer_Modern_Bright-114"/>
      <use transform="translate(123.702209 0)scale(0.996264)" xlink:href="#Computer_Modern_Bright-101"/>
      <use transform="translate(168.533876 0)scale(0.996264)" xlink:href="#Computer_Modern_Bright-116"/>
      <use transform="translate(204.648264 0)scale(0.996264)" xlink:href="#Computer_Modern_Bright-111"/>
     </g>
    </g>
    <g id="line2d_81">
     <path d="M 150.574895 268.85828 
L 170.574895 268.85828 
" style="fill:none;stroke:#6e70e5;stroke-linecap:round;stroke-width:2;"/>
    </g>
    <g id="line2d_82"/>
    <g id="text_21">
     <!-- max-yield -->
     <defs>
      <path d="M 0.703125 47.65625 
C 1.296875 45.75 5.40625 35.609375 5.5 35.3125 
L 17.40625 4.578125 
L 18.40625 2.078125 
C 19 0.671875 19.203125 0.46875 18.59375 -1.140625 
L 17.5 -4.046875 
C 16.59375 -6.46875 15.59375 -8.96875 13.703125 -10.484375 
C 10.296875 -13.296875 4.90625 -11.6875 0.796875 -10.78125 
L 1.296875 -16.5 
C 3.203125 -16.796875 5.09375 -17 7 -17 
C 11.296875 -17.515625 14.09375 -16.5 16.703125 -14.296875 
C 20 -11.484375 21.59375 -7.5625 23.09375 -3.546875 
L 26.203125 5.078125 
L 36.40625 32.90625 
C 38.09375 37.921875 40.203125 42.640625 41.796875 47.65625 
L 37.296875 47.65625 
C 36.796875 47.65625 36 47.859375 35.59375 47.46875 
C 35.40625 47.15625 35.296875 46.765625 35.203125 46.453125 
L 34.40625 44.34375 
C 33.40625 41.734375 32.5 39.234375 31.59375 36.609375 
L 25.796875 20.25 
C 24.296875 15.828125 22.59375 11.3125 21.796875 6.6875 
C 20.703125 11.3125 19.203125 15.734375 17.59375 20.140625 
C 16.296875 23.5625 8.5 44.546875 7.5 46.5625 
C 7.09375 47.65625 6.703125 47.65625 5.203125 47.65625 
z
" id="Computer_Modern_Bright-121"/>
     </defs>
     <g style="fill:#262626;" transform="translate(178.574895 272.35828)scale(0.1 -0.1)">
      <use transform="scale(0.996264)" xlink:href="#Computer_Modern_Bright-109"/>
      <use transform="translate(77.210126 0)scale(0.996264)" xlink:href="#Computer_Modern_Bright-97"/>
      <use transform="translate(123.702209 0)scale(0.996264)" xlink:href="#Computer_Modern_Bright-120"/>
      <use transform="translate(166.043247 0)scale(0.996264)" xlink:href="#Computer_Modern_Bright-45"/>
      <use transform="translate(199.25192 0)scale(0.996264)" xlink:href="#Computer_Modern_Bright-121"/>
      <use transform="translate(241.592958 0)scale(0.996264)" xlink:href="#Computer_Modern_Bright-105"/>
      <use transform="translate(260.687917 0)scale(0.996264)" xlink:href="#Computer_Modern_Bright-101"/>
      <use transform="translate(305.519585 0)scale(0.996264)" xlink:href="#Computer_Modern_Bright-108"/>
      <use transform="translate(324.614544 0)scale(0.996264)" xlink:href="#Computer_Modern_Bright-100"/>
     </g>
    </g>
    <g id="line2d_83">
     <path d="M 150.574895 279.51871 
L 170.574895 279.51871 
" style="fill:none;stroke:#cc79a7;stroke-linecap:round;stroke-width:2;"/>
    </g>
    <g id="line2d_84"/>
    <g id="text_22">
     <!-- ana-lac -->
     <g style="fill:#262626;" transform="translate(178.574895 283.01871)scale(0.1 -0.1)">
      <use transform="scale(0.996264)" xlink:href="#Computer_Modern_Bright-97"/>
      <use transform="translate(46.492082 0)scale(0.996264)" xlink:href="#Computer_Modern_Bright-110"/>
      <use transform="translate(94.644579 0)scale(0.996264)" xlink:href="#Computer_Modern_Bright-97"/>
      <use transform="translate(141.136662 0)scale(0.996264)" xlink:href="#Computer_Modern_Bright-45"/>
      <use transform="translate(174.345335 0)scale(0.996264)" xlink:href="#Computer_Modern_Bright-108"/>
      <use transform="translate(193.440294 0)scale(0.996264)" xlink:href="#Computer_Modern_Bright-97"/>
      <use transform="translate(239.932376 0)scale(0.996264)" xlink:href="#Computer_Modern_Bright-99"/>
     </g>
    </g>
    <g id="line2d_85">
     <path d="M 150.574895 290.17914 
L 170.574895 290.17914 
" style="fill:none;stroke:#e69f00;stroke-linecap:round;stroke-width:2;"/>
    </g>
    <g id="line2d_86"/>
    <g id="text_23">
     <!-- aero-ace -->
     <g style="fill:#262626;" transform="translate(178.574895 293.67914)scale(0.1 -0.1)">
      <use transform="scale(0.996264)" xlink:href="#Computer_Modern_Bright-97"/>
      <use transform="translate(46.492082 0)scale(0.996264)" xlink:href="#Computer_Modern_Bright-101"/>
      <use transform="translate(91.32375 0)scale(0.996264)" xlink:href="#Computer_Modern_Bright-114"/>
      <use transform="translate(123.287109 0)scale(0.996264)" xlink:href="#Computer_Modern_Bright-111"/>
      <use transform="translate(173.930327 0)scale(0.996264)" xlink:href="#Computer_Modern_Bright-45"/>
      <use transform="translate(207.139 0)scale(0.996264)" xlink:href="#Computer_Modern_Bright-97"/>
      <use transform="translate(253.631083 0)scale(0.996264)" xlink:href="#Computer_Modern_Bright-99"/>
      <use transform="translate(298.46275 0)scale(0.996264)" xlink:href="#Computer_Modern_Bright-101"/>
     </g>
    </g>
    <g id="line2d_87">
     <path d="M 150.574895 300.83957 
L 170.574895 300.83957 
" style="fill:none;stroke:#d55e00;stroke-linecap:round;stroke-width:2;"/>
    </g>
    <g id="line2d_88"/>
    <g id="text_24">
     <!-- exp -->
     <g style="fill:#262626;" transform="translate(178.574895 304.33957)scale(0.1 -0.1)">
      <use transform="scale(0.996264)" xlink:href="#Computer_Modern_Bright-101"/>
      <use transform="translate(44.831668 0)scale(0.996264)" xlink:href="#Computer_Modern_Bright-120"/>
      <use transform="translate(87.172706 0)scale(0.996264)" xlink:href="#Computer_Modern_Bright-112"/>
     </g>
    </g>
   </g>
  </g>
 </g>
 <defs>
  <clipPath id="p7f7e481be0">
   <rect height="271.8" width="279" x="45" y="43.2"/>
  </clipPath>
 </defs>
</svg>
