<?xml version="1.0" encoding="utf-8" standalone="no"?>
<!DOCTYPE svg PUBLIC "-//W3C//DTD SVG 1.1//EN"
  "http://www.w3.org/Graphics/SVG/1.1/DTD/svg11.dtd">
<!-- Created with matplotlib (http://matplotlib.org/) -->
<svg height="288pt" version="1.1" viewBox="0 0 864 288" width="864pt" xmlns="http://www.w3.org/2000/svg" xmlns:xlink="http://www.w3.org/1999/xlink">
 <defs>
  <style type="text/css">
*{stroke-linecap:butt;stroke-linejoin:round;}
  </style>
 </defs>
 <g id="figure_1">
  <g id="patch_1">
   <path d="M 0 288 
L 864 288 
L 864 0 
L 0 0 
z
" style="fill:#ffffff;"/>
  </g>
  <g id="axes_1">
   <g id="patch_2">
    <path d="M 55.309057 238.435925 
L 279.435122 238.435925 
L 279.435122 32.355653 
L 55.309057 32.355653 
z
" style="fill:#ffffff;"/>
   </g>
   <g id="matplotlib.axis_1">
    <g id="xtick_1">
     <g id="line2d_1"/>
     <g id="text_1">
      <!-- $10^{-3}$ -->
      <defs>
       <path d="M 9.703125 60.015625 
L 9.703125 55 
C 15.203125 55 19 56 23.40625 57.90625 
L 23.40625 5.015625 
L 10.296875 5.015625 
L 10.296875 0 
L 43 0 
L 43 5.015625 
L 29.90625 5.015625 
L 29.90625 67 
C 27.5 67 27.90625 66.359375 26 64.875 
C 21.90625 61.71875 16.203125 60.015625 9.703125 60.015625 
z
" id="Computer_Modern_Bright-49"/>
       <path d="M 14.796875 63.859375 
C 11.90625 61.859375 9.90625 59.140625 8.40625 56.03125 
C 4.796875 49 4.40625 40.765625 4.40625 31.828125 
C 4.40625 20.578125 6.40625 10.25 12 4.3125 
C 17.296875 -1.203125 25.703125 -2.609375 32.796875 0.296875 
C 37.203125 2.015625 40.40625 5.71875 42.40625 9.734375 
C 46 16.875 46.40625 25.40625 46.40625 34.234375 
C 46.40625 37.046875 46.296875 39.859375 46 42.671875 
C 45.296875 49.40625 43 56.828125 39.296875 60.953125 
C 33.203125 67.6875 22.296875 69.1875 14.796875 63.859375 
z
M 34.90625 58.140625 
C 39.59375 53.125 40 43.484375 40 34.34375 
L 40 28.921875 
C 40 24.296875 39.203125 18.28125 38.203125 14.859375 
C 36.796875 10.140625 34.5 6.734375 29.90625 4.625 
C 24.296875 2.609375 18.5 4.515625 15.296875 8.9375 
C 11 14.65625 10.796875 24.796875 10.796875 33.734375 
C 10.796875 42.171875 10.90625 51.515625 15 57.03125 
C 19.5 63.0625 29.203125 64.0625 34.90625 58.140625 
z
" id="Computer_Modern_Bright-48"/>
       <path d="M 9.796875 28.078125 
C 8 27.484375 7.796875 24.78125 9.796875 24.28125 
C 10.296875 24.078125 10.90625 24.1875 11.5 24.1875 
L 64.703125 24.1875 
C 65.90625 24.1875 67.796875 23.78125 68.796875 24.78125 
C 69.90625 25.875 69.296875 27.875 67.703125 28.1875 
C 66.5 28.375 65.09375 28.1875 63.90625 28.1875 
L 11.40625 28.1875 
C 10.90625 28.1875 10.296875 28.28125 9.796875 28.078125 
z
" id="Computer_Modern_Bright_Math_Symbols-0"/>
       <path d="M 8.09375 50.71875 
C 8.90625 51.921875 9.5 53.234375 10.40625 54.4375 
C 12.5 57.25 15.40625 59.453125 18.703125 60.765625 
C 23.90625 62.875 31.5 62.875 35.59375 58.21875 
C 39.203125 54.078125 37.703125 47.609375 34.40625 43.78125 
C 31.40625 40.25 27.5 38.53125 21.703125 38.53125 
C 20 38.53125 18.40625 38.03125 16.703125 38.03125 
L 16.703125 33 
L 23.59375 33 
C 29.40625 33 33.203125 32.109375 36.40625 28.6875 
C 41.90625 22.859375 41.40625 12.515625 35.296875 7.203125 
C 32.203125 4.59375 27.90625 3.78125 23.90625 4.078125 
C 16.09375 4.6875 9.203125 8.8125 4.59375 15.234375 
C 4.09375 14.234375 4.09375 12.828125 3.90625 11.71875 
C 3.59375 10.109375 3.59375 10.109375 4.59375 8.8125 
C 7.5 4.890625 13.203125 1.28125 17.703125 -0.03125 
C 25.703125 -2.4375 35 -1.34375 41.203125 4.78125 
C 42.40625 6 43.5 7.296875 44.40625 8.703125 
C 48.09375 14.53125 48.203125 22.15625 44.09375 27.78125 
C 42.40625 30.09375 40.203125 31.90625 37.703125 33.3125 
C 36 34.3125 34 35.3125 32 35.515625 
C 37.796875 38.234375 43.203125 42.828125 44.203125 50.359375 
C 45.09375 57.375 41 61.6875 36.796875 64.1875 
C 30.296875 68 21.796875 68 15.09375 64.671875 
C 12 63.171875 9.203125 60.96875 7.09375 58.25 
C 6.703125 57.75 5.203125 56.046875 5.203125 55.234375 
C 5.203125 54.734375 5.59375 54.234375 5.90625 53.828125 
z
" id="Computer_Modern_Bright-51"/>
      </defs>
      <g style="fill:#262626;" transform="translate(79.179124 252.33812)scale(0.12 -0.12)">
       <use transform="scale(0.996264)" xlink:href="#Computer_Modern_Bright-49"/>
       <use transform="translate(50.643218 0)scale(0.996264)" xlink:href="#Computer_Modern_Bright-48"/>
       <use transform="translate(101.286436 36.153639)scale(0.697382)" xlink:href="#Computer_Modern_Bright_Math_Symbols-0"/>
       <use transform="translate(155.527429 36.153639)scale(0.697382)" xlink:href="#Computer_Modern_Bright-51"/>
      </g>
     </g>
    </g>
    <g id="xtick_2">
     <g id="line2d_2"/>
     <g id="text_2">
      <!-- $10^{-1}$ -->
      <g style="fill:#262626;" transform="translate(130.116866 252.33812)scale(0.12 -0.12)">
       <use transform="scale(0.996264)" xlink:href="#Computer_Modern_Bright-49"/>
       <use transform="translate(50.643218 0)scale(0.996264)" xlink:href="#Computer_Modern_Bright-48"/>
       <use transform="translate(101.286436 36.153639)scale(0.697382)" xlink:href="#Computer_Modern_Bright_Math_Symbols-0"/>
       <use transform="translate(155.527429 36.153639)scale(0.697382)" xlink:href="#Computer_Modern_Bright-49"/>
      </g>
     </g>
    </g>
    <g id="xtick_3">
     <g id="line2d_3"/>
     <g id="text_3">
      <!-- $10^{1}$ -->
      <g style="fill:#262626;" transform="translate(184.347862 252.33812)scale(0.12 -0.12)">
       <use transform="scale(0.996264)" xlink:href="#Computer_Modern_Bright-49"/>
       <use transform="translate(50.643218 0)scale(0.996264)" xlink:href="#Computer_Modern_Bright-48"/>
       <use transform="translate(101.286436 36.153639)scale(0.697382)" xlink:href="#Computer_Modern_Bright-49"/>
      </g>
     </g>
    </g>
    <g id="xtick_4">
     <g id="line2d_4"/>
     <g id="text_4">
      <!-- $10^{3}$ -->
      <g style="fill:#262626;" transform="translate(235.285604 252.33812)scale(0.12 -0.12)">
       <use transform="scale(0.996264)" xlink:href="#Computer_Modern_Bright-49"/>
       <use transform="translate(50.643218 0)scale(0.996264)" xlink:href="#Computer_Modern_Bright-48"/>
       <use transform="translate(101.286436 36.153639)scale(0.697382)" xlink:href="#Computer_Modern_Bright-51"/>
      </g>
     </g>
    </g>
    <g id="text_5">
     <!-- glucose level (mM) -->
     <defs>
      <path d="M 35.40625 11.984375 
L 35.5 11.984375 
L 35.5 2.65625 
C 35.5 -0.15625 35.5 -2.859375 34.59375 -5.5625 
C 33.09375 -9.1875 30.5 -12.5 26.203125 -13.09375 
C 25 -13.203125 23.703125 -13.09375 22.5 -13 
C 16 -13 11.703125 -11.046875 6.5 -8.671875 
L 6.5 -12.484375 
C 6.5 -14.40625 6.796875 -14.5 8.703125 -15.109375 
C 13.796875 -17.21875 23 -19.3125 29.296875 -17.71875 
C 36.296875 -15.90625 41.40625 -9.28125 41.90625 -1.21875 
C 42 0.1875 41.90625 1.703125 41.90625 3.125 
L 41.90625 48 
L 35.59375 48 
L 35.59375 39.984375 
C 34.09375 42.484375 32.5 44.796875 29.90625 46.40625 
C 22.90625 50.625 13.40625 46 9.5 40.578125 
C 3.09375 32.640625 1.90625 20.34375 7 11.484375 
C 8 9.78125 9.203125 8.171875 10.59375 6.765625 
C 15.40625 2.046875 23.59375 -0.46875 29.5 3.75 
C 31.90625 5.359375 34.703125 9.078125 35.40625 11.984375 
z
M 25.5 43 
C 26.40625 43 27.40625 43 28.296875 42.796875 
C 31.90625 42.09375 33.90625 38.875 35.09375 35.65625 
C 35.796875 33.453125 35.59375 31.046875 35.59375 28.734375 
C 35.59375 23.71875 35.5 18.5 33.796875 13.765625 
C 32.59375 10.265625 30.09375 7.140625 26.203125 6.75 
C 24.90625 6.640625 23.59375 6.84375 22.296875 7.140625 
C 16.203125 8.546875 12 13.765625 10.703125 19.796875 
C 8.90625 28.53125 13.203125 39.171875 22 42.1875 
C 23.09375 42.59375 24.296875 42.890625 25.5 43 
z
" id="Computer_Modern_Bright-103"/>
      <path d="M 6.40625 69.6875 
L 6.40625 0 
L 12.703125 0 
L 12.703125 69.6875 
z
" id="Computer_Modern_Bright-108"/>
      <path d="M 6.40625 47 
L 6.40625 12.96875 
C 6.40625 10.046875 6.5 7.140625 7.703125 4.421875 
C 9.59375 0.515625 13.59375 -1 17.703125 -1 
C 23.203125 -1 28.703125 0.8125 32.703125 4.734375 
C 33.796875 5.828125 34.796875 6.9375 35.5 8.34375 
L 35.59375 8.34375 
L 35.59375 -0.390625 
L 41.90625 -0.390625 
L 41.90625 47 
L 35.5 47 
L 35.5 22.90625 
C 35.5 18.6875 36.09375 14.0625 33.90625 10.25 
C 32.296875 7.4375 29.5 5.234375 26.40625 4.234375 
C 24.296875 3.625 22.09375 3.625 19.90625 3.828125 
C 17.796875 4.03125 15.5 4.234375 14.09375 6.03125 
C 12.09375 8.453125 12.796875 14.171875 12.796875 17.6875 
L 12.796875 47 
z
" id="Computer_Modern_Bright-117"/>
      <path d="M 42.40625 11.25 
C 40.5 9.84375 38.796875 8.328125 36.703125 7.125 
C 32 4.625 24.796875 3.421875 19.40625 5.921875 
C 11.59375 9.9375 9.5 19.6875 10.59375 27.71875 
C 10.796875 29.328125 11.09375 30.921875 11.59375 32.4375 
C 13.796875 38.96875 19.296875 44.078125 28.296875 43.078125 
C 33.09375 42.671875 35.5 41.875 39.296875 39.765625 
C 40 39.359375 40.59375 38.859375 41.40625 38.65625 
C 41.5 39.859375 41.796875 41.171875 42 42.375 
C 42.296875 43.984375 42.296875 44.1875 40.796875 44.890625 
C 39.703125 45.390625 38.59375 45.984375 37.40625 46.390625 
C 32.796875 48.40625 25.203125 49 20 47.5 
C 12.90625 45.484375 7.59375 39.359375 5.296875 32.53125 
C 4.203125 29.421875 3.90625 26.109375 3.90625 22.796875 
C 4 12.25 11.203125 1.90625 21.703125 -0.203125 
C 27.5 -1.40625 34.203125 0.296875 38.203125 2.40625 
C 39.203125 2.90625 42.203125 4.71875 42.703125 5.625 
C 43 6.125 42.40625 11.25 42.40625 11.25 
z
" id="Computer_Modern_Bright-99"/>
      <path d="M 10.703125 42.078125 
C 1.796875 33.234375 0.796875 17.875 8.5 7.9375 
C 9.59375 6.421875 10.90625 5.125 12.40625 4.015625 
C 16.09375 1 21.5 -1.203125 27.796875 -0.5 
C 37.796875 0.703125 44.703125 8.84375 46.796875 17.375 
C 49.59375 29.328125 43.703125 42.671875 32.703125 46.890625 
C 24.09375 50.40625 15.5 46.890625 10.703125 42.078125 
z
M 35.703125 39.359375 
C 40.5 35.03125 41.40625 28.109375 41 21.984375 
C 40.703125 17.265625 39.40625 12.34375 36.09375 8.828125 
C 30.703125 3 20.703125 3 14.90625 8.625 
C 11.90625 11.84375 10.09375 16.453125 9.796875 21.984375 
C 9.296875 30.109375 11.296875 38.75 19.296875 41.96875 
C 25.203125 44.578125 32 42.671875 35.703125 39.359375 
z
" id="Computer_Modern_Bright-111"/>
      <path d="M 3.09375 9.640625 
C 2.90625 8.234375 2.59375 6.9375 2.40625 5.53125 
C 2.203125 4.421875 1.90625 3.921875 2.90625 3.421875 
C 7 1.015625 11.90625 -0.296875 17.703125 -0.796875 
C 24.203125 -1.40625 32.40625 0.109375 35.59375 6.53125 
C 36.5 8.34375 37 10.34375 37.09375 12.359375 
C 37.5 19.578125 31.796875 24.203125 26.90625 25.90625 
C 21.40625 28.015625 13.90625 27.3125 10.09375 31.53125 
C 8.09375 33.84375 8 37.265625 9.90625 39.671875 
C 13.90625 45.296875 26.796875 42.875 31.90625 40.375 
C 32.703125 39.96875 33.40625 39.46875 34.296875 39.265625 
L 35.203125 44.6875 
C 30.5 46.796875 26.40625 48 19.90625 48 
C 14.296875 48 9.203125 46.703125 6 43.484375 
C 2.796875 40.171875 1.703125 34.640625 3.59375 30.4375 
C 5.40625 26.40625 9.203125 23.796875 13.296875 22.5 
C 19.203125 20.390625 25.90625 21.390625 29.796875 16.578125 
C 32 13.765625 31.59375 9.546875 29.09375 7.03125 
C 24.296875 2.609375 14.09375 4.21875 8.5 6.625 
C 6.59375 7.4375 4.90625 8.640625 3.09375 9.640625 
z
" id="Computer_Modern_Bright-115"/>
      <path d="M 41.796875 10.9375 
C 39.5 9.234375 38.796875 8.328125 35.90625 6.8125 
C 29.796875 3.5 22.59375 3.5 17.40625 7.171875 
C 12.40625 10.765625 9.5 16.640625 9.5 25 
L 42.5 25 
C 42.5 32.421875 40.796875 38.859375 36.59375 43.375 
C 32 47.890625 24.796875 49.296875 18.703125 47.390625 
C 16.40625 46.6875 14.296875 45.484375 12.40625 43.96875 
C 6.09375 38.859375 3.40625 30.71875 3.5 22.78125 
C 3.703125 12.34375 10.796875 1.90625 21.296875 -0.3125 
C 26.796875 -1.421875 32.59375 -0.203125 37.5 2.296875 
C 38.40625 2.796875 41.703125 4.609375 42.09375 5.515625 
C 42.40625 6.015625 41.796875 10.9375 41.796875 10.9375 
z
M 37.203125 28.90625 
L 10 28.90625 
C 11.203125 36.234375 17.203125 43.96875 25.296875 43.0625 
C 31.90625 42.46875 35.40625 37.75 36.703125 31.828125 
C 36.90625 30.8125 37 29.921875 37.203125 28.90625 
z
" id="Computer_Modern_Bright-101"/>
      <path d="M 0.703125 47.5 
C 1.203125 45.5 4.203125 37.578125 4.40625 37.078125 
C 5.40625 34.28125 17.296875 0.609375 17.59375 0.296875 
C 17.90625 -0.203125 18.796875 0 19.296875 0 
L 22.796875 0 
C 24.09375 0 24.90625 -0.296875 25.203125 0.90625 
C 28.40625 9.328125 40.09375 42.703125 41.796875 47.5 
L 35.59375 47.5 
C 30.796875 33.984375 25.90625 20.4375 21.40625 6.609375 
L 11 36.203125 
C 9.5 39.796875 8.59375 43.890625 6.90625 47.203125 
C 5.09375 47.5 2.796875 47.5 0.703125 47.5 
z
" id="Computer_Modern_Bright-118"/>
      <path d="M 34.203125 -22 
C 33.40625 -21.09375 32.40625 -20.28125 31.5 -19.484375 
C 30.703125 -18.78125 30 -17.984375 29.296875 -17.171875 
C 19.296875 -6.125 14.09375 11.546875 14.90625 30.328125 
C 15.296875 40.5625 17.296875 51 22.09375 60.25 
C 24.296875 64.359375 28.09375 70.1875 31.5 73.09375 
C 32.40625 73.90625 33.40625 74.703125 34.203125 75.609375 
L 30.90625 75.609375 
C 30.40625 75.609375 29.703125 75.703125 29.203125 75.515625 
C 28 74.90625 25 71.890625 24.59375 71.484375 
C 15 61.859375 9.296875 47.296875 8.5 30.328125 
C 8 18.171875 10 5.8125 15.40625 -5.03125 
C 17.796875 -9.84375 21 -14.265625 24.796875 -18.078125 
C 25.796875 -19.078125 28 -21.296875 29.203125 -21.890625 
C 29.703125 -22.09375 30.40625 -22 30.90625 -22 
z
" id="Computer_Modern_Bright-40"/>
      <path d="M 12.59375 37.359375 
L 12.5 37.359375 
L 12.5 47.390625 
L 6.40625 47.390625 
L 6.40625 0 
L 12.796875 0 
L 12.796875 22.046875 
C 12.796875 26.953125 12.5 31.875 14.703125 36.375 
C 16.59375 40.28125 19.90625 43.390625 25.796875 42.78125 
C 28.796875 42.78125 31.796875 41.984375 33.703125 39.453125 
C 35.5 37.140625 35.59375 34.140625 35.59375 31.3125 
L 35.59375 0 
L 42 0 
L 42 22.046875 
C 42 26.953125 41.703125 31.875 43.90625 36.375 
C 45.796875 40.28125 49.09375 43.390625 55 42.78125 
C 58 42.78125 61 41.984375 62.90625 39.453125 
C 64.703125 37.140625 64.796875 34.140625 64.796875 31.3125 
L 64.796875 0 
L 71.203125 0 
L 71.203125 26.5625 
C 71.203125 31.375 71.796875 36.78125 69.703125 41.1875 
C 67.59375 45.296875 64.203125 47.5 58.703125 47.5 
C 55.5 47.796875 52.296875 47.3125 49.40625 45.84375 
C 45.90625 43.921875 43.296875 40.75 41.703125 37.265625 
C 41 40.578125 40.203125 42.828125 38 45 
C 35.703125 47.0625 32.59375 48 29.59375 48 
C 22.296875 48.59375 17.703125 45.5625 14.59375 41 
C 13.796875 39.875 13 38.671875 12.59375 37.359375 
z
" id="Computer_Modern_Bright-109"/>
      <path d="M 8.40625 69.59375 
L 8.40625 0 
L 14.59375 0 
L 14.59375 63.265625 
L 14.703125 63.265625 
C 15.09375 61.5625 16.5 58.140625 16.90625 57.03125 
L 21.296875 45.984375 
C 25.59375 35.453125 38.5 4.109375 39.09375 2.515625 
C 39.40625 1.40625 39.90625 1.203125 41.203125 1.203125 
L 43.90625 1.203125 
C 44.296875 1.203125 44.796875 1.109375 45.296875 1.203125 
C 45.796875 1.3125 45.90625 1.8125 46.09375 2.203125 
C 46.40625 3.109375 46.796875 3.921875 47.203125 4.8125 
C 51.796875 16.0625 70 60.546875 70.703125 63.265625 
L 70.796875 63.265625 
L 70.796875 0 
L 77 0 
L 77 69.59375 
C 74 69.59375 70.40625 70.09375 67.796875 69.59375 
L 67.09375 68.09375 
C 58.90625 47.984375 50.5 28.140625 42.703125 7.625 
C 41 12.171875 39.203125 16.578125 37.40625 21.015625 
C 30.703125 37.09375 24.5 53.703125 17.5 69.59375 
C 15 70.203125 11.296875 69.59375 8.40625 69.59375 
z
" id="Computer_Modern_Bright-77"/>
      <path d="M 5 75.609375 
C 5.796875 74.703125 6.796875 73.90625 7.703125 73.09375 
C 8.5 72.390625 9.203125 71.59375 9.90625 70.78125 
C 18.59375 60.75 23.59375 47.09375 24.296875 30.328125 
C 24.796875 17.875 22.90625 4.921875 17.203125 -6.328125 
C 15.296875 -10.25 12.796875 -13.96875 9.90625 -17.171875 
C 9.203125 -17.984375 8.5 -18.78125 7.703125 -19.484375 
C 6.796875 -20.28125 5.796875 -21.09375 5 -22 
L 8.296875 -22 
C 8.796875 -22 9.5 -22.09375 10 -21.890625 
C 11.203125 -21.296875 14.203125 -18.28125 14.59375 -17.875 
C 24.203125 -8.234375 29.90625 6.328125 30.703125 23.296875 
C 31.203125 35.4375 29.203125 47.796875 23.796875 58.640625 
C 21.40625 63.453125 18.203125 67.875 14.40625 71.6875 
C 13.40625 72.703125 11.203125 74.90625 10 75.515625 
C 9.5 75.703125 8.796875 75.609375 8.296875 75.609375 
z
" id="Computer_Modern_Bright-41"/>
     </defs>
     <g style="fill:#262626;" transform="translate(110.646175 268.79142)scale(0.14 -0.14)">
      <use transform="scale(0.996264)" xlink:href="#Computer_Modern_Bright-103"/>
      <use transform="translate(48.152497 0)scale(0.996264)" xlink:href="#Computer_Modern_Bright-108"/>
      <use transform="translate(67.247456 0)scale(0.996264)" xlink:href="#Computer_Modern_Bright-117"/>
      <use transform="translate(115.399953 0)scale(0.996264)" xlink:href="#Computer_Modern_Bright-99"/>
      <use transform="translate(160.23162 0)scale(0.996264)" xlink:href="#Computer_Modern_Bright-111"/>
      <use transform="translate(210.874838 0)scale(0.996264)" xlink:href="#Computer_Modern_Bright-115"/>
      <use transform="translate(249.313868 0)scale(0.996264)" xlink:href="#Computer_Modern_Bright-101"/>
      <use transform="translate(325.610747 0)scale(0.996264)" xlink:href="#Computer_Modern_Bright-108"/>
      <use transform="translate(344.705706 0)scale(0.996264)" xlink:href="#Computer_Modern_Bright-101"/>
      <use transform="translate(389.537373 0)scale(0.996264)" xlink:href="#Computer_Modern_Bright-118"/>
      <use transform="translate(431.878411 0)scale(0.996264)" xlink:href="#Computer_Modern_Bright-101"/>
      <use transform="translate(476.710079 0)scale(0.996264)" xlink:href="#Computer_Modern_Bright-108"/>
      <use transform="translate(527.270249 0)scale(0.996264)" xlink:href="#Computer_Modern_Bright-40"/>
      <use transform="translate(566.290458 0)scale(0.996264)" xlink:href="#Computer_Modern_Bright-109"/>
      <use transform="translate(643.500584 0)scale(0.996264)" xlink:href="#Computer_Modern_Bright-77"/>
      <use transform="translate(728.597882 0)scale(0.996264)" xlink:href="#Computer_Modern_Bright-41"/>
     </g>
    </g>
   </g>
   <g id="matplotlib.axis_2">
    <g id="ytick_1">
     <g id="line2d_5"/>
     <g id="text_6">
      <!-- $0.0$ -->
      <defs>
       <path d="M 10.703125 7.8125 
L 10.703125 0 
L 18.5 0 
L 18.5 7.8125 
z
" id="Computer_Modern_Bright_Math_Slanted-58"/>
      </defs>
      <g style="fill:#262626;" transform="translate(33.669352 242.587022)scale(0.12 -0.12)">
       <use transform="scale(0.996264)" xlink:href="#Computer_Modern_Bright-48"/>
       <use transform="translate(50.643218 0)scale(0.996264)" xlink:href="#Computer_Modern_Bright_Math_Slanted-58"/>
       <use transform="translate(79.700665 0)scale(0.996264)" xlink:href="#Computer_Modern_Bright-48"/>
      </g>
     </g>
    </g>
    <g id="ytick_2">
     <g id="line2d_6"/>
     <g id="text_7">
      <!-- $0.2$ -->
      <defs>
       <path d="M 7.296875 45.96875 
C 8.703125 51.59375 11.09375 57.984375 16.796875 60.5 
C 19.203125 61.5 21.796875 61.703125 24.40625 61.5 
C 29.296875 61.09375 34.09375 59.09375 37.09375 55.09375 
C 39.296875 52.078125 40.09375 48.375 39.703125 44.78125 
C 38.5 34.34375 28.296875 26.84375 21.703125 21.234375 
C 17.90625 18.03125 7.09375 7.8125 7.09375 7.8125 
L 5.40625 6.203125 
C 4.5 5.3125 4.40625 5.3125 4.40625 3.5 
L 4.40625 0 
L 46.40625 0 
L 46.40625 5.625 
L 10.203125 5.625 
C 13.40625 8.734375 26.703125 20.515625 28.5 21.921875 
C 34.296875 26.65625 40.796875 31.375 44.296875 38.21875 
C 48.203125 46.0625 46.5 55.9375 39.90625 61.765625 
C 35.90625 65.296875 30.40625 67 25.09375 67 
C 20.203125 67 15.203125 66 11.296875 62.90625 
C 8.296875 60.390625 5.796875 56.6875 4.40625 52.875 
C 4.09375 52.28125 3.59375 51.28125 3.703125 50.578125 
C 3.796875 49.984375 4.40625 49.484375 4.703125 49.078125 
C 5.5 48.078125 6.296875 46.875 7.296875 45.96875 
z
" id="Computer_Modern_Bright-50"/>
      </defs>
      <g style="fill:#262626;" transform="translate(33.669352 194.661378)scale(0.12 -0.12)">
       <use transform="scale(0.996264)" xlink:href="#Computer_Modern_Bright-48"/>
       <use transform="translate(50.643218 0)scale(0.996264)" xlink:href="#Computer_Modern_Bright_Math_Slanted-58"/>
       <use transform="translate(79.700665 0)scale(0.996264)" xlink:href="#Computer_Modern_Bright-50"/>
      </g>
     </g>
    </g>
    <g id="ytick_3">
     <g id="line2d_7"/>
     <g id="text_8">
      <!-- $0.4$ -->
      <defs>
       <path d="M 2.09375 18 
L 31 18 
L 31 0 
L 37.296875 0 
L 37.296875 18 
L 48.703125 18 
L 48.703125 23.328125 
L 37.296875 23.328125 
L 37.296875 66.46875 
L 31.90625 66.46875 
C 30.09375 66.46875 29.59375 66.578125 28.796875 65.0625 
C 24.796875 58.515625 3.703125 25.765625 3 24.859375 
C 2.203125 23.4375 2.09375 23.546875 2.09375 21.4375 
z
M 31.296875 60.875 
L 31.296875 23.328125 
L 8.59375 23.328125 
C 9.296875 24.734375 10.296875 26.03125 11.203125 27.4375 
C 16.203125 35.171875 28.09375 53.546875 30.59375 59.28125 
C 30.90625 59.78125 31 60.375 31.296875 60.875 
z
" id="Computer_Modern_Bright-52"/>
      </defs>
      <g style="fill:#262626;" transform="translate(33.669352 146.735733)scale(0.12 -0.12)">
       <use transform="scale(0.996264)" xlink:href="#Computer_Modern_Bright-48"/>
       <use transform="translate(50.643218 0)scale(0.996264)" xlink:href="#Computer_Modern_Bright_Math_Slanted-58"/>
       <use transform="translate(79.700665 0)scale(0.996264)" xlink:href="#Computer_Modern_Bright-52"/>
      </g>
     </g>
    </g>
    <g id="ytick_4">
     <g id="line2d_8"/>
     <g id="text_9">
      <!-- $0.6$ -->
      <defs>
       <path d="M 11.296875 32.625 
L 11.203125 32.625 
C 11.203125 41.765625 12.796875 52.421875 20.59375 58.25 
C 24.90625 61.375 30.703125 62.96875 38.203125 61.171875 
C 39.796875 60.765625 41.296875 60.15625 42.796875 59.765625 
L 42.796875 63.28125 
C 42.796875 63.671875 42.90625 64.375 42.59375 64.78125 
C 41.90625 65.6875 36.296875 66.59375 36.09375 66.59375 
C 27.40625 67.59375 21.703125 65.6875 16.40625 61.171875 
C 10 55.640625 6.296875 47.515625 5.09375 39.28125 
C 4 32.65625 4.90625 22 6.203125 16.78125 
C 8.296875 9.046875 12.296875 2.21875 19.703125 -0.390625 
C 24.09375 -2 29.5 -2 33.703125 0.015625 
C 37.09375 1.640625 39.90625 4.46875 42.09375 7.5 
C 45.59375 12.34375 46.5 18.21875 46.09375 24.171875 
C 45.90625 27.109375 45.5 30.046875 44.296875 32.765625 
C 42.40625 37.125 39.203125 41.671875 35.09375 43.6875 
C 33.203125 44.5 31.203125 44.5 29.203125 44.5 
C 23.90625 44.5 18.90625 42.1875 15.203125 38.359375 
C 13.59375 36.75 12 34.71875 11.296875 32.625 
z
M 24.40625 39.515625 
C 28.203125 39.8125 32.203125 39.21875 35.09375 36.5 
C 38.90625 32.890625 39.59375 27.765625 39.59375 22.8125 
C 39.59375 19.46875 39.703125 16.015625 38.703125 12.859375 
C 38.09375 11.234375 37.296875 9.828125 36.40625 8.5 
C 34.203125 5.5625 31.40625 4.125 26.796875 3.515625 
C 22.296875 3.515625 17.796875 5.3125 15.203125 9.125 
C 13.59375 11.328125 12.796875 14.046875 12.296875 16.640625 
C 11.703125 19.34375 11.296875 22.140625 11.5 24.859375 
C 12 31.984375 17 38.515625 24.40625 39.515625 
z
" id="Computer_Modern_Bright-54"/>
      </defs>
      <g style="fill:#262626;" transform="translate(33.669352 98.810088)scale(0.12 -0.12)">
       <use transform="scale(0.996264)" xlink:href="#Computer_Modern_Bright-48"/>
       <use transform="translate(50.643218 0)scale(0.996264)" xlink:href="#Computer_Modern_Bright_Math_Slanted-58"/>
       <use transform="translate(79.700665 0)scale(0.996264)" xlink:href="#Computer_Modern_Bright-54"/>
      </g>
     </g>
    </g>
    <g id="ytick_5">
     <g id="line2d_9"/>
     <g id="text_10">
      <!-- $0.8$ -->
      <defs>
       <path d="M 18.703125 36 
L 18.703125 35.90625 
C 12.5 34.09375 7.296875 30.6875 4.796875 24.84375 
C 2.203125 18.71875 4 11.28125 8.40625 6.453125 
C 13.09375 1.421875 19.5 -1 26.296875 -1 
C 36.296875 -1 45.90625 6.40625 47.09375 16.734375 
C 47.296875 18.265625 47.203125 19.890625 47 21.40625 
C 45.203125 29.21875 39.5 33.875 32.09375 35.90625 
C 32.90625 36.203125 33.796875 36.40625 34.59375 36.703125 
C 38.796875 38.421875 42.296875 40.921875 44.5 44.9375 
C 47.796875 51.375 44.59375 58.90625 39.203125 63.015625 
C 33.796875 67.140625 26.5 68.234375 19.90625 66.828125 
C 12 65.125 4.5 58.40625 5 49.765625 
C 5.203125 46.75 6.5 44.234375 8 42.4375 
C 10.296875 39.625 14.796875 36.609375 18.703125 36 
z
M 23.796875 62.5 
C 28.203125 62.5 33.703125 62 36.90625 58.578125 
C 40.703125 54.46875 40.90625 47.03125 37.09375 42.8125 
C 34.703125 40.203125 31.203125 38.890625 27.703125 38.59375 
C 22.796875 38.1875 17.203125 39 13.703125 42.8125 
C 9.796875 47.125 10.09375 54.96875 14.296875 58.984375 
C 16.90625 61.390625 20.40625 62.1875 23.796875 62.5 
z
M 23.703125 33.5 
C 28.40625 33.5 33.5 32.390625 36.90625 28.9375 
C 38.203125 27.53125 39.203125 25.8125 39.796875 24.015625 
C 41.5 18.75 40.703125 12.09375 36.796875 8.046875 
C 34.09375 5.328125 30.40625 4.3125 26.703125 4.015625 
C 22.203125 4.015625 17 5.109375 13.796875 8.5625 
C 9.40625 13.390625 8.5 23.40625 13.703125 29.0625 
C 16.296875 31.78125 20 33.203125 23.703125 33.5 
z
" id="Computer_Modern_Bright-56"/>
      </defs>
      <g style="fill:#262626;" transform="translate(33.669352 50.884443)scale(0.12 -0.12)">
       <use transform="scale(0.996264)" xlink:href="#Computer_Modern_Bright-48"/>
       <use transform="translate(50.643218 0)scale(0.996264)" xlink:href="#Computer_Modern_Bright_Math_Slanted-58"/>
       <use transform="translate(79.700665 0)scale(0.996264)" xlink:href="#Computer_Modern_Bright-56"/>
      </g>
     </g>
    </g>
    <g id="text_11">
     <!-- growth rate [h$^{-1}$] -->
     <defs>
      <path d="M 12.5 34.75 
L 12.40625 34.75 
L 12.40625 47.390625 
L 6.40625 47.390625 
L 6.40625 0 
L 12.703125 0 
L 12.703125 22.890625 
C 12.703125 24.40625 12.703125 25.90625 12.90625 27.40625 
C 14.296875 35.953125 21.703125 42.28125 31.40625 42.28125 
L 31.40625 48 
C 25 48 19.09375 44.890625 15.296875 39.765625 
C 14.203125 38.265625 13 36.546875 12.5 34.75 
z
" id="Computer_Modern_Bright-114"/>
      <path d="M 0.703125 47.5 
C 0.90625 46.203125 14.40625 0.90625 14.40625 0.90625 
C 14.703125 0 15.203125 0 16.5 0 
L 19.59375 0 
C 20.09375 0 20.796875 -0.09375 21.09375 0.296875 
C 21.40625 0.609375 22.296875 3.8125 22.296875 3.8125 
C 25.296875 14.625 30.5 30.96875 32.5 41.09375 
L 32.59375 41.09375 
C 32.59375 39.6875 33.09375 38.28125 33.40625 36.890625 
C 35 29.765625 43.5 1 43.90625 0.296875 
C 44.203125 -0.203125 45 0 45.5 0 
L 49.296875 0 
C 49.796875 0 50.5 -0.09375 50.90625 0.109375 
C 51.203125 0.296875 51.296875 0.703125 51.40625 1 
C 54.40625 11.640625 64.703125 45.203125 65.09375 47.5 
C 63 47.5 60.90625 47.5 59.09375 47.203125 
L 58.703125 46.1875 
C 54.90625 33 50.796875 20.203125 47.40625 6.609375 
L 47.296875 6.609375 
L 46.203125 11.21875 
L 35.703125 47.5 
L 29.796875 47.5 
C 26 33.875 21.59375 20.84375 18.40625 6.609375 
L 16.703125 13.609375 
C 13.40625 24.8125 10.296875 36.203125 6.90625 47.203125 
C 5.09375 47.5 2.796875 47.5 0.703125 47.5 
z
" id="Computer_Modern_Bright-119"/>
      <path d="M 10.796875 60.5 
L 10.796875 47.015625 
L 1.09375 47.015625 
L 1.09375 42 
L 10.703125 42 
L 10.703125 15.015625 
C 10.703125 10.578125 10.40625 5.234375 13.296875 1.515625 
C 15 -0.703125 17.296875 -1.296875 20.796875 -1 
C 23.703125 -1 26.59375 -0.390625 29.296875 0.65625 
C 30.203125 1.0625 33.5 2.515625 33.90625 3.234375 
C 34.09375 3.640625 32.796875 8.09375 32.796875 8.09375 
L 30.40625 6.265625 
C 27.296875 4.34375 21.09375 2.328125 18.5 5.96875 
C 16.203125 9.09375 16.796875 13.75 16.796875 17.375 
L 16.796875 42 
L 32.296875 42 
L 32.296875 47.015625 
L 16.796875 47.015625 
L 16.796875 60.5 
z
" id="Computer_Modern_Bright-116"/>
      <path d="M 6.40625 69.6875 
L 6.40625 0 
L 12.796875 0 
L 12.796875 21.984375 
C 12.796875 26.90625 12.5 31.9375 14.703125 36.546875 
C 15.796875 38.859375 17.5 40.875 19.796875 42.078125 
C 21.703125 42.984375 23.703125 42.984375 25.796875 42.78125 
C 28.796875 42.78125 31.703125 41.984375 33.59375 39.453125 
C 35.40625 37.140625 35.5 34.140625 35.5 31.3125 
L 35.5 0 
L 41.90625 0 
L 41.90625 27.21875 
C 41.90625 32.234375 42.40625 37.75 39.90625 42.28125 
C 37.90625 45.6875 34.40625 47.296875 30.703125 47.796875 
C 28.703125 48 26.703125 48 24.703125 47.703125 
C 21.09375 47.015625 18 45.03125 15.59375 42.34375 
C 14.5 41.046875 13.203125 39.46875 12.796875 37.765625 
L 12.703125 37.765625 
L 12.703125 69.6875 
z
" id="Computer_Modern_Bright-104"/>
      <path d="M 7.90625 39.015625 
C 9.59375 39.859375 11 41.09375 12.703125 41.921875 
C 15.40625 43.15625 18.203125 44 21.203125 44 
C 22.59375 44.09375 24.203125 44.296875 25.59375 44 
C 28.09375 43.59375 30.296875 42.078125 31.796875 39.953125 
C 33.296875 37.515625 33.90625 35.390625 33.90625 31.46875 
L 33.90625 27.015625 
C 29.09375 27.015625 24.296875 26.609375 19.703125 25.390625 
C 13.90625 24.078125 7.59375 21.125 5.5 15.84375 
C 3.40625 10.78125 5.59375 4.078125 10.09375 1.03125 
C 12.296875 -0.5 14.90625 -0.5 17.5 -0.296875 
C 21.703125 0 25.90625 1.015625 29.5 3.25 
C 31.203125 4.25 32.90625 5.578125 33.90625 7.296875 
L 34 7.296875 
L 34 0.203125 
L 40.296875 0.203125 
L 40.296875 26.890625 
C 40.296875 29.8125 40.59375 32.953125 40 35.890625 
C 39.40625 39.921875 36.90625 43.265625 34 45.59375 
C 30.59375 48.21875 26.703125 49.109375 21.5 48.71875 
C 16.703125 48.71875 13 47.5 9.40625 45.765625 
C 8.90625 45.5625 7.90625 45.234375 7.59375 44.640625 
C 7.296875 44.21875 7.5 43.515625 7.5 43 
C 7.703125 41.671875 7.796875 40.34375 7.90625 39.015625 
z
M 33.90625 24 
L 33.90625 16.375 
C 33.90625 14.0625 34 11.953125 32.703125 9.953125 
C 31.59375 8.34375 30.09375 7.234375 28.5 6.4375 
C 22.796875 3.515625 14.09375 4.421875 11.59375 9.25 
C 9.59375 12.75 11.703125 16.875 14.59375 19.1875 
C 18.90625 22.5 27.296875 24 33.90625 24 
z
" id="Computer_Modern_Bright-97"/>
      <path d="M 10.59375 76 
L 10.59375 -22 
L 26.296875 -22 
L 26.296875 -16.96875 
L 16.703125 -16.96875 
L 16.703125 70.984375 
L 26.296875 70.984375 
L 26.296875 76 
z
" id="Computer_Modern_Bright-91"/>
      <path d="M 1.5 76 
L 1.5 70.984375 
L 11.09375 70.984375 
L 11.09375 -16.96875 
L 1.5 -16.96875 
L 1.5 -22 
L 17.203125 -22 
L 17.203125 76 
z
" id="Computer_Modern_Bright-93"/>
     </defs>
     <g style="fill:#262626;" transform="translate(26.569861 186.808141)rotate(-90)scale(0.14 -0.14)">
      <use transform="scale(0.996264)" xlink:href="#Computer_Modern_Bright-103"/>
      <use transform="translate(48.152497 0)scale(0.996264)" xlink:href="#Computer_Modern_Bright-114"/>
      <use transform="translate(80.115856 0)scale(0.996264)" xlink:href="#Computer_Modern_Bright-111"/>
      <use transform="translate(127.853344 0)scale(0.996264)" xlink:href="#Computer_Modern_Bright-119"/>
      <use transform="translate(193.440385 0)scale(0.996264)" xlink:href="#Computer_Modern_Bright-116"/>
      <use transform="translate(229.554773 0)scale(0.996264)" xlink:href="#Computer_Modern_Bright-104"/>
      <use transform="translate(309.172482 0)scale(0.996264)" xlink:href="#Computer_Modern_Bright-114"/>
      <use transform="translate(341.135841 0)scale(0.996264)" xlink:href="#Computer_Modern_Bright-97"/>
      <use transform="translate(387.627923 0)scale(0.996264)" xlink:href="#Computer_Modern_Bright-116"/>
      <use transform="translate(423.742311 0)scale(0.996264)" xlink:href="#Computer_Modern_Bright-101"/>
      <use transform="translate(500.03919 0)scale(0.996264)" xlink:href="#Computer_Modern_Bright-91"/>
      <use transform="translate(527.713077 0)scale(0.996264)" xlink:href="#Computer_Modern_Bright-104"/>
      <use transform="translate(575.865574 36.153639)scale(0.697382)" xlink:href="#Computer_Modern_Bright_Math_Symbols-0"/>
      <use transform="translate(630.106568 36.153639)scale(0.697382)" xlink:href="#Computer_Modern_Bright-49"/>
      <use transform="translate(666.054785 0)scale(0.996264)" xlink:href="#Computer_Modern_Bright-93"/>
     </g>
    </g>
   </g>
   <g id="line2d_10">
    <path clip-path="url(#pe2be0d0a36)" d="M 65.496605 234.265012 
L 67.544354 233.685404 
L 69.592102 232.868329 
L 71.639851 231.827532 
L 73.687599 230.576759 
L 75.735347 229.129753 
L 78.80697 226.621376 
L 81.878593 223.74879 
L 84.950215 220.558383 
L 89.045712 215.890298 
L 93.141209 210.855361 
L 100.308329 201.916834 
L 103.379951 198.405056 
L 106.451574 195.272307 
L 109.523196 192.53699 
L 112.594819 190.181548 
L 115.666442 188.188391 
L 118.738064 186.537861 
L 121.809687 185.192273 
L 124.88131 184.104663 
L 127.952932 183.22799 
L 132.048429 182.309384 
L 136.143926 181.613079 
L 141.263297 180.976452 
L 147.406542 180.435406 
L 155.597536 179.953545 
L 166.860152 179.52738 
L 184.266014 179.115019 
L 212.934492 178.682109 
L 245.698467 178.38649 
L 269.247574 178.299931 
L 269.247574 178.299931 
" style="fill:none;stroke:#56b4e9;stroke-linecap:round;stroke-width:2;"/>
   </g>
   <g id="line2d_11">
    <path clip-path="url(#pe2be0d0a36)" d="M 65.496605 233.760347 
L 67.544354 233.107116 
L 69.592102 232.188865 
L 71.639851 231.020407 
L 73.687599 229.616552 
L 75.735347 227.992115 
L 78.80697 225.174264 
L 81.878593 221.943417 
L 84.950215 218.349563 
L 88.021838 214.442692 
L 92.117335 208.834006 
L 101.332203 195.835442 
L 104.403825 191.951538 
L 107.475448 188.508161 
L 110.547071 185.502128 
L 113.618693 182.916574 
L 116.690316 180.734629 
L 119.761939 178.931784 
L 122.833561 177.459691 
L 125.905184 176.265362 
L 128.976807 175.295811 
L 133.072303 174.270753 
L 137.1678 173.488933 
L 142.287171 172.763753 
L 148.430417 172.135494 
L 156.62141 171.563474 
L 166.860152 171.083827 
L 182.218266 170.612646 
L 201.671876 170.234527 
L 223.173234 170.047678 
L 261.05658 169.992177 
L 269.247574 169.990901 
L 269.247574 169.990901 
" style="fill:none;stroke:#0072b2;stroke-linecap:round;stroke-width:2;"/>
   </g>
   <g id="line2d_12">
    <path clip-path="url(#pe2be0d0a36)" d="M 65.496605 234.26756 
L 68.568228 233.313653 
L 72.663725 231.743142 
L 76.759222 229.924359 
L 83.926341 226.449325 
L 90.069586 223.5252 
L 94.165083 221.775904 
L 98.26058 220.237002 
L 102.356077 218.915478 
L 106.451574 217.815903 
L 111.570945 216.719509 
L 116.690316 215.863745 
L 122.833561 215.062485 
L 130.000681 214.347919 
L 140.239423 213.576601 
L 153.549788 212.818424 
L 167.884027 212.22232 
L 182.218266 211.87892 
L 205.767373 211.572933 
L 243.650718 211.318364 
L 269.247574 211.240707 
L 269.247574 211.240707 
" style="fill:none;stroke:#6e70e5;stroke-linecap:round;stroke-width:2;"/>
   </g>
   <g id="line2d_13">
    <path clip-path="url(#pe2be0d0a36)" d="M 65.496605 237.947185 
L 74.711473 237.330713 
L 79.830844 236.75772 
L 83.926341 236.084767 
L 88.021838 235.159457 
L 91.093461 234.265639 
L 94.165083 233.176383 
L 97.236706 231.879097 
L 100.308329 230.363152 
L 103.379951 228.617919 
L 106.451574 226.640157 
L 110.547071 223.708175 
L 115.666442 219.73925 
L 127.952932 210.088296 
L 132.048429 207.167006 
L 136.143926 204.478719 
L 140.239423 202.011444 
L 145.358794 199.217508 
L 150.478165 196.703031 
L 156.62141 193.97522 
L 162.764656 191.49368 
L 169.931775 188.858431 
L 177.098895 186.461122 
L 185.289888 183.978395 
L 193.480882 181.745777 
L 201.671876 179.75431 
L 208.838995 178.222202 
L 216.006115 176.90357 
L 223.173234 175.816536 
L 230.340354 174.970975 
L 237.507473 174.365101 
L 245.698467 173.91876 
L 254.913335 173.645559 
L 269.247574 173.475675 
L 269.247574 173.475675 
" style="fill:none;stroke:#cc79a7;stroke-linecap:round;stroke-width:2;"/>
   </g>
   <g id="line2d_14">
    <path clip-path="url(#pe2be0d0a36)" d="M 65.496605 234.995917 
L 67.544354 234.492959 
L 69.592102 233.822068 
L 72.663725 232.517858 
L 75.735347 230.879513 
L 78.80697 228.933265 
L 81.878593 226.705343 
L 84.950215 224.221977 
L 89.045712 220.558799 
L 93.141209 216.554136 
L 105.4277 204.197579 
L 109.523196 200.586456 
L 113.618693 197.344454 
L 116.690316 195.161584 
L 119.761939 193.190777 
L 123.857435 190.857071 
L 127.952932 188.807197 
L 132.048429 186.985544 
L 137.1678 184.966639 
L 143.311046 182.835737 
L 150.478165 180.632897 
L 158.669159 178.371574 
L 166.860152 176.334233 
L 175.051146 174.536827 
L 184.266014 172.75529 
L 194.504756 171.017187 
L 204.743498 169.506646 
L 216.006115 168.085258 
L 227.268731 166.899646 
L 238.531347 165.940895 
L 249.793964 165.204477 
L 261.05658 164.679441 
L 269.247574 164.419968 
L 269.247574 164.419968 
" style="fill:none;stroke:#e69f00;stroke-linecap:round;stroke-width:2;"/>
   </g>
   <g id="line2d_15">
    <path clip-path="url(#pe2be0d0a36)" d="M 65.496605 234.914924 
L 68.568228 234.099392 
L 71.639851 233.047132 
L 75.735347 231.34684 
L 79.830844 229.396007 
L 86.997964 225.671907 
L 94.165083 221.995706 
L 99.284454 219.620466 
L 103.379951 217.936549 
L 107.475448 216.479831 
L 111.570945 215.231066 
L 116.690316 213.90883 
L 122.833561 212.589278 
L 130.000681 211.315132 
L 139.215549 209.939007 
L 151.502039 208.367892 
L 166.860152 206.640001 
L 185.289888 204.800649 
L 203.719624 203.192544 
L 221.125486 201.896779 
L 234.435851 201.091217 
L 246.722341 200.565938 
L 260.032706 200.218272 
L 269.247574 200.084324 
L 269.247574 200.084324 
" style="fill:none;stroke:#d55e00;stroke-linecap:round;stroke-width:2;"/>
   </g>
   <g id="patch_3">
    <path d="M 55.309057 238.435925 
L 55.309057 32.355653 
" style="fill:none;stroke:#262626;stroke-linecap:square;stroke-linejoin:miter;stroke-width:1.25;"/>
   </g>
   <g id="patch_4">
    <path d="M 279.435122 238.435925 
L 279.435122 32.355653 
" style="fill:none;stroke:#262626;stroke-linecap:square;stroke-linejoin:miter;stroke-width:1.25;"/>
   </g>
   <g id="patch_5">
    <path d="M 55.309057 238.435925 
L 279.435122 238.435925 
" style="fill:none;stroke:#262626;stroke-linecap:square;stroke-linejoin:miter;stroke-width:1.25;"/>
   </g>
   <g id="patch_6">
    <path d="M 55.309057 32.355653 
L 279.435122 32.355653 
" style="fill:none;stroke:#262626;stroke-linecap:square;stroke-linejoin:miter;stroke-width:1.25;"/>
   </g>
   <g id="text_12">
    <!-- a -->
    <g style="fill:#262626;" transform="translate(59.791578 50.314224)scale(0.2 -0.2)">
     <use transform="scale(0.996264)" xlink:href="#Computer_Modern_Bright-97"/>
    </g>
   </g>
   <g id="text_13">
    <!-- low $O_2$ (0.009 mM) -->
    <defs>
     <path d="M 37.09375 69.734375 
C 21.40625 64.828125 9.203125 50.5 5.796875 34.46875 
C 3.703125 24.453125 5.40625 12.828125 13.09375 5.40625 
C 16.40625 2.40625 19.90625 0.296875 24.796875 -0.90625 
C 34.796875 -3.5 44.703125 0.296875 51.203125 4.40625 
C 62.90625 11.625 71.296875 24.453125 73.09375 38.171875 
C 74.203125 47.296875 72.09375 57.40625 65.296875 64.015625 
C 59 70.03125 49.203125 73.34375 37.09375 69.734375 
z
M 56.09375 63.125 
C 57.5 62.3125 58.90625 61.421875 60.09375 60.3125 
C 65.796875 54.90625 67.203125 46.796875 66.40625 39.28125 
C 66.09375 36.578125 65.40625 33.96875 64.703125 31.359375 
C 60.5 17.4375 49.09375 4.109375 33.796875 3 
C 27.296875 3 21.90625 5.203125 18.59375 8.515625 
C 13 14.125 11.703125 22.640625 12.296875 30.15625 
C 13.40625 42.6875 20 55 31.09375 61.421875 
C 37.5 65.328125 47.90625 67.734375 56.09375 63.125 
z
" id="Computer_Modern_Bright_Math_Slanted-79"/>
     <path d="M 9.90625 7.828125 
L 9.90625 0 
L 17.703125 0 
L 17.703125 7.828125 
z
" id="Computer_Modern_Bright-46"/>
     <path d="M 39.5 32.953125 
C 39.5 32.953125 39.59375 32.953125 39.59375 32.953125 
C 39.59375 31.75 39.5 30.4375 39.5 29.234375 
C 39.296875 21.296875 37.203125 11.90625 30.40625 6.9375 
C 28.40625 5.328125 25.296875 4 22.296875 4 
C 16.90625 3.203125 12.5 5.78125 9.40625 7.84375 
L 6.796875 3.203125 
C 11.09375 -0.125 17.59375 -2.625 25.203125 -0.921875 
C 32 0.578125 37.5 5.8125 40.90625 11.734375 
C 46.09375 20.859375 47.40625 31.796875 45.40625 44.53125 
C 44.09375 53.578125 40.203125 62.296875 32.09375 65.609375 
C 27.703125 67.421875 22.09375 67.421875 17.796875 65.515625 
C 13.59375 63.484375 10 59.96875 7.59375 56.03125 
C 5.40625 52.3125 4.59375 48.09375 4.59375 43.859375 
C 4.59375 40.234375 5 36.71875 6.203125 33.28125 
C 8.09375 28.546875 11.90625 23.109375 16.40625 21.609375 
C 18.09375 21 19.796875 21 21.59375 21 
C 26.90625 21 32 23.40625 35.703125 27.21875 
C 36.90625 28.4375 39 31.25 39.5 32.953125 
z
M 24.40625 62 
C 28.90625 62 33.296875 60.1875 35.90625 56.28125 
C 37.09375 54.375 37.796875 52.140625 38.296875 49.9375 
C 39.796875 44.109375 40 37.6875 36.703125 32.453125 
C 34.59375 29.125 30.796875 26.015625 26.203125 26.015625 
C 22.90625 26.015625 19.296875 26.421875 16.59375 28.515625 
C 12.59375 31.609375 11.203125 36.109375 11.203125 42.703125 
C 11.203125 48.59375 11.40625 53.203125 14.59375 57 
C 16.796875 60 19.59375 61.390625 24.40625 62 
z
" id="Computer_Modern_Bright-57"/>
    </defs>
    <g style="fill:#262626;" transform="translate(108.249644 26.355653)scale(0.14 -0.14)">
     <use transform="translate(0 14.943915)scale(0.996264)" xlink:href="#Computer_Modern_Bright-108"/>
     <use transform="translate(19.094959 14.943915)scale(0.996264)" xlink:href="#Computer_Modern_Bright-111"/>
     <use transform="translate(66.832447 14.943915)scale(0.996264)" xlink:href="#Computer_Modern_Bright-119"/>
     <use transform="translate(163.8847 14.943915)scale(0.996264)" xlink:href="#Computer_Modern_Bright_Math_Slanted-79"/>
     <use transform="translate(239.089438 0)scale(0.697382)" xlink:href="#Computer_Modern_Bright-50"/>
     <use transform="translate(306.502866 14.943915)scale(0.996264)" xlink:href="#Computer_Modern_Bright-40"/>
     <use transform="translate(345.523075 14.943915)scale(0.996264)" xlink:href="#Computer_Modern_Bright-48"/>
     <use transform="translate(396.166293 14.943915)scale(0.996264)" xlink:href="#Computer_Modern_Bright-46"/>
     <use transform="translate(423.563416 14.943915)scale(0.996264)" xlink:href="#Computer_Modern_Bright-48"/>
     <use transform="translate(474.206634 14.943915)scale(0.996264)" xlink:href="#Computer_Modern_Bright-48"/>
     <use transform="translate(524.849852 14.943915)scale(0.996264)" xlink:href="#Computer_Modern_Bright-57"/>
     <use transform="translate(606.958281 14.943915)scale(0.996264)" xlink:href="#Computer_Modern_Bright-109"/>
     <use transform="translate(684.168408 14.943915)scale(0.996264)" xlink:href="#Computer_Modern_Bright-77"/>
     <use transform="translate(769.265705 14.943915)scale(0.996264)" xlink:href="#Computer_Modern_Bright-41"/>
    </g>
   </g>
   <g id="legend_1">
    <g id="line2d_16">
     <path d="M 133.446984 44.855653 
L 153.446984 44.855653 
" style="fill:none;stroke:#56b4e9;stroke-linecap:round;stroke-width:2;"/>
    </g>
    <g id="line2d_17"/>
    <g id="text_14">
     <!-- max-gr -->
     <defs>
      <path d="M -0.203125 47.390625 
L 10.09375 34.46875 
L 18.203125 24.546875 
L 18.203125 24.453125 
L 15.703125 21.328125 
L -0.796875 0 
C 1.5 0 3.90625 0 6.09375 0 
L 7.40625 1.625 
L 20.90625 20.828125 
L 21 20.828125 
C 26 13.921875 31 6.90625 36.296875 0.296875 
C 38.40625 0 40.90625 0 43.296875 0 
L 31.09375 15.296875 
C 28.703125 18.40625 26.203125 21.4375 23.703125 24.453125 
L 23.703125 24.546875 
L 27.09375 28.75 
L 41.5 47.390625 
C 39.203125 47.390625 36.90625 47.390625 34.703125 47.390625 
L 33.40625 45.890625 
L 21 29.171875 
C 16.203125 35.046875 11.703125 41.3125 6.796875 47.09375 
C 4.703125 47.390625 2.203125 47.390625 -0.203125 47.390625 
z
" id="Computer_Modern_Bright-120"/>
      <path d="M 0.40625 26.015625 
L 0.40625 21 
L 28.296875 21 
L 28.296875 26.015625 
z
" id="Computer_Modern_Bright-45"/>
     </defs>
     <g style="fill:#262626;" transform="translate(161.446984 48.355653)scale(0.1 -0.1)">
      <use transform="scale(0.996264)" xlink:href="#Computer_Modern_Bright-109"/>
      <use transform="translate(77.210126 0)scale(0.996264)" xlink:href="#Computer_Modern_Bright-97"/>
      <use transform="translate(123.702209 0)scale(0.996264)" xlink:href="#Computer_Modern_Bright-120"/>
      <use transform="translate(166.043247 0)scale(0.996264)" xlink:href="#Computer_Modern_Bright-45"/>
      <use transform="translate(199.25192 0)scale(0.996264)" xlink:href="#Computer_Modern_Bright-103"/>
      <use transform="translate(247.404417 0)scale(0.996264)" xlink:href="#Computer_Modern_Bright-114"/>
     </g>
    </g>
    <g id="line2d_18">
     <path d="M 133.446984 55.516082 
L 153.446984 55.516082 
" style="fill:none;stroke:#0072b2;stroke-linecap:round;stroke-width:2;"/>
    </g>
    <g id="line2d_19"/>
    <g id="text_15">
     <!-- pareto -->
     <defs>
      <path d="M 12.703125 40.53125 
L 12.703125 47.15625 
L 6.40625 47.15625 
L 6.40625 -17 
L 12.796875 -17 
L 12.796875 6.09375 
C 14.203125 4.078125 15.796875 2.28125 17.90625 1.078125 
C 25 -3.25 34 0.171875 38.90625 6.59375 
C 45.40625 14.96875 46.09375 27.5 41.59375 36.984375 
C 39 42.4375 34.09375 47.5 27.796875 48 
C 22.296875 48 18.09375 45.8125 15.09375 43.125 
C 14.203125 42.328125 13.5 41.4375 12.703125 40.53125 
z
M 21.90625 42.875 
C 26 43.171875 30 41.265625 32.796875 38.265625 
C 34.5 36.34375 35.796875 34.140625 36.59375 31.734375 
C 40.09375 22.296875 36.90625 9.234375 26.796875 5.328125 
C 21 3.109375 15.296875 5.125 13.09375 10.546875 
C 12.59375 11.546875 12.796875 12.859375 12.796875 13.953125 
L 12.796875 34.640625 
C 12.796875 36.953125 13 37.15625 14.5 38.859375 
C 16.296875 41.0625 19 42.578125 21.90625 42.875 
z
" id="Computer_Modern_Bright-112"/>
     </defs>
     <g style="fill:#262626;" transform="translate(161.446984 59.016082)scale(0.1 -0.1)">
      <use transform="scale(0.996264)" xlink:href="#Computer_Modern_Bright-112"/>
      <use transform="translate(48.152497 0)scale(0.996264)" xlink:href="#Computer_Modern_Bright-97"/>
      <use transform="translate(91.73885 0)scale(0.996264)" xlink:href="#Computer_Modern_Bright-114"/>
      <use transform="translate(123.702209 0)scale(0.996264)" xlink:href="#Computer_Modern_Bright-101"/>
      <use transform="translate(168.533876 0)scale(0.996264)" xlink:href="#Computer_Modern_Bright-116"/>
      <use transform="translate(204.648264 0)scale(0.996264)" xlink:href="#Computer_Modern_Bright-111"/>
     </g>
    </g>
    <g id="line2d_20">
     <path d="M 133.446984 66.176512 
L 153.446984 66.176512 
" style="fill:none;stroke:#6e70e5;stroke-linecap:round;stroke-width:2;"/>
    </g>
    <g id="line2d_21"/>
    <g id="text_16">
     <!-- max-yield -->
     <defs>
      <path d="M 0.703125 47.65625 
C 1.296875 45.75 5.40625 35.609375 5.5 35.3125 
L 17.40625 4.578125 
L 18.40625 2.078125 
C 19 0.671875 19.203125 0.46875 18.59375 -1.140625 
L 17.5 -4.046875 
C 16.59375 -6.46875 15.59375 -8.96875 13.703125 -10.484375 
C 10.296875 -13.296875 4.90625 -11.6875 0.796875 -10.78125 
L 1.296875 -16.5 
C 3.203125 -16.796875 5.09375 -17 7 -17 
C 11.296875 -17.515625 14.09375 -16.5 16.703125 -14.296875 
C 20 -11.484375 21.59375 -7.5625 23.09375 -3.546875 
L 26.203125 5.078125 
L 36.40625 32.90625 
C 38.09375 37.921875 40.203125 42.640625 41.796875 47.65625 
L 37.296875 47.65625 
C 36.796875 47.65625 36 47.859375 35.59375 47.46875 
C 35.40625 47.15625 35.296875 46.765625 35.203125 46.453125 
L 34.40625 44.34375 
C 33.40625 41.734375 32.5 39.234375 31.59375 36.609375 
L 25.796875 20.25 
C 24.296875 15.828125 22.59375 11.3125 21.796875 6.6875 
C 20.703125 11.3125 19.203125 15.734375 17.59375 20.140625 
C 16.296875 23.5625 8.5 44.546875 7.5 46.5625 
C 7.09375 47.65625 6.703125 47.65625 5.203125 47.65625 
z
" id="Computer_Modern_Bright-121"/>
      <path d="M 6.40625 70 
L 6.40625 63.671875 
L 12.703125 63.671875 
L 12.703125 70 
z
M 6.40625 47.390625 
L 6.40625 0 
L 12.703125 0 
L 12.703125 47.390625 
z
" id="Computer_Modern_Bright-105"/>
      <path d="M 35.59375 69.6875 
L 35.59375 41.375 
C 33.703125 43.484375 31.796875 45.484375 29.203125 46.6875 
C 20.296875 50.40625 11.703125 45.59375 7.296875 37.65625 
C 2.203125 28.21875 2.796875 15.765625 8.90625 6.921875 
C 13.203125 0.796875 20.296875 -2.203125 27.796875 0.5 
C 30.703125 1.609375 34.203125 4.515625 35.40625 7.125 
L 35.5 7.125 
L 35.5 0 
L 41.90625 0 
L 41.90625 69.6875 
z
M 35.203125 37.453125 
C 35.703125 36.546875 35.5 35.34375 35.5 34.34375 
L 35.5 13.65625 
C 35.5 11.34375 35.40625 11.140625 34.09375 9.34375 
C 32.296875 6.625 29.5 4.71875 26.203125 4.421875 
C 21.40625 4.015625 16.5 6.328125 13.703125 10.25 
C 12.09375 12.546875 11.203125 15.359375 10.703125 18.171875 
C 10.5 19.28125 10.5 20.28125 10.40625 21.390625 
C 9.796875 28.015625 11.203125 35.84375 17 40.0625 
C 18 40.765625 19.09375 41.265625 20.203125 41.765625 
C 26 43.984375 32.40625 43.375 35.203125 37.453125 
z
" id="Computer_Modern_Bright-100"/>
     </defs>
     <g style="fill:#262626;" transform="translate(161.446984 69.676512)scale(0.1 -0.1)">
      <use transform="scale(0.996264)" xlink:href="#Computer_Modern_Bright-109"/>
      <use transform="translate(77.210126 0)scale(0.996264)" xlink:href="#Computer_Modern_Bright-97"/>
      <use transform="translate(123.702209 0)scale(0.996264)" xlink:href="#Computer_Modern_Bright-120"/>
      <use transform="translate(166.043247 0)scale(0.996264)" xlink:href="#Computer_Modern_Bright-45"/>
      <use transform="translate(199.25192 0)scale(0.996264)" xlink:href="#Computer_Modern_Bright-121"/>
      <use transform="translate(241.592958 0)scale(0.996264)" xlink:href="#Computer_Modern_Bright-105"/>
      <use transform="translate(260.687917 0)scale(0.996264)" xlink:href="#Computer_Modern_Bright-101"/>
      <use transform="translate(305.519585 0)scale(0.996264)" xlink:href="#Computer_Modern_Bright-108"/>
      <use transform="translate(324.614544 0)scale(0.996264)" xlink:href="#Computer_Modern_Bright-100"/>
     </g>
    </g>
    <g id="line2d_22">
     <path d="M 133.446984 76.836942 
L 153.446984 76.836942 
" style="fill:none;stroke:#cc79a7;stroke-linecap:round;stroke-width:2;"/>
    </g>
    <g id="line2d_23"/>
    <g id="text_17">
     <!-- ana-lac -->
     <defs>
      <path d="M 12.59375 37.28125 
L 12.5 37.28125 
L 12.5 47.390625 
L 6.40625 47.390625 
L 6.40625 0 
L 12.796875 0 
L 12.796875 21.9375 
C 12.796875 26.84375 12.5 31.875 14.703125 36.46875 
C 15.796875 38.78125 17.5 40.78125 19.796875 41.984375 
C 21.703125 42.890625 23.703125 42.890625 25.796875 42.6875 
C 28.796875 42.6875 31.703125 41.890625 33.59375 39.375 
C 35.40625 37.0625 35.5 34.0625 35.5 31.25 
L 35.5 0 
L 41.90625 0 
L 41.90625 26.859375 
C 41.90625 31.875 42.40625 37.375 40 41.890625 
C 38.09375 45.5 34.40625 47.203125 30.5 47.703125 
C 28.5 48 26.40625 48 24.40625 47.609375 
C 19.203125 46.5 14.40625 42.296875 12.59375 37.28125 
z
" id="Computer_Modern_Bright-110"/>
     </defs>
     <g style="fill:#262626;" transform="translate(161.446984 80.336942)scale(0.1 -0.1)">
      <use transform="scale(0.996264)" xlink:href="#Computer_Modern_Bright-97"/>
      <use transform="translate(46.492082 0)scale(0.996264)" xlink:href="#Computer_Modern_Bright-110"/>
      <use transform="translate(94.644579 0)scale(0.996264)" xlink:href="#Computer_Modern_Bright-97"/>
      <use transform="translate(141.136662 0)scale(0.996264)" xlink:href="#Computer_Modern_Bright-45"/>
      <use transform="translate(174.345335 0)scale(0.996264)" xlink:href="#Computer_Modern_Bright-108"/>
      <use transform="translate(193.440294 0)scale(0.996264)" xlink:href="#Computer_Modern_Bright-97"/>
      <use transform="translate(239.932376 0)scale(0.996264)" xlink:href="#Computer_Modern_Bright-99"/>
     </g>
    </g>
    <g id="line2d_24">
     <path d="M 133.446984 87.497372 
L 153.446984 87.497372 
" style="fill:none;stroke:#e69f00;stroke-linecap:round;stroke-width:2;"/>
    </g>
    <g id="line2d_25"/>
    <g id="text_18">
     <!-- aero-ace -->
     <g style="fill:#262626;" transform="translate(161.446984 90.997372)scale(0.1 -0.1)">
      <use transform="scale(0.996264)" xlink:href="#Computer_Modern_Bright-97"/>
      <use transform="translate(46.492082 0)scale(0.996264)" xlink:href="#Computer_Modern_Bright-101"/>
      <use transform="translate(91.32375 0)scale(0.996264)" xlink:href="#Computer_Modern_Bright-114"/>
      <use transform="translate(123.287109 0)scale(0.996264)" xlink:href="#Computer_Modern_Bright-111"/>
      <use transform="translate(173.930327 0)scale(0.996264)" xlink:href="#Computer_Modern_Bright-45"/>
      <use transform="translate(207.139 0)scale(0.996264)" xlink:href="#Computer_Modern_Bright-97"/>
      <use transform="translate(253.631083 0)scale(0.996264)" xlink:href="#Computer_Modern_Bright-99"/>
      <use transform="translate(298.46275 0)scale(0.996264)" xlink:href="#Computer_Modern_Bright-101"/>
     </g>
    </g>
    <g id="line2d_26">
     <path d="M 133.446984 98.157802 
L 153.446984 98.157802 
" style="fill:none;stroke:#d55e00;stroke-linecap:round;stroke-width:2;"/>
    </g>
    <g id="line2d_27"/>
    <g id="text_19">
     <!-- exp -->
     <g style="fill:#262626;" transform="translate(161.446984 101.657802)scale(0.1 -0.1)">
      <use transform="scale(0.996264)" xlink:href="#Computer_Modern_Bright-101"/>
      <use transform="translate(44.831668 0)scale(0.996264)" xlink:href="#Computer_Modern_Bright-120"/>
      <use transform="translate(87.172706 0)scale(0.996264)" xlink:href="#Computer_Modern_Bright-112"/>
     </g>
    </g>
   </g>
  </g>
  <g id="axes_2">
   <g id="patch_7">
    <path d="M 340.031496 238.435925 
L 564.157561 238.435925 
L 564.157561 32.355653 
L 340.031496 32.355653 
z
" style="fill:#ffffff;"/>
   </g>
   <g id="matplotlib.axis_3">
    <g id="xtick_5">
     <g id="line2d_28"/>
     <g id="text_20">
      <!-- $10^{-3}$ -->
      <g style="fill:#262626;" transform="translate(363.901563 252.33812)scale(0.12 -0.12)">
       <use transform="scale(0.996264)" xlink:href="#Computer_Modern_Bright-49"/>
       <use transform="translate(50.643218 0)scale(0.996264)" xlink:href="#Computer_Modern_Bright-48"/>
       <use transform="translate(101.286436 36.153639)scale(0.697382)" xlink:href="#Computer_Modern_Bright_Math_Symbols-0"/>
       <use transform="translate(155.527429 36.153639)scale(0.697382)" xlink:href="#Computer_Modern_Bright-51"/>
      </g>
     </g>
    </g>
    <g id="xtick_6">
     <g id="line2d_29"/>
     <g id="text_21">
      <!-- $10^{-1}$ -->
      <g style="fill:#262626;" transform="translate(414.839305 252.33812)scale(0.12 -0.12)">
       <use transform="scale(0.996264)" xlink:href="#Computer_Modern_Bright-49"/>
       <use transform="translate(50.643218 0)scale(0.996264)" xlink:href="#Computer_Modern_Bright-48"/>
       <use transform="translate(101.286436 36.153639)scale(0.697382)" xlink:href="#Computer_Modern_Bright_Math_Symbols-0"/>
       <use transform="translate(155.527429 36.153639)scale(0.697382)" xlink:href="#Computer_Modern_Bright-49"/>
      </g>
     </g>
    </g>
    <g id="xtick_7">
     <g id="line2d_30"/>
     <g id="text_22">
      <!-- $10^{1}$ -->
      <g style="fill:#262626;" transform="translate(469.070301 252.33812)scale(0.12 -0.12)">
       <use transform="scale(0.996264)" xlink:href="#Computer_Modern_Bright-49"/>
       <use transform="translate(50.643218 0)scale(0.996264)" xlink:href="#Computer_Modern_Bright-48"/>
       <use transform="translate(101.286436 36.153639)scale(0.697382)" xlink:href="#Computer_Modern_Bright-49"/>
      </g>
     </g>
    </g>
    <g id="xtick_8">
     <g id="line2d_31"/>
     <g id="text_23">
      <!-- $10^{3}$ -->
      <g style="fill:#262626;" transform="translate(520.008043 252.33812)scale(0.12 -0.12)">
       <use transform="scale(0.996264)" xlink:href="#Computer_Modern_Bright-49"/>
       <use transform="translate(50.643218 0)scale(0.996264)" xlink:href="#Computer_Modern_Bright-48"/>
       <use transform="translate(101.286436 36.153639)scale(0.697382)" xlink:href="#Computer_Modern_Bright-51"/>
      </g>
     </g>
    </g>
    <g id="text_24">
     <!-- glucose level (mM) -->
     <g style="fill:#262626;" transform="translate(395.368614 268.79142)scale(0.14 -0.14)">
      <use transform="scale(0.996264)" xlink:href="#Computer_Modern_Bright-103"/>
      <use transform="translate(48.152497 0)scale(0.996264)" xlink:href="#Computer_Modern_Bright-108"/>
      <use transform="translate(67.247456 0)scale(0.996264)" xlink:href="#Computer_Modern_Bright-117"/>
      <use transform="translate(115.399953 0)scale(0.996264)" xlink:href="#Computer_Modern_Bright-99"/>
      <use transform="translate(160.23162 0)scale(0.996264)" xlink:href="#Computer_Modern_Bright-111"/>
      <use transform="translate(210.874838 0)scale(0.996264)" xlink:href="#Computer_Modern_Bright-115"/>
      <use transform="translate(249.313868 0)scale(0.996264)" xlink:href="#Computer_Modern_Bright-101"/>
      <use transform="translate(325.610747 0)scale(0.996264)" xlink:href="#Computer_Modern_Bright-108"/>
      <use transform="translate(344.705706 0)scale(0.996264)" xlink:href="#Computer_Modern_Bright-101"/>
      <use transform="translate(389.537373 0)scale(0.996264)" xlink:href="#Computer_Modern_Bright-118"/>
      <use transform="translate(431.878411 0)scale(0.996264)" xlink:href="#Computer_Modern_Bright-101"/>
      <use transform="translate(476.710079 0)scale(0.996264)" xlink:href="#Computer_Modern_Bright-108"/>
      <use transform="translate(527.270249 0)scale(0.996264)" xlink:href="#Computer_Modern_Bright-40"/>
      <use transform="translate(566.290458 0)scale(0.996264)" xlink:href="#Computer_Modern_Bright-109"/>
      <use transform="translate(643.500584 0)scale(0.996264)" xlink:href="#Computer_Modern_Bright-77"/>
      <use transform="translate(728.597882 0)scale(0.996264)" xlink:href="#Computer_Modern_Bright-41"/>
     </g>
    </g>
   </g>
   <g id="matplotlib.axis_4">
    <g id="ytick_6">
     <g id="line2d_32"/>
     <g id="text_25">
      <!-- $0.0$ -->
      <g style="fill:#262626;" transform="translate(318.391791 242.587022)scale(0.12 -0.12)">
       <use transform="scale(0.996264)" xlink:href="#Computer_Modern_Bright-48"/>
       <use transform="translate(50.643218 0)scale(0.996264)" xlink:href="#Computer_Modern_Bright_Math_Slanted-58"/>
       <use transform="translate(79.700665 0)scale(0.996264)" xlink:href="#Computer_Modern_Bright-48"/>
      </g>
     </g>
    </g>
    <g id="ytick_7">
     <g id="line2d_33"/>
     <g id="text_26">
      <!-- $0.2$ -->
      <g style="fill:#262626;" transform="translate(318.391791 194.661378)scale(0.12 -0.12)">
       <use transform="scale(0.996264)" xlink:href="#Computer_Modern_Bright-48"/>
       <use transform="translate(50.643218 0)scale(0.996264)" xlink:href="#Computer_Modern_Bright_Math_Slanted-58"/>
       <use transform="translate(79.700665 0)scale(0.996264)" xlink:href="#Computer_Modern_Bright-50"/>
      </g>
     </g>
    </g>
    <g id="ytick_8">
     <g id="line2d_34"/>
     <g id="text_27">
      <!-- $0.4$ -->
      <g style="fill:#262626;" transform="translate(318.391791 146.735733)scale(0.12 -0.12)">
       <use transform="scale(0.996264)" xlink:href="#Computer_Modern_Bright-48"/>
       <use transform="translate(50.643218 0)scale(0.996264)" xlink:href="#Computer_Modern_Bright_Math_Slanted-58"/>
       <use transform="translate(79.700665 0)scale(0.996264)" xlink:href="#Computer_Modern_Bright-52"/>
      </g>
     </g>
    </g>
    <g id="ytick_9">
     <g id="line2d_35"/>
     <g id="text_28">
      <!-- $0.6$ -->
      <g style="fill:#262626;" transform="translate(318.391791 98.810088)scale(0.12 -0.12)">
       <use transform="scale(0.996264)" xlink:href="#Computer_Modern_Bright-48"/>
       <use transform="translate(50.643218 0)scale(0.996264)" xlink:href="#Computer_Modern_Bright_Math_Slanted-58"/>
       <use transform="translate(79.700665 0)scale(0.996264)" xlink:href="#Computer_Modern_Bright-54"/>
      </g>
     </g>
    </g>
    <g id="ytick_10">
     <g id="line2d_36"/>
     <g id="text_29">
      <!-- $0.8$ -->
      <g style="fill:#262626;" transform="translate(318.391791 50.884443)scale(0.12 -0.12)">
       <use transform="scale(0.996264)" xlink:href="#Computer_Modern_Bright-48"/>
       <use transform="translate(50.643218 0)scale(0.996264)" xlink:href="#Computer_Modern_Bright_Math_Slanted-58"/>
       <use transform="translate(79.700665 0)scale(0.996264)" xlink:href="#Computer_Modern_Bright-56"/>
      </g>
     </g>
    </g>
    <g id="text_30">
     <!-- growth rate [h$^{-1}$] -->
     <g style="fill:#262626;" transform="translate(311.2923 186.808141)rotate(-90)scale(0.14 -0.14)">
      <use transform="scale(0.996264)" xlink:href="#Computer_Modern_Bright-103"/>
      <use transform="translate(48.152497 0)scale(0.996264)" xlink:href="#Computer_Modern_Bright-114"/>
      <use transform="translate(80.115856 0)scale(0.996264)" xlink:href="#Computer_Modern_Bright-111"/>
      <use transform="translate(127.853344 0)scale(0.996264)" xlink:href="#Computer_Modern_Bright-119"/>
      <use transform="translate(193.440385 0)scale(0.996264)" xlink:href="#Computer_Modern_Bright-116"/>
      <use transform="translate(229.554773 0)scale(0.996264)" xlink:href="#Computer_Modern_Bright-104"/>
      <use transform="translate(309.172482 0)scale(0.996264)" xlink:href="#Computer_Modern_Bright-114"/>
      <use transform="translate(341.135841 0)scale(0.996264)" xlink:href="#Computer_Modern_Bright-97"/>
      <use transform="translate(387.627923 0)scale(0.996264)" xlink:href="#Computer_Modern_Bright-116"/>
      <use transform="translate(423.742311 0)scale(0.996264)" xlink:href="#Computer_Modern_Bright-101"/>
      <use transform="translate(500.03919 0)scale(0.996264)" xlink:href="#Computer_Modern_Bright-91"/>
      <use transform="translate(527.713077 0)scale(0.996264)" xlink:href="#Computer_Modern_Bright-104"/>
      <use transform="translate(575.865574 36.153639)scale(0.697382)" xlink:href="#Computer_Modern_Bright_Math_Symbols-0"/>
      <use transform="translate(630.106568 36.153639)scale(0.697382)" xlink:href="#Computer_Modern_Bright-49"/>
      <use transform="translate(666.054785 0)scale(0.996264)" xlink:href="#Computer_Modern_Bright-93"/>
     </g>
    </g>
   </g>
   <g id="line2d_37">
    <path clip-path="url(#p2ebaa59ce2)" d="M 350.219044 234.058213 
L 353.290667 232.688178 
L 355.338415 231.58465 
L 357.386164 230.285303 
L 359.433912 228.752697 
L 361.481661 226.949392 
L 363.529409 224.837948 
L 365.577157 222.380922 
L 367.624906 219.540876 
L 369.672654 216.280369 
L 371.720403 212.56196 
L 373.768151 208.348208 
L 375.8159 203.601678 
L 377.863648 198.30622 
L 379.911396 192.516326 
L 382.983019 183.055636 
L 386.054642 172.871307 
L 391.174013 154.936306 
L 396.293384 137.003946 
L 399.365006 126.904742 
L 402.436629 117.716641 
L 404.484378 112.193517 
L 406.532126 107.140267 
L 408.579874 102.540615 
L 410.627623 98.378283 
L 412.675371 94.636995 
L 414.72312 91.300258 
L 416.770868 88.34354 
L 418.818617 85.732029 
L 420.866365 83.430247 
L 422.914113 81.402714 
L 424.961862 79.61395 
L 428.033484 77.301906 
L 431.105107 75.358408 
L 434.17673 73.725735 
L 437.248352 72.347857 
L 441.343849 70.811702 
L 445.439346 69.536673 
L 450.558717 68.227092 
L 456.701962 66.944124 
L 463.869082 65.722584 
L 472.060076 64.569357 
L 482.298818 63.371655 
L 495.609183 62.065256 
L 508.919547 60.978307 
L 520.182164 60.279875 
L 532.468654 59.752566 
L 547.826767 59.331174 
L 553.970013 59.218163 
L 553.970013 59.218163 
" style="fill:none;stroke:#56b4e9;stroke-linecap:round;stroke-width:2;"/>
   </g>
   <g id="line2d_38">
    <path clip-path="url(#p2ebaa59ce2)" d="M 350.219044 233.552082 
L 352.266793 232.632741 
L 354.314541 231.526212 
L 356.36229 230.200872 
L 358.410038 228.6251 
L 360.457786 226.767273 
L 362.505535 224.595768 
L 364.553283 222.078964 
L 366.601032 219.185239 
L 368.64878 215.882969 
L 370.696529 212.140534 
L 372.744277 207.926309 
L 374.792025 203.208674 
L 376.839774 197.959477 
L 378.887522 192.211073 
L 381.959145 182.836167 
L 386.054642 169.380261 
L 395.26951 138.434835 
L 398.341132 128.931633 
L 401.412755 120.310408 
L 403.460503 115.167717 
L 405.508252 110.503838 
L 407.556 106.292501 
L 409.603749 102.507438 
L 411.651497 99.122381 
L 413.699245 96.111059 
L 415.746994 93.446513 
L 417.794742 91.098109 
L 419.842491 89.034 
L 421.890239 87.222338 
L 423.937988 85.631277 
L 427.00961 83.588661 
L 430.081233 81.877408 
L 433.152856 80.443169 
L 436.224478 79.238273 
L 440.319975 77.906257 
L 444.415472 76.805547 
L 449.534843 75.680618 
L 455.678088 74.588682 
L 462.845208 73.562168 
L 471.036201 72.630915 
L 479.227195 71.921081 
L 488.442063 71.362346 
L 498.680805 70.973604 
L 510.967296 70.733703 
L 530.420906 70.611285 
L 553.970013 70.5863 
L 553.970013 70.5863 
" style="fill:none;stroke:#0072b2;stroke-linecap:round;stroke-width:2;"/>
   </g>
   <g id="line2d_39">
    <path clip-path="url(#p2ebaa59ce2)" d="M 350.219044 233.64937 
L 352.266793 232.943624 
L 354.314541 232.005762 
L 356.36229 230.844719 
L 358.410038 229.469431 
L 360.457786 227.888835 
L 363.529409 225.152534 
L 366.601032 222.004554 
L 369.672654 218.475052 
L 372.744277 214.594188 
L 375.8159 210.392121 
L 379.911396 204.386909 
L 389.126264 190.658771 
L 393.221761 185.117798 
L 396.293384 181.294723 
L 399.365006 177.772965 
L 402.436629 174.566492 
L 405.508252 171.668175 
L 408.579874 169.044656 
L 411.651497 166.660935 
L 415.746994 163.795671 
L 419.842491 161.227049 
L 423.937988 158.903525 
L 429.057359 156.267224 
L 435.200604 153.391246 
L 442.367723 150.294719 
L 448.510969 147.831201 
L 454.654214 145.620819 
L 459.773585 144.014037 
L 464.892956 142.637501 
L 470.012327 141.494509 
L 476.155572 140.37657 
L 483.322692 139.324493 
L 491.513686 138.374888 
L 500.728554 137.543154 
L 514.038918 136.583314 
L 527.349283 135.847171 
L 541.683522 135.272849 
L 553.970013 134.936806 
L 553.970013 134.936806 
" style="fill:none;stroke:#6e70e5;stroke-linecap:round;stroke-width:2;"/>
   </g>
   <g id="line2d_40">
    <path clip-path="url(#p2ebaa59ce2)" d="M 350.219044 237.947185 
L 359.433912 237.330713 
L 364.553283 236.75772 
L 368.64878 236.084767 
L 372.744277 235.159457 
L 375.8159 234.265639 
L 378.887522 233.176383 
L 381.959145 231.879097 
L 385.030767 230.363152 
L 388.10239 228.617919 
L 391.174013 226.640157 
L 395.26951 223.708175 
L 400.388881 219.73925 
L 412.675371 210.088296 
L 416.770868 207.167006 
L 420.866365 204.478719 
L 424.961862 202.011444 
L 430.081233 199.217508 
L 435.200604 196.703031 
L 441.343849 193.97522 
L 447.487094 191.49368 
L 454.654214 188.858431 
L 461.821333 186.461122 
L 470.012327 183.978395 
L 478.203321 181.745777 
L 486.394315 179.75431 
L 493.561434 178.222202 
L 500.728554 176.90357 
L 507.895673 175.816536 
L 515.062793 174.970975 
L 522.229912 174.365101 
L 530.420906 173.91876 
L 539.635774 173.645559 
L 553.970013 173.475675 
L 553.970013 173.475675 
" style="fill:none;stroke:#cc79a7;stroke-linecap:round;stroke-width:2;"/>
   </g>
   <g id="line2d_41">
    <path clip-path="url(#p2ebaa59ce2)" d="M 350.219044 234.864398 
L 352.266793 234.284369 
L 354.314541 233.537656 
L 356.36229 232.618975 
L 358.410038 231.523044 
L 360.457786 230.244583 
L 362.505535 228.778308 
L 364.553283 227.118938 
L 366.601032 225.261192 
L 369.672654 222.091061 
L 372.744277 218.44487 
L 375.8159 214.304797 
L 378.887522 209.683229 
L 382.983019 202.982015 
L 395.26951 182.263446 
L 399.365006 175.966767 
L 402.436629 171.628826 
L 405.508252 167.65566 
L 408.579874 164.019747 
L 411.651497 160.690139 
L 414.72312 157.63589 
L 418.818617 153.938575 
L 422.914113 150.60313 
L 427.00961 147.556801 
L 432.128981 144.059209 
L 437.248352 140.833426 
L 443.391598 137.224857 
L 450.558717 133.297351 
L 457.725837 129.636635 
L 463.869082 126.751146 
L 468.988453 124.565987 
L 475.131698 122.191347 
L 482.298818 119.698634 
L 489.465937 117.449952 
L 497.656931 115.129953 
L 505.847925 113.065638 
L 514.038918 111.255454 
L 522.229912 109.693414 
L 530.420906 108.38071 
L 538.611899 107.31846 
L 546.802893 106.500476 
L 553.970013 105.979553 
L 553.970013 105.979553 
" style="fill:none;stroke:#e69f00;stroke-linecap:round;stroke-width:2;"/>
   </g>
   <g id="line2d_42">
    <path clip-path="url(#p2ebaa59ce2)" d="M 350.219044 234.530337 
L 352.266793 233.950643 
L 354.314541 233.175594 
L 356.36229 232.211387 
L 358.410038 231.06422 
L 361.481661 229.013976 
L 364.553283 226.58693 
L 367.624906 223.803999 
L 370.696529 220.686097 
L 373.768151 217.25414 
L 376.839774 213.52992 
L 381.959145 206.867485 
L 389.126264 197.508158 
L 393.221761 192.60135 
L 396.293384 189.204542 
L 399.365006 186.06775 
L 402.436629 183.205875 
L 405.508252 180.613742 
L 408.579874 178.261218 
L 412.675371 175.442463 
L 416.770868 172.919803 
L 420.866365 170.636011 
L 425.985736 168.044536 
L 432.128981 165.208491 
L 439.296101 162.162934 
L 448.510969 158.50899 
L 458.749711 154.687638 
L 470.012327 150.713126 
L 481.274944 146.971231 
L 492.53756 143.47939 
L 501.752428 140.858721 
L 508.919547 139.048163 
L 516.086667 137.478282 
L 522.229912 136.340825 
L 528.373157 135.401122 
L 535.540277 134.552496 
L 542.707396 133.942385 
L 550.89839 133.491484 
L 553.970013 133.379866 
L 553.970013 133.379866 
" style="fill:none;stroke:#d55e00;stroke-linecap:round;stroke-width:2;"/>
   </g>
   <g id="patch_8">
    <path d="M 340.031496 238.435925 
L 340.031496 32.355653 
" style="fill:none;stroke:#262626;stroke-linecap:square;stroke-linejoin:miter;stroke-width:1.25;"/>
   </g>
   <g id="patch_9">
    <path d="M 564.157561 238.435925 
L 564.157561 32.355653 
" style="fill:none;stroke:#262626;stroke-linecap:square;stroke-linejoin:miter;stroke-width:1.25;"/>
   </g>
   <g id="patch_10">
    <path d="M 340.031496 238.435925 
L 564.157561 238.435925 
" style="fill:none;stroke:#262626;stroke-linecap:square;stroke-linejoin:miter;stroke-width:1.25;"/>
   </g>
   <g id="patch_11">
    <path d="M 340.031496 32.355653 
L 564.157561 32.355653 
" style="fill:none;stroke:#262626;stroke-linecap:square;stroke-linejoin:miter;stroke-width:1.25;"/>
   </g>
   <g id="text_31">
    <!-- b -->
    <defs>
     <path d="M 6.40625 69.6875 
L 6.40625 0 
L 12.796875 0 
L 12.796875 6.328125 
L 12.90625 6.328125 
C 14 4.109375 16.5 2.015625 18.59375 0.90625 
C 25.796875 -2.90625 34.40625 0.90625 39.09375 7.03125 
C 48.59375 19.578125 44.796875 40.875 32.296875 46.796875 
C 27.40625 49 21.5 48 17.09375 44.984375 
C 15.40625 43.78125 14 42.375 12.703125 40.765625 
L 12.703125 69.6875 
z
M 21.90625 42.984375 
C 26.59375 43.375 31.5 41.265625 34.296875 37.453125 
C 36.203125 34.9375 37.203125 31.9375 37.703125 28.8125 
C 38.703125 21.484375 37.90625 12.25 31.40625 7.4375 
C 30.296875 6.625 29.09375 6.03125 27.796875 5.515625 
C 22.40625 3.515625 17 4.109375 14 8.84375 
C 13.09375 10.4375 12.796875 10.546875 12.796875 12.953125 
L 12.796875 33.734375 
C 12.796875 34.75 12.59375 35.953125 13 36.859375 
C 14.59375 40.171875 18.296875 42.671875 21.90625 42.984375 
z
" id="Computer_Modern_Bright-98"/>
    </defs>
    <g style="fill:#262626;" transform="translate(344.514017 50.314224)scale(0.2 -0.2)">
     <use transform="scale(0.996264)" xlink:href="#Computer_Modern_Bright-98"/>
    </g>
   </g>
   <g id="text_32">
    <!-- std. $O_2$ (0.21 mM) -->
    <g style="fill:#262626;" transform="translate(394.622541 26.355653)scale(0.14 -0.14)">
     <use transform="translate(0 14.943915)scale(0.996264)" xlink:href="#Computer_Modern_Bright-115"/>
     <use transform="translate(38.439029 14.943915)scale(0.996264)" xlink:href="#Computer_Modern_Bright-116"/>
     <use transform="translate(74.553417 14.943915)scale(0.996264)" xlink:href="#Computer_Modern_Bright-100"/>
     <use transform="translate(122.705914 14.943915)scale(0.996264)" xlink:href="#Computer_Modern_Bright-46"/>
     <use transform="translate(192.610155 14.943915)scale(0.996264)" xlink:href="#Computer_Modern_Bright_Math_Slanted-79"/>
     <use transform="translate(267.814893 0)scale(0.697382)" xlink:href="#Computer_Modern_Bright-50"/>
     <use transform="translate(335.228322 14.943915)scale(0.996264)" xlink:href="#Computer_Modern_Bright-40"/>
     <use transform="translate(374.24853 14.943915)scale(0.996264)" xlink:href="#Computer_Modern_Bright-48"/>
     <use transform="translate(424.891748 14.943915)scale(0.996264)" xlink:href="#Computer_Modern_Bright-46"/>
     <use transform="translate(452.288872 14.943915)scale(0.996264)" xlink:href="#Computer_Modern_Bright-50"/>
     <use transform="translate(502.932089 14.943915)scale(0.996264)" xlink:href="#Computer_Modern_Bright-49"/>
     <use transform="translate(585.040519 14.943915)scale(0.996264)" xlink:href="#Computer_Modern_Bright-109"/>
     <use transform="translate(662.250645 14.943915)scale(0.996264)" xlink:href="#Computer_Modern_Bright-77"/>
     <use transform="translate(747.347943 14.943915)scale(0.996264)" xlink:href="#Computer_Modern_Bright-41"/>
    </g>
   </g>
  </g>
  <g id="axes_3">
   <g id="patch_12">
    <path d="M 624.753935 238.435925 
L 848.88 238.435925 
L 848.88 32.355653 
L 624.753935 32.355653 
z
" style="fill:#ffffff;"/>
   </g>
   <g id="matplotlib.axis_5">
    <g id="xtick_9">
     <g id="line2d_43"/>
     <g id="text_33">
      <!-- $0.0$ -->
      <g style="fill:#262626;" transform="translate(621.194606 252.33812)scale(0.12 -0.12)">
       <use transform="scale(0.996264)" xlink:href="#Computer_Modern_Bright-48"/>
       <use transform="translate(50.643218 0)scale(0.996264)" xlink:href="#Computer_Modern_Bright_Math_Slanted-58"/>
       <use transform="translate(79.700665 0)scale(0.996264)" xlink:href="#Computer_Modern_Bright-48"/>
      </g>
     </g>
    </g>
    <g id="xtick_10">
     <g id="line2d_44"/>
     <g id="text_34">
      <!-- $0.2$ -->
      <g style="fill:#262626;" transform="translate(683.892055 252.33812)scale(0.12 -0.12)">
       <use transform="scale(0.996264)" xlink:href="#Computer_Modern_Bright-48"/>
       <use transform="translate(50.643218 0)scale(0.996264)" xlink:href="#Computer_Modern_Bright_Math_Slanted-58"/>
       <use transform="translate(79.700665 0)scale(0.996264)" xlink:href="#Computer_Modern_Bright-50"/>
      </g>
     </g>
    </g>
    <g id="xtick_11">
     <g id="line2d_45"/>
     <g id="text_35">
      <!-- $0.4$ -->
      <g style="fill:#262626;" transform="translate(746.589504 252.33812)scale(0.12 -0.12)">
       <use transform="scale(0.996264)" xlink:href="#Computer_Modern_Bright-48"/>
       <use transform="translate(50.643218 0)scale(0.996264)" xlink:href="#Computer_Modern_Bright_Math_Slanted-58"/>
       <use transform="translate(79.700665 0)scale(0.996264)" xlink:href="#Computer_Modern_Bright-52"/>
      </g>
     </g>
    </g>
    <g id="xtick_12">
     <g id="line2d_46"/>
     <g id="text_36">
      <!-- $0.6$ -->
      <g style="fill:#262626;" transform="translate(809.286953 252.33812)scale(0.12 -0.12)">
       <use transform="scale(0.996264)" xlink:href="#Computer_Modern_Bright-48"/>
       <use transform="translate(50.643218 0)scale(0.996264)" xlink:href="#Computer_Modern_Bright_Math_Slanted-58"/>
       <use transform="translate(79.700665 0)scale(0.996264)" xlink:href="#Computer_Modern_Bright-54"/>
      </g>
     </g>
    </g>
    <g id="text_37">
     <!-- growth rate [h$^{-1}$] -->
     <g style="fill:#262626;" transform="translate(685.404615 269.780509)scale(0.14 -0.14)">
      <use transform="scale(0.996264)" xlink:href="#Computer_Modern_Bright-103"/>
      <use transform="translate(48.152497 0)scale(0.996264)" xlink:href="#Computer_Modern_Bright-114"/>
      <use transform="translate(80.115856 0)scale(0.996264)" xlink:href="#Computer_Modern_Bright-111"/>
      <use transform="translate(127.853344 0)scale(0.996264)" xlink:href="#Computer_Modern_Bright-119"/>
      <use transform="translate(193.440385 0)scale(0.996264)" xlink:href="#Computer_Modern_Bright-116"/>
      <use transform="translate(229.554773 0)scale(0.996264)" xlink:href="#Computer_Modern_Bright-104"/>
      <use transform="translate(309.172482 0)scale(0.996264)" xlink:href="#Computer_Modern_Bright-114"/>
      <use transform="translate(341.135841 0)scale(0.996264)" xlink:href="#Computer_Modern_Bright-97"/>
      <use transform="translate(387.627923 0)scale(0.996264)" xlink:href="#Computer_Modern_Bright-116"/>
      <use transform="translate(423.742311 0)scale(0.996264)" xlink:href="#Computer_Modern_Bright-101"/>
      <use transform="translate(500.03919 0)scale(0.996264)" xlink:href="#Computer_Modern_Bright-91"/>
      <use transform="translate(527.713077 0)scale(0.996264)" xlink:href="#Computer_Modern_Bright-104"/>
      <use transform="translate(575.865574 36.153639)scale(0.697382)" xlink:href="#Computer_Modern_Bright_Math_Symbols-0"/>
      <use transform="translate(630.106568 36.153639)scale(0.697382)" xlink:href="#Computer_Modern_Bright-49"/>
      <use transform="translate(666.054785 0)scale(0.996264)" xlink:href="#Computer_Modern_Bright-93"/>
     </g>
    </g>
   </g>
   <g id="matplotlib.axis_6">
    <g id="ytick_11">
     <g id="line2d_47"/>
     <g id="text_38">
      <!-- $0.00$ -->
      <g style="fill:#262626;" transform="translate(596.837825 233.40727)scale(0.12 -0.12)">
       <use transform="scale(0.996264)" xlink:href="#Computer_Modern_Bright-48"/>
       <use transform="translate(50.643218 0)scale(0.996264)" xlink:href="#Computer_Modern_Bright_Math_Slanted-58"/>
       <use transform="translate(79.700665 0)scale(0.996264)" xlink:href="#Computer_Modern_Bright-48"/>
       <use transform="translate(130.343883 0)scale(0.996264)" xlink:href="#Computer_Modern_Bright-48"/>
      </g>
     </g>
    </g>
    <g id="ytick_12">
     <g id="line2d_48"/>
     <g id="text_39">
      <!-- $0.02$ -->
      <g style="fill:#262626;" transform="translate(596.837825 195.900623)scale(0.12 -0.12)">
       <use transform="scale(0.996264)" xlink:href="#Computer_Modern_Bright-48"/>
       <use transform="translate(50.643218 0)scale(0.996264)" xlink:href="#Computer_Modern_Bright_Math_Slanted-58"/>
       <use transform="translate(79.700665 0)scale(0.996264)" xlink:href="#Computer_Modern_Bright-48"/>
       <use transform="translate(130.343883 0)scale(0.996264)" xlink:href="#Computer_Modern_Bright-50"/>
      </g>
     </g>
    </g>
    <g id="ytick_13">
     <g id="line2d_49"/>
     <g id="text_40">
      <!-- $0.04$ -->
      <g style="fill:#262626;" transform="translate(596.837825 158.393976)scale(0.12 -0.12)">
       <use transform="scale(0.996264)" xlink:href="#Computer_Modern_Bright-48"/>
       <use transform="translate(50.643218 0)scale(0.996264)" xlink:href="#Computer_Modern_Bright_Math_Slanted-58"/>
       <use transform="translate(79.700665 0)scale(0.996264)" xlink:href="#Computer_Modern_Bright-48"/>
       <use transform="translate(130.343883 0)scale(0.996264)" xlink:href="#Computer_Modern_Bright-52"/>
      </g>
     </g>
    </g>
    <g id="ytick_14">
     <g id="line2d_50"/>
     <g id="text_41">
      <!-- $0.06$ -->
      <g style="fill:#262626;" transform="translate(596.837825 120.887329)scale(0.12 -0.12)">
       <use transform="scale(0.996264)" xlink:href="#Computer_Modern_Bright-48"/>
       <use transform="translate(50.643218 0)scale(0.996264)" xlink:href="#Computer_Modern_Bright_Math_Slanted-58"/>
       <use transform="translate(79.700665 0)scale(0.996264)" xlink:href="#Computer_Modern_Bright-48"/>
       <use transform="translate(130.343883 0)scale(0.996264)" xlink:href="#Computer_Modern_Bright-54"/>
      </g>
     </g>
    </g>
    <g id="ytick_15">
     <g id="line2d_51"/>
     <g id="text_42">
      <!-- $0.08$ -->
      <g style="fill:#262626;" transform="translate(596.837825 83.380682)scale(0.12 -0.12)">
       <use transform="scale(0.996264)" xlink:href="#Computer_Modern_Bright-48"/>
       <use transform="translate(50.643218 0)scale(0.996264)" xlink:href="#Computer_Modern_Bright_Math_Slanted-58"/>
       <use transform="translate(79.700665 0)scale(0.996264)" xlink:href="#Computer_Modern_Bright-48"/>
       <use transform="translate(130.343883 0)scale(0.996264)" xlink:href="#Computer_Modern_Bright-56"/>
      </g>
     </g>
    </g>
    <g id="ytick_16">
     <g id="line2d_52"/>
     <g id="text_43">
      <!-- $0.10$ -->
      <g style="fill:#262626;" transform="translate(596.837825 45.874035)scale(0.12 -0.12)">
       <use transform="scale(0.996264)" xlink:href="#Computer_Modern_Bright-48"/>
       <use transform="translate(50.643218 0)scale(0.996264)" xlink:href="#Computer_Modern_Bright_Math_Slanted-58"/>
       <use transform="translate(79.700665 0)scale(0.996264)" xlink:href="#Computer_Modern_Bright-49"/>
       <use transform="translate(130.343883 0)scale(0.996264)" xlink:href="#Computer_Modern_Bright-48"/>
      </g>
     </g>
    </g>
    <g id="text_44">
     <!-- residual glucose level (mM) -->
     <g style="fill:#262626;" transform="translate(589.738333 216.686871)rotate(-90)scale(0.14 -0.14)">
      <use transform="scale(0.996264)" xlink:href="#Computer_Modern_Bright-114"/>
      <use transform="translate(31.963359 0)scale(0.996264)" xlink:href="#Computer_Modern_Bright-101"/>
      <use transform="translate(76.795026 0)scale(0.996264)" xlink:href="#Computer_Modern_Bright-115"/>
      <use transform="translate(115.234056 0)scale(0.996264)" xlink:href="#Computer_Modern_Bright-105"/>
      <use transform="translate(134.329015 0)scale(0.996264)" xlink:href="#Computer_Modern_Bright-100"/>
      <use transform="translate(182.481512 0)scale(0.996264)" xlink:href="#Computer_Modern_Bright-117"/>
      <use transform="translate(230.634009 0)scale(0.996264)" xlink:href="#Computer_Modern_Bright-97"/>
      <use transform="translate(277.126091 0)scale(0.996264)" xlink:href="#Computer_Modern_Bright-108"/>
      <use transform="translate(327.686261 0)scale(0.996264)" xlink:href="#Computer_Modern_Bright-103"/>
      <use transform="translate(375.838758 0)scale(0.996264)" xlink:href="#Computer_Modern_Bright-108"/>
      <use transform="translate(394.933717 0)scale(0.996264)" xlink:href="#Computer_Modern_Bright-117"/>
      <use transform="translate(443.086214 0)scale(0.996264)" xlink:href="#Computer_Modern_Bright-99"/>
      <use transform="translate(487.917882 0)scale(0.996264)" xlink:href="#Computer_Modern_Bright-111"/>
      <use transform="translate(538.5611 0)scale(0.996264)" xlink:href="#Computer_Modern_Bright-115"/>
      <use transform="translate(577.000129 0)scale(0.996264)" xlink:href="#Computer_Modern_Bright-101"/>
      <use transform="translate(653.297008 0)scale(0.996264)" xlink:href="#Computer_Modern_Bright-108"/>
      <use transform="translate(672.391967 0)scale(0.996264)" xlink:href="#Computer_Modern_Bright-101"/>
      <use transform="translate(717.223635 0)scale(0.996264)" xlink:href="#Computer_Modern_Bright-118"/>
      <use transform="translate(759.564673 0)scale(0.996264)" xlink:href="#Computer_Modern_Bright-101"/>
      <use transform="translate(804.39634 0)scale(0.996264)" xlink:href="#Computer_Modern_Bright-108"/>
      <use transform="translate(854.956511 0)scale(0.996264)" xlink:href="#Computer_Modern_Bright-40"/>
      <use transform="translate(893.976719 0)scale(0.996264)" xlink:href="#Computer_Modern_Bright-109"/>
      <use transform="translate(971.186846 0)scale(0.996264)" xlink:href="#Computer_Modern_Bright-77"/>
      <use transform="translate(1056.284143 0)scale(0.996264)" xlink:href="#Computer_Modern_Bright-41"/>
     </g>
    </g>
   </g>
   <g id="line2d_53">
    <path clip-path="url(#p978aab4acf)" d="M 634.941483 229.06864 
L 654.435501 228.330312 
L 675.197751 227.336936 
L 691.772929 226.345234 
L 706.015258 225.277746 
L 717.854205 224.183474 
L 728.361607 223.008888 
L 737.260504 221.824815 
L 746.175133 220.416319 
L 753.244276 219.099614 
L 760.196823 217.586784 
L 766.976479 215.848617 
L 771.913897 214.377105 
L 776.698647 212.74409 
L 781.306981 210.931847 
L 785.717308 208.920707 
L 789.92519 206.688839 
L 793.934365 204.212018 
L 796.498628 202.41156 
L 798.977384 200.481666 
L 801.371757 198.413028 
L 803.682869 196.195674 
L 805.911843 193.818911 
L 808.059803 191.27128 
L 810.12787 188.540496 
L 812.117169 185.613392 
L 814.028821 182.475855 
L 815.863951 179.112756 
L 817.62368 175.50788 
L 819.309132 171.643844 
L 820.921474 167.502018 
L 822.462572 163.06243 
L 823.93486 158.303674 
L 825.340785 153.202806 
L 826.682794 147.735229 
L 827.963336 141.874581 
L 829.77425 132.284233 
L 831.460629 121.64132 
L 833.030736 109.830321 
L 834.492829 96.723036 
L 835.855172 82.177193 
L 837.126023 66.034908 
L 838.313645 48.120967 
L 838.692452 41.722938 
L 838.692452 41.722938 
" style="fill:none;stroke:#56b4e9;stroke-linecap:round;stroke-width:1.4;"/>
   </g>
   <g id="patch_13">
    <path d="M 624.753935 238.435925 
L 624.753935 32.355653 
" style="fill:none;stroke:#262626;stroke-linecap:square;stroke-linejoin:miter;stroke-width:1.25;"/>
   </g>
   <g id="patch_14">
    <path d="M 848.88 238.435925 
L 848.88 32.355653 
" style="fill:none;stroke:#262626;stroke-linecap:square;stroke-linejoin:miter;stroke-width:1.25;"/>
   </g>
   <g id="patch_15">
    <path d="M 624.753935 238.435925 
L 848.88 238.435925 
" style="fill:none;stroke:#262626;stroke-linecap:square;stroke-linejoin:miter;stroke-width:1.25;"/>
   </g>
   <g id="patch_16">
    <path d="M 624.753935 32.355653 
L 848.88 32.355653 
" style="fill:none;stroke:#262626;stroke-linecap:square;stroke-linejoin:miter;stroke-width:1.25;"/>
   </g>
   <g id="text_45">
    <!-- c -->
    <g style="fill:#262626;" transform="translate(629.236456 50.314224)scale(0.2 -0.2)">
     <use transform="scale(0.996264)" xlink:href="#Computer_Modern_Bright-99"/>
    </g>
   </g>
   <g id="text_46">
    <!-- std. $O_2$, only \emph{max-gr} -->
    <defs>
     <path d="M 9.90625 7.828125 
L 9.90625 0 
L 12.296875 0 
L 9.796875 -11 
L 13.796875 -11 
C 15.09375 -7.34375 16.40625 -3.765625 17.59375 -0.09375 
C 17.703125 2.40625 17.703125 5.125 17.703125 7.828125 
z
" id="Computer_Modern_Bright-44"/>
     <path d="M 20.5 37.4375 
L 20.40625 37.4375 
C 21.09375 40.765625 21.90625 44.078125 22.5 47.5 
L 16.40625 47.5 
L 6.40625 0 
L 10.90625 0 
C 11.796875 0 13 -0.296875 13 1 
C 13.203125 1.703125 14.59375 8.46875 15.203125 11.203125 
C 15.796875 14.03125 18.703125 28.46875 19.40625 30.5 
C 20.5 34.03125 22.40625 37.46875 25.203125 39.890625 
C 27.90625 42.3125 31.40625 43.828125 36.5 42.921875 
C 38.796875 42.625 41.09375 41.609375 42.203125 39.390625 
C 43.59375 36.453125 42.5 32.921875 41.90625 29.890625 
L 35.59375 0 
L 40.09375 0 
C 41 0 42.203125 -0.296875 42.203125 1 
C 42.40625 1.703125 43.796875 8.46875 44.40625 11.203125 
C 45 14.03125 47.90625 28.46875 48.59375 30.5 
C 49.703125 34.03125 51.59375 37.46875 54.40625 39.890625 
C 57.09375 42.3125 60.59375 43.828125 65.703125 42.921875 
C 68 42.625 70.296875 41.609375 71.40625 39.390625 
C 72.796875 36.453125 71.703125 32.921875 71.09375 29.890625 
L 64.796875 0 
L 69.5 0 
C 70.5 0 71.40625 -0.203125 71.40625 1.109375 
C 71.59375 1.8125 74.90625 17.515625 77.90625 31.703125 
C 78.703125 35.515625 79.59375 40.0625 77.5 43.703125 
C 75.703125 46.734375 72.203125 47.75 68.90625 48.046875 
C 61.796875 48.765625 56.703125 45.421875 53.203125 41.890625 
C 51.90625 40.578125 50.40625 38.953125 49.59375 37.234375 
C 49.40625 39.453125 49.5 41.671875 48.296875 43.671875 
C 46.5 46.6875 43 47.703125 39.703125 48 
C 32.59375 48.71875 27.5 45.390625 24 41.875 
C 22.703125 40.5625 21.40625 39.046875 20.5 37.4375 
z
" id="Computer_Modern_Bright_Slanted-109"/>
     <path d="M 16 38.8125 
C 17.40625 39.40625 18.703125 40.3125 20.09375 41.015625 
C 23.40625 42.5 26.796875 43.484375 30.5 43.796875 
C 32.09375 44 33.90625 44 35.40625 43.59375 
C 39 42.703125 41 39.234375 41.09375 35.65625 
C 41.09375 33.375 40.203125 30.390625 39.796875 28.5 
C 39.796875 27.71875 39.5 27.015625 38.59375 27.015625 
L 36.90625 27.015625 
C 34.59375 26.71875 32.40625 26.71875 30.09375 26.421875 
C 24.5 25.625 18.59375 24.203125 13.90625 21.015625 
C 11.703125 19.609375 9.59375 17.703125 8.40625 15.390625 
C 5.90625 10.796875 6.203125 3.046875 11.59375 0.515625 
C 14.40625 -0.484375 16.90625 -0.28125 20.59375 0.21875 
C 26.203125 1.234375 31.40625 3.453125 35.5 7.5 
L 34 0.5 
L 38.59375 0.5 
C 39.59375 0.5 40.5 0.296875 40.5 1.59375 
C 40.703125 2.296875 47.296875 33.203125 47.5 34.8125 
C 47.796875 38.421875 46.703125 42.15625 44.203125 44.875 
C 41.90625 47.203125 38.796875 48.421875 35.59375 48.71875 
C 31.5 49.03125 25.59375 47.8125 22.90625 47 
C 21.703125 46.59375 17.59375 45.1875 16.90625 44.484375 
C 16.5 44.078125 16.296875 40.140625 16 38.8125 
z
M 38.90625 24 
C 38.40625 21.359375 37.796875 18.84375 37.296875 16.21875 
C 36.796875 14.09375 36.40625 12.078125 35.09375 10.359375 
C 31.703125 6.015625 25.59375 4.1875 20.296875 4.796875 
C 17.796875 5.09375 14.90625 6.109375 13.703125 8.53125 
C 11.90625 12.078125 14.703125 16.015625 17.296875 18.125 
C 22.203125 22.171875 30.90625 24 38.90625 24 
z
" id="Computer_Modern_Bright_Slanted-97"/>
     <path d="M 9.796875 47.5 
C 14.09375 39.765625 18.90625 32.546875 23.09375 24.703125 
C 22.703125 23.890625 22.09375 23.296875 21.5 22.6875 
L -0.796875 0 
C 1.5 0 3.90625 0 6.09375 0 
C 12.703125 6.796875 18.90625 14 25.40625 20.875 
C 28 15.65625 30.796875 10.734375 33.40625 5.625 
C 34.296875 3.8125 35.203125 1.890625 36.40625 0.296875 
C 38.5 0 40.90625 0 43.296875 0 
C 42.203125 2.109375 35.09375 13.984375 32.796875 17.90625 
L 30.09375 22.53125 
C 29.796875 23.046875 29.09375 23.84375 29.09375 24.453125 
C 29.203125 25.0625 30.203125 25.75 30.59375 26.15625 
L 34.796875 30.484375 
C 36.59375 32.3125 50.59375 46.28125 51.5 47.5 
C 49.203125 47.5 46.90625 47.5 44.703125 47.5 
C 38.59375 41.65625 33 35.296875 27.09375 29.25 
C 23.59375 35.296875 20.5 41.765625 16.703125 47.5 
C 14.5 47.5 12.09375 47.5 9.796875 47.5 
z
" id="Computer_Modern_Bright_Slanted-120"/>
     <path d="M 5.90625 26.0625 
L 4.90625 21 
L 32.796875 21 
L 33.796875 26.0625 
z
" id="Computer_Modern_Bright_Slanted-45"/>
     <path d="M 37.90625 12.09375 
L 38 12.09375 
C 37.703125 10.1875 37.203125 8.265625 36.796875 6.34375 
C 36.203125 3.3125 35.703125 0.171875 34.703125 -2.65625 
C 33.5 -5.984375 31.203125 -9.109375 28.296875 -11.140625 
C 25.90625 -12.75 23.796875 -13.265625 19.90625 -12.953125 
C 15.09375 -12.953125 11.59375 -12.03125 7.796875 -10.265625 
C 6.703125 -9.75 5.796875 -9.125 4.703125 -8.609375 
L 3.5 -14.171875 
C 8.09375 -16.25 12.203125 -18 18.40625 -18 
C 19.796875 -18.109375 21.203125 -18.203125 22.59375 -18.109375 
C 31.703125 -17.203125 38.5 -10.21875 41.09375 -2.828125 
C 41.796875 -1 42.09375 1.015625 42.5 2.953125 
L 44.203125 11.03125 
C 44.796875 13.78125 51.90625 47.390625 52 48.5 
L 45.703125 48.5 
L 44.09375 40.265625 
C 43.703125 40.984375 43.5 41.78125 43.203125 42.5 
C 42.5 43.90625 41.5 45.21875 40.296875 46.234375 
C 34.40625 51.1875 25 46.640625 21 43.5 
C 15.09375 38.953125 11 32.296875 9.203125 25.125 
C 6.90625 16.234375 9.5 8.0625 14.90625 4.328125 
C 18.796875 1.59375 24.796875 0.78125 30 3.71875 
C 32.90625 5.4375 36.40625 8.96875 37.90625 12.09375 
z
M 34.59375 43.5 
C 40.296875 43.5 42.703125 39.546875 42.703125 33.890625 
C 42.59375 33.1875 42.40625 32.375 42.296875 31.671875 
C 40.703125 24.59375 39.40625 17.53125 35.59375 12.0625 
C 33.703125 9.34375 30.90625 7.125 27.5 6.8125 
C 25 6.609375 22.40625 7.515625 20.796875 8.328125 
C 15.90625 11.15625 14.296875 17.21875 15.09375 22.578125 
C 16 28.9375 19.5 35.03125 24.5 39.0625 
C 27.40625 41.4375 30.90625 43.203125 34.59375 43.5 
z
M 38 12.21875 
C 38 12.21875 38.09375 12.21875 38.09375 12.21875 
C 38.09375 12.125 38 12.015625 38 12.21875 
z
" id="Computer_Modern_Bright_Slanted-103"/>
     <path d="M 19.90625 35.53125 
L 19.796875 35.53125 
L 22.40625 48.15625 
L 16.40625 48.15625 
L 6.40625 0.5 
L 10.90625 0.5 
C 11.40625 0.5 12.203125 0.296875 12.59375 0.703125 
C 12.90625 0.90625 13.5 4.4375 13.796875 5.65625 
L 16.703125 19.578125 
C 17.5 23.109375 18 26.859375 19.59375 30.1875 
C 23.40625 37.84375 31.90625 43 40.40625 43 
L 41.5 48.765625 
C 34.90625 48.765625 28.59375 45.421875 24 40.78125 
C 22.5 39.265625 20.90625 37.453125 19.90625 35.53125 
z
M 19.703125 34.953125 
C 19.703125 34.953125 19.796875 34.953125 19.796875 34.953125 
C 19.796875 34.859375 19.703125 34.75 19.703125 34.953125 
z
" id="Computer_Modern_Bright_Slanted-114"/>
    </defs>
    <g style="fill:#262626;" transform="translate(675.073507 26.355653)scale(0.14 -0.14)">
     <use transform="translate(0 14.943915)scale(0.996264)" xlink:href="#Computer_Modern_Bright-115"/>
     <use transform="translate(38.439029 14.943915)scale(0.996264)" xlink:href="#Computer_Modern_Bright-116"/>
     <use transform="translate(74.553417 14.943915)scale(0.996264)" xlink:href="#Computer_Modern_Bright-100"/>
     <use transform="translate(122.705914 14.943915)scale(0.996264)" xlink:href="#Computer_Modern_Bright-46"/>
     <use transform="translate(192.610155 14.943915)scale(0.996264)" xlink:href="#Computer_Modern_Bright_Math_Slanted-79"/>
     <use transform="translate(267.814893 0)scale(0.697382)" xlink:href="#Computer_Modern_Bright-50"/>
     <use transform="translate(303.76311 14.943915)scale(0.996264)" xlink:href="#Computer_Modern_Bright-44"/>
     <use transform="translate(362.625445 14.943915)scale(0.996264)" xlink:href="#Computer_Modern_Bright-111"/>
     <use transform="translate(413.268663 14.943915)scale(0.996264)" xlink:href="#Computer_Modern_Bright-110"/>
     <use transform="translate(461.42116 14.943915)scale(0.996264)" xlink:href="#Computer_Modern_Bright-108"/>
     <use transform="translate(480.516119 14.943915)scale(0.996264)" xlink:href="#Computer_Modern_Bright-121"/>
     <use transform="translate(554.322368 14.943915)scale(0.996264)" xlink:href="#Computer_Modern_Bright_Slanted-109"/>
     <use transform="translate(631.532495 14.943915)scale(0.996264)" xlink:href="#Computer_Modern_Bright_Slanted-97"/>
     <use transform="translate(678.024577 14.943915)scale(0.996264)" xlink:href="#Computer_Modern_Bright_Slanted-120"/>
     <use transform="translate(720.365615 14.943915)scale(0.996264)" xlink:href="#Computer_Modern_Bright_Slanted-45"/>
     <use transform="translate(753.574289 14.943915)scale(0.996264)" xlink:href="#Computer_Modern_Bright_Slanted-103"/>
     <use transform="translate(801.726786 14.943915)scale(0.996264)" xlink:href="#Computer_Modern_Bright_Slanted-114"/>
    </g>
   </g>
  </g>
 </g>
 <defs>
  <clipPath id="pe2be0d0a36">
   <rect height="206.080272" width="224.126065" x="55.309057" y="32.355653"/>
  </clipPath>
  <clipPath id="p2ebaa59ce2">
   <rect height="206.080272" width="224.126065" x="340.031496" y="32.355653"/>
  </clipPath>
  <clipPath id="p978aab4acf">
   <rect height="206.080272" width="224.126065" x="624.753935" y="32.355653"/>
  </clipPath>
 </defs>
</svg>
