<?xml version="1.0" encoding="utf-8" standalone="no"?>
<!DOCTYPE svg PUBLIC "-//W3C//DTD SVG 1.1//EN"
  "http://www.w3.org/Graphics/SVG/1.1/DTD/svg11.dtd">
<!-- Created with matplotlib (http://matplotlib.org/) -->
<svg height="288pt" version="1.1" viewBox="0 0 576 288" width="576pt" xmlns="http://www.w3.org/2000/svg" xmlns:xlink="http://www.w3.org/1999/xlink">
 <defs>
  <style type="text/css">
*{stroke-linecap:butt;stroke-linejoin:round;}
  </style>
 </defs>
 <g id="figure_1">
  <g id="patch_1">
   <path d="M 0 288 
L 576 288 
L 576 0 
L 0 0 
z
" style="fill:#ffffff;"/>
  </g>
  <g id="axes_1">
   <g id="patch_2">
    <path d="M 55.559719 238.435925 
L 292.401948 238.435925 
L 292.401948 32.355653 
L 55.559719 32.355653 
z
" style="fill:#ffffff;"/>
   </g>
   <g id="matplotlib.axis_1">
    <g id="xtick_1">
     <g id="line2d_1"/>
     <g id="text_1">
      <!-- $0.0$ -->
      <defs>
       <path d="M 14.796875 63.859375 
C 11.90625 61.859375 9.90625 59.140625 8.40625 56.03125 
C 4.796875 49 4.40625 40.765625 4.40625 31.828125 
C 4.40625 20.578125 6.40625 10.25 12 4.3125 
C 17.296875 -1.203125 25.703125 -2.609375 32.796875 0.296875 
C 37.203125 2.015625 40.40625 5.71875 42.40625 9.734375 
C 46 16.875 46.40625 25.40625 46.40625 34.234375 
C 46.40625 37.046875 46.296875 39.859375 46 42.671875 
C 45.296875 49.40625 43 56.828125 39.296875 60.953125 
C 33.203125 67.6875 22.296875 69.1875 14.796875 63.859375 
z
M 34.90625 58.140625 
C 39.59375 53.125 40 43.484375 40 34.34375 
L 40 28.921875 
C 40 24.296875 39.203125 18.28125 38.203125 14.859375 
C 36.796875 10.140625 34.5 6.734375 29.90625 4.625 
C 24.296875 2.609375 18.5 4.515625 15.296875 8.9375 
C 11 14.65625 10.796875 24.796875 10.796875 33.734375 
C 10.796875 42.171875 10.90625 51.515625 15 57.03125 
C 19.5 63.0625 29.203125 64.0625 34.90625 58.140625 
z
" id="Computer_Modern_Bright-48"/>
       <path d="M 10.703125 7.8125 
L 10.703125 0 
L 18.5 0 
L 18.5 7.8125 
z
" id="Computer_Modern_Bright_Math_Slanted-58"/>
      </defs>
      <g style="fill:#262626;" transform="translate(47.539867 252.33812)scale(0.12 -0.12)">
       <use transform="scale(0.996264)" xlink:href="#Computer_Modern_Bright-48"/>
       <use transform="translate(50.643218 0)scale(0.996264)" xlink:href="#Computer_Modern_Bright_Math_Slanted-58"/>
       <use transform="translate(79.700665 0)scale(0.996264)" xlink:href="#Computer_Modern_Bright-48"/>
      </g>
     </g>
    </g>
    <g id="xtick_2">
     <g id="line2d_2"/>
     <g id="text_2">
      <!-- $0.2$ -->
      <defs>
       <path d="M 7.296875 45.96875 
C 8.703125 51.59375 11.09375 57.984375 16.796875 60.5 
C 19.203125 61.5 21.796875 61.703125 24.40625 61.5 
C 29.296875 61.09375 34.09375 59.09375 37.09375 55.09375 
C 39.296875 52.078125 40.09375 48.375 39.703125 44.78125 
C 38.5 34.34375 28.296875 26.84375 21.703125 21.234375 
C 17.90625 18.03125 7.09375 7.8125 7.09375 7.8125 
L 5.40625 6.203125 
C 4.5 5.3125 4.40625 5.3125 4.40625 3.5 
L 4.40625 0 
L 46.40625 0 
L 46.40625 5.625 
L 10.203125 5.625 
C 13.40625 8.734375 26.703125 20.515625 28.5 21.921875 
C 34.296875 26.65625 40.796875 31.375 44.296875 38.21875 
C 48.203125 46.0625 46.5 55.9375 39.90625 61.765625 
C 35.90625 65.296875 30.40625 67 25.09375 67 
C 20.203125 67 15.203125 66 11.296875 62.90625 
C 8.296875 60.390625 5.796875 56.6875 4.40625 52.875 
C 4.09375 52.28125 3.59375 51.28125 3.703125 50.578125 
C 3.796875 49.984375 4.40625 49.484375 4.703125 49.078125 
C 5.5 48.078125 6.296875 46.875 7.296875 45.96875 
z
" id="Computer_Modern_Bright-50"/>
      </defs>
      <g style="fill:#262626;" transform="translate(103.930874 252.33812)scale(0.12 -0.12)">
       <use transform="scale(0.996264)" xlink:href="#Computer_Modern_Bright-48"/>
       <use transform="translate(50.643218 0)scale(0.996264)" xlink:href="#Computer_Modern_Bright_Math_Slanted-58"/>
       <use transform="translate(79.700665 0)scale(0.996264)" xlink:href="#Computer_Modern_Bright-50"/>
      </g>
     </g>
    </g>
    <g id="xtick_3">
     <g id="line2d_3"/>
     <g id="text_3">
      <!-- $0.4$ -->
      <defs>
       <path d="M 2.09375 18 
L 31 18 
L 31 0 
L 37.296875 0 
L 37.296875 18 
L 48.703125 18 
L 48.703125 23.328125 
L 37.296875 23.328125 
L 37.296875 66.46875 
L 31.90625 66.46875 
C 30.09375 66.46875 29.59375 66.578125 28.796875 65.0625 
C 24.796875 58.515625 3.703125 25.765625 3 24.859375 
C 2.203125 23.4375 2.09375 23.546875 2.09375 21.4375 
z
M 31.296875 60.875 
L 31.296875 23.328125 
L 8.59375 23.328125 
C 9.296875 24.734375 10.296875 26.03125 11.203125 27.4375 
C 16.203125 35.171875 28.09375 53.546875 30.59375 59.28125 
C 30.90625 59.78125 31 60.375 31.296875 60.875 
z
" id="Computer_Modern_Bright-52"/>
      </defs>
      <g style="fill:#262626;" transform="translate(160.321881 252.33812)scale(0.12 -0.12)">
       <use transform="scale(0.996264)" xlink:href="#Computer_Modern_Bright-48"/>
       <use transform="translate(50.643218 0)scale(0.996264)" xlink:href="#Computer_Modern_Bright_Math_Slanted-58"/>
       <use transform="translate(79.700665 0)scale(0.996264)" xlink:href="#Computer_Modern_Bright-52"/>
      </g>
     </g>
    </g>
    <g id="xtick_4">
     <g id="line2d_4"/>
     <g id="text_4">
      <!-- $0.6$ -->
      <defs>
       <path d="M 11.296875 32.625 
L 11.203125 32.625 
C 11.203125 41.765625 12.796875 52.421875 20.59375 58.25 
C 24.90625 61.375 30.703125 62.96875 38.203125 61.171875 
C 39.796875 60.765625 41.296875 60.15625 42.796875 59.765625 
L 42.796875 63.28125 
C 42.796875 63.671875 42.90625 64.375 42.59375 64.78125 
C 41.90625 65.6875 36.296875 66.59375 36.09375 66.59375 
C 27.40625 67.59375 21.703125 65.6875 16.40625 61.171875 
C 10 55.640625 6.296875 47.515625 5.09375 39.28125 
C 4 32.65625 4.90625 22 6.203125 16.78125 
C 8.296875 9.046875 12.296875 2.21875 19.703125 -0.390625 
C 24.09375 -2 29.5 -2 33.703125 0.015625 
C 37.09375 1.640625 39.90625 4.46875 42.09375 7.5 
C 45.59375 12.34375 46.5 18.21875 46.09375 24.171875 
C 45.90625 27.109375 45.5 30.046875 44.296875 32.765625 
C 42.40625 37.125 39.203125 41.671875 35.09375 43.6875 
C 33.203125 44.5 31.203125 44.5 29.203125 44.5 
C 23.90625 44.5 18.90625 42.1875 15.203125 38.359375 
C 13.59375 36.75 12 34.71875 11.296875 32.625 
z
M 24.40625 39.515625 
C 28.203125 39.8125 32.203125 39.21875 35.09375 36.5 
C 38.90625 32.890625 39.59375 27.765625 39.59375 22.8125 
C 39.59375 19.46875 39.703125 16.015625 38.703125 12.859375 
C 38.09375 11.234375 37.296875 9.828125 36.40625 8.5 
C 34.203125 5.5625 31.40625 4.125 26.796875 3.515625 
C 22.296875 3.515625 17.796875 5.3125 15.203125 9.125 
C 13.59375 11.328125 12.796875 14.046875 12.296875 16.640625 
C 11.703125 19.34375 11.296875 22.140625 11.5 24.859375 
C 12 31.984375 17 38.515625 24.40625 39.515625 
z
" id="Computer_Modern_Bright-54"/>
      </defs>
      <g style="fill:#262626;" transform="translate(216.712888 252.33812)scale(0.12 -0.12)">
       <use transform="scale(0.996264)" xlink:href="#Computer_Modern_Bright-48"/>
       <use transform="translate(50.643218 0)scale(0.996264)" xlink:href="#Computer_Modern_Bright_Math_Slanted-58"/>
       <use transform="translate(79.700665 0)scale(0.996264)" xlink:href="#Computer_Modern_Bright-54"/>
      </g>
     </g>
    </g>
    <g id="xtick_5">
     <g id="line2d_5"/>
     <g id="text_5">
      <!-- $0.8$ -->
      <defs>
       <path d="M 18.703125 36 
L 18.703125 35.90625 
C 12.5 34.09375 7.296875 30.6875 4.796875 24.84375 
C 2.203125 18.71875 4 11.28125 8.40625 6.453125 
C 13.09375 1.421875 19.5 -1 26.296875 -1 
C 36.296875 -1 45.90625 6.40625 47.09375 16.734375 
C 47.296875 18.265625 47.203125 19.890625 47 21.40625 
C 45.203125 29.21875 39.5 33.875 32.09375 35.90625 
C 32.90625 36.203125 33.796875 36.40625 34.59375 36.703125 
C 38.796875 38.421875 42.296875 40.921875 44.5 44.9375 
C 47.796875 51.375 44.59375 58.90625 39.203125 63.015625 
C 33.796875 67.140625 26.5 68.234375 19.90625 66.828125 
C 12 65.125 4.5 58.40625 5 49.765625 
C 5.203125 46.75 6.5 44.234375 8 42.4375 
C 10.296875 39.625 14.796875 36.609375 18.703125 36 
z
M 23.796875 62.5 
C 28.203125 62.5 33.703125 62 36.90625 58.578125 
C 40.703125 54.46875 40.90625 47.03125 37.09375 42.8125 
C 34.703125 40.203125 31.203125 38.890625 27.703125 38.59375 
C 22.796875 38.1875 17.203125 39 13.703125 42.8125 
C 9.796875 47.125 10.09375 54.96875 14.296875 58.984375 
C 16.90625 61.390625 20.40625 62.1875 23.796875 62.5 
z
M 23.703125 33.5 
C 28.40625 33.5 33.5 32.390625 36.90625 28.9375 
C 38.203125 27.53125 39.203125 25.8125 39.796875 24.015625 
C 41.5 18.75 40.703125 12.09375 36.796875 8.046875 
C 34.09375 5.328125 30.40625 4.3125 26.703125 4.015625 
C 22.203125 4.015625 17 5.109375 13.796875 8.5625 
C 9.40625 13.390625 8.5 23.40625 13.703125 29.0625 
C 16.296875 31.78125 20 33.203125 23.703125 33.5 
z
" id="Computer_Modern_Bright-56"/>
      </defs>
      <g style="fill:#262626;" transform="translate(273.103895 252.33812)scale(0.12 -0.12)">
       <use transform="scale(0.996264)" xlink:href="#Computer_Modern_Bright-48"/>
       <use transform="translate(50.643218 0)scale(0.996264)" xlink:href="#Computer_Modern_Bright_Math_Slanted-58"/>
       <use transform="translate(79.700665 0)scale(0.996264)" xlink:href="#Computer_Modern_Bright-56"/>
      </g>
     </g>
    </g>
    <g id="text_6">
     <!-- growth rate [h$^{-1}$] -->
     <defs>
      <path d="M 35.40625 11.984375 
L 35.5 11.984375 
L 35.5 2.65625 
C 35.5 -0.15625 35.5 -2.859375 34.59375 -5.5625 
C 33.09375 -9.1875 30.5 -12.5 26.203125 -13.09375 
C 25 -13.203125 23.703125 -13.09375 22.5 -13 
C 16 -13 11.703125 -11.046875 6.5 -8.671875 
L 6.5 -12.484375 
C 6.5 -14.40625 6.796875 -14.5 8.703125 -15.109375 
C 13.796875 -17.21875 23 -19.3125 29.296875 -17.71875 
C 36.296875 -15.90625 41.40625 -9.28125 41.90625 -1.21875 
C 42 0.1875 41.90625 1.703125 41.90625 3.125 
L 41.90625 48 
L 35.59375 48 
L 35.59375 39.984375 
C 34.09375 42.484375 32.5 44.796875 29.90625 46.40625 
C 22.90625 50.625 13.40625 46 9.5 40.578125 
C 3.09375 32.640625 1.90625 20.34375 7 11.484375 
C 8 9.78125 9.203125 8.171875 10.59375 6.765625 
C 15.40625 2.046875 23.59375 -0.46875 29.5 3.75 
C 31.90625 5.359375 34.703125 9.078125 35.40625 11.984375 
z
M 25.5 43 
C 26.40625 43 27.40625 43 28.296875 42.796875 
C 31.90625 42.09375 33.90625 38.875 35.09375 35.65625 
C 35.796875 33.453125 35.59375 31.046875 35.59375 28.734375 
C 35.59375 23.71875 35.5 18.5 33.796875 13.765625 
C 32.59375 10.265625 30.09375 7.140625 26.203125 6.75 
C 24.90625 6.640625 23.59375 6.84375 22.296875 7.140625 
C 16.203125 8.546875 12 13.765625 10.703125 19.796875 
C 8.90625 28.53125 13.203125 39.171875 22 42.1875 
C 23.09375 42.59375 24.296875 42.890625 25.5 43 
z
" id="Computer_Modern_Bright-103"/>
      <path d="M 12.5 34.75 
L 12.40625 34.75 
L 12.40625 47.390625 
L 6.40625 47.390625 
L 6.40625 0 
L 12.703125 0 
L 12.703125 22.890625 
C 12.703125 24.40625 12.703125 25.90625 12.90625 27.40625 
C 14.296875 35.953125 21.703125 42.28125 31.40625 42.28125 
L 31.40625 48 
C 25 48 19.09375 44.890625 15.296875 39.765625 
C 14.203125 38.265625 13 36.546875 12.5 34.75 
z
" id="Computer_Modern_Bright-114"/>
      <path d="M 10.703125 42.078125 
C 1.796875 33.234375 0.796875 17.875 8.5 7.9375 
C 9.59375 6.421875 10.90625 5.125 12.40625 4.015625 
C 16.09375 1 21.5 -1.203125 27.796875 -0.5 
C 37.796875 0.703125 44.703125 8.84375 46.796875 17.375 
C 49.59375 29.328125 43.703125 42.671875 32.703125 46.890625 
C 24.09375 50.40625 15.5 46.890625 10.703125 42.078125 
z
M 35.703125 39.359375 
C 40.5 35.03125 41.40625 28.109375 41 21.984375 
C 40.703125 17.265625 39.40625 12.34375 36.09375 8.828125 
C 30.703125 3 20.703125 3 14.90625 8.625 
C 11.90625 11.84375 10.09375 16.453125 9.796875 21.984375 
C 9.296875 30.109375 11.296875 38.75 19.296875 41.96875 
C 25.203125 44.578125 32 42.671875 35.703125 39.359375 
z
" id="Computer_Modern_Bright-111"/>
      <path d="M 0.703125 47.5 
C 0.90625 46.203125 14.40625 0.90625 14.40625 0.90625 
C 14.703125 0 15.203125 0 16.5 0 
L 19.59375 0 
C 20.09375 0 20.796875 -0.09375 21.09375 0.296875 
C 21.40625 0.609375 22.296875 3.8125 22.296875 3.8125 
C 25.296875 14.625 30.5 30.96875 32.5 41.09375 
L 32.59375 41.09375 
C 32.59375 39.6875 33.09375 38.28125 33.40625 36.890625 
C 35 29.765625 43.5 1 43.90625 0.296875 
C 44.203125 -0.203125 45 0 45.5 0 
L 49.296875 0 
C 49.796875 0 50.5 -0.09375 50.90625 0.109375 
C 51.203125 0.296875 51.296875 0.703125 51.40625 1 
C 54.40625 11.640625 64.703125 45.203125 65.09375 47.5 
C 63 47.5 60.90625 47.5 59.09375 47.203125 
L 58.703125 46.1875 
C 54.90625 33 50.796875 20.203125 47.40625 6.609375 
L 47.296875 6.609375 
L 46.203125 11.21875 
L 35.703125 47.5 
L 29.796875 47.5 
C 26 33.875 21.59375 20.84375 18.40625 6.609375 
L 16.703125 13.609375 
C 13.40625 24.8125 10.296875 36.203125 6.90625 47.203125 
C 5.09375 47.5 2.796875 47.5 0.703125 47.5 
z
" id="Computer_Modern_Bright-119"/>
      <path d="M 10.796875 60.5 
L 10.796875 47.015625 
L 1.09375 47.015625 
L 1.09375 42 
L 10.703125 42 
L 10.703125 15.015625 
C 10.703125 10.578125 10.40625 5.234375 13.296875 1.515625 
C 15 -0.703125 17.296875 -1.296875 20.796875 -1 
C 23.703125 -1 26.59375 -0.390625 29.296875 0.65625 
C 30.203125 1.0625 33.5 2.515625 33.90625 3.234375 
C 34.09375 3.640625 32.796875 8.09375 32.796875 8.09375 
L 30.40625 6.265625 
C 27.296875 4.34375 21.09375 2.328125 18.5 5.96875 
C 16.203125 9.09375 16.796875 13.75 16.796875 17.375 
L 16.796875 42 
L 32.296875 42 
L 32.296875 47.015625 
L 16.796875 47.015625 
L 16.796875 60.5 
z
" id="Computer_Modern_Bright-116"/>
      <path d="M 6.40625 69.6875 
L 6.40625 0 
L 12.796875 0 
L 12.796875 21.984375 
C 12.796875 26.90625 12.5 31.9375 14.703125 36.546875 
C 15.796875 38.859375 17.5 40.875 19.796875 42.078125 
C 21.703125 42.984375 23.703125 42.984375 25.796875 42.78125 
C 28.796875 42.78125 31.703125 41.984375 33.59375 39.453125 
C 35.40625 37.140625 35.5 34.140625 35.5 31.3125 
L 35.5 0 
L 41.90625 0 
L 41.90625 27.21875 
C 41.90625 32.234375 42.40625 37.75 39.90625 42.28125 
C 37.90625 45.6875 34.40625 47.296875 30.703125 47.796875 
C 28.703125 48 26.703125 48 24.703125 47.703125 
C 21.09375 47.015625 18 45.03125 15.59375 42.34375 
C 14.5 41.046875 13.203125 39.46875 12.796875 37.765625 
L 12.703125 37.765625 
L 12.703125 69.6875 
z
" id="Computer_Modern_Bright-104"/>
      <path d="M 7.90625 39.015625 
C 9.59375 39.859375 11 41.09375 12.703125 41.921875 
C 15.40625 43.15625 18.203125 44 21.203125 44 
C 22.59375 44.09375 24.203125 44.296875 25.59375 44 
C 28.09375 43.59375 30.296875 42.078125 31.796875 39.953125 
C 33.296875 37.515625 33.90625 35.390625 33.90625 31.46875 
L 33.90625 27.015625 
C 29.09375 27.015625 24.296875 26.609375 19.703125 25.390625 
C 13.90625 24.078125 7.59375 21.125 5.5 15.84375 
C 3.40625 10.78125 5.59375 4.078125 10.09375 1.03125 
C 12.296875 -0.5 14.90625 -0.5 17.5 -0.296875 
C 21.703125 0 25.90625 1.015625 29.5 3.25 
C 31.203125 4.25 32.90625 5.578125 33.90625 7.296875 
L 34 7.296875 
L 34 0.203125 
L 40.296875 0.203125 
L 40.296875 26.890625 
C 40.296875 29.8125 40.59375 32.953125 40 35.890625 
C 39.40625 39.921875 36.90625 43.265625 34 45.59375 
C 30.59375 48.21875 26.703125 49.109375 21.5 48.71875 
C 16.703125 48.71875 13 47.5 9.40625 45.765625 
C 8.90625 45.5625 7.90625 45.234375 7.59375 44.640625 
C 7.296875 44.21875 7.5 43.515625 7.5 43 
C 7.703125 41.671875 7.796875 40.34375 7.90625 39.015625 
z
M 33.90625 24 
L 33.90625 16.375 
C 33.90625 14.0625 34 11.953125 32.703125 9.953125 
C 31.59375 8.34375 30.09375 7.234375 28.5 6.4375 
C 22.796875 3.515625 14.09375 4.421875 11.59375 9.25 
C 9.59375 12.75 11.703125 16.875 14.59375 19.1875 
C 18.90625 22.5 27.296875 24 33.90625 24 
z
" id="Computer_Modern_Bright-97"/>
      <path d="M 41.796875 10.9375 
C 39.5 9.234375 38.796875 8.328125 35.90625 6.8125 
C 29.796875 3.5 22.59375 3.5 17.40625 7.171875 
C 12.40625 10.765625 9.5 16.640625 9.5 25 
L 42.5 25 
C 42.5 32.421875 40.796875 38.859375 36.59375 43.375 
C 32 47.890625 24.796875 49.296875 18.703125 47.390625 
C 16.40625 46.6875 14.296875 45.484375 12.40625 43.96875 
C 6.09375 38.859375 3.40625 30.71875 3.5 22.78125 
C 3.703125 12.34375 10.796875 1.90625 21.296875 -0.3125 
C 26.796875 -1.421875 32.59375 -0.203125 37.5 2.296875 
C 38.40625 2.796875 41.703125 4.609375 42.09375 5.515625 
C 42.40625 6.015625 41.796875 10.9375 41.796875 10.9375 
z
M 37.203125 28.90625 
L 10 28.90625 
C 11.203125 36.234375 17.203125 43.96875 25.296875 43.0625 
C 31.90625 42.46875 35.40625 37.75 36.703125 31.828125 
C 36.90625 30.8125 37 29.921875 37.203125 28.90625 
z
" id="Computer_Modern_Bright-101"/>
      <path d="M 10.59375 76 
L 10.59375 -22 
L 26.296875 -22 
L 26.296875 -16.96875 
L 16.703125 -16.96875 
L 16.703125 70.984375 
L 26.296875 70.984375 
L 26.296875 76 
z
" id="Computer_Modern_Bright-91"/>
      <path d="M 9.796875 28.078125 
C 8 27.484375 7.796875 24.78125 9.796875 24.28125 
C 10.296875 24.078125 10.90625 24.1875 11.5 24.1875 
L 64.703125 24.1875 
C 65.90625 24.1875 67.796875 23.78125 68.796875 24.78125 
C 69.90625 25.875 69.296875 27.875 67.703125 28.1875 
C 66.5 28.375 65.09375 28.1875 63.90625 28.1875 
L 11.40625 28.1875 
C 10.90625 28.1875 10.296875 28.28125 9.796875 28.078125 
z
" id="Computer_Modern_Bright_Math_Symbols-0"/>
      <path d="M 9.703125 60.015625 
L 9.703125 55 
C 15.203125 55 19 56 23.40625 57.90625 
L 23.40625 5.015625 
L 10.296875 5.015625 
L 10.296875 0 
L 43 0 
L 43 5.015625 
L 29.90625 5.015625 
L 29.90625 67 
C 27.5 67 27.90625 66.359375 26 64.875 
C 21.90625 61.71875 16.203125 60.015625 9.703125 60.015625 
z
" id="Computer_Modern_Bright-49"/>
      <path d="M 1.5 76 
L 1.5 70.984375 
L 11.09375 70.984375 
L 11.09375 -16.96875 
L 1.5 -16.96875 
L 1.5 -22 
L 17.203125 -22 
L 17.203125 76 
z
" id="Computer_Modern_Bright-93"/>
     </defs>
     <g style="fill:#262626;" transform="translate(122.568482 269.780509)scale(0.14 -0.14)">
      <use transform="scale(0.996264)" xlink:href="#Computer_Modern_Bright-103"/>
      <use transform="translate(48.152497 0)scale(0.996264)" xlink:href="#Computer_Modern_Bright-114"/>
      <use transform="translate(80.115856 0)scale(0.996264)" xlink:href="#Computer_Modern_Bright-111"/>
      <use transform="translate(127.853344 0)scale(0.996264)" xlink:href="#Computer_Modern_Bright-119"/>
      <use transform="translate(193.440385 0)scale(0.996264)" xlink:href="#Computer_Modern_Bright-116"/>
      <use transform="translate(229.554773 0)scale(0.996264)" xlink:href="#Computer_Modern_Bright-104"/>
      <use transform="translate(309.172482 0)scale(0.996264)" xlink:href="#Computer_Modern_Bright-114"/>
      <use transform="translate(341.135841 0)scale(0.996264)" xlink:href="#Computer_Modern_Bright-97"/>
      <use transform="translate(387.627923 0)scale(0.996264)" xlink:href="#Computer_Modern_Bright-116"/>
      <use transform="translate(423.742311 0)scale(0.996264)" xlink:href="#Computer_Modern_Bright-101"/>
      <use transform="translate(500.03919 0)scale(0.996264)" xlink:href="#Computer_Modern_Bright-91"/>
      <use transform="translate(527.713077 0)scale(0.996264)" xlink:href="#Computer_Modern_Bright-104"/>
      <use transform="translate(575.865574 36.153639)scale(0.697382)" xlink:href="#Computer_Modern_Bright_Math_Symbols-0"/>
      <use transform="translate(630.106568 36.153639)scale(0.697382)" xlink:href="#Computer_Modern_Bright-49"/>
      <use transform="translate(666.054785 0)scale(0.996264)" xlink:href="#Computer_Modern_Bright-93"/>
     </g>
    </g>
   </g>
   <g id="matplotlib.axis_2">
    <g id="ytick_1">
     <g id="line2d_6"/>
     <g id="text_7">
      <!-- $0$ -->
      <g style="fill:#262626;" transform="translate(43.683314 242.587022)scale(0.12 -0.12)">
       <use transform="scale(0.996264)" xlink:href="#Computer_Modern_Bright-48"/>
      </g>
     </g>
    </g>
    <g id="ytick_2">
     <g id="line2d_7"/>
     <g id="text_8">
      <!-- $50$ -->
      <defs>
       <path d="M 8.40625 66.328125 
L 8.40625 30.453125 
L 12.203125 30.453125 
C 12.703125 30.453125 13.40625 30.359375 13.796875 30.5625 
C 14.296875 30.859375 14.59375 31.5625 14.90625 31.96875 
C 15.59375 32.859375 16.40625 33.5625 17.203125 34.265625 
C 20.796875 37.28125 27.703125 38.484375 32.296875 36.171875 
C 38.59375 33.171875 39.796875 25.21875 39.296875 19 
C 39 15.0625 37.796875 11.453125 35.5 9.140625 
C 30.203125 3.5 21.296875 3.5 14.796875 6.796875 
C 11.59375 8.40625 8.90625 10.921875 6.90625 13.921875 
L 6.796875 13.921875 
C 6.5 13.421875 4.203125 9.90625 4.203125 9.296875 
C 4.203125 8.890625 4.5 8.59375 4.703125 8.296875 
C 7.703125 4.78125 11.59375 2.0625 16.09375 0.5625 
C 25 -2.25 35 -0.046875 41.296875 7.1875 
C 48.796875 15.921875 47.796875 30.15625 39.09375 37.765625 
C 36.5 40.1875 32.90625 41.890625 28.59375 42.28125 
C 22.796875 43.09375 17.59375 40.28125 14.5 37.671875 
L 14.5 61 
L 42.90625 61 
L 42.90625 66.328125 
z
" id="Computer_Modern_Bright-53"/>
      </defs>
      <g style="fill:#262626;" transform="translate(37.406908 212.205145)scale(0.12 -0.12)">
       <use transform="scale(0.996264)" xlink:href="#Computer_Modern_Bright-53"/>
       <use transform="translate(50.643218 0)scale(0.996264)" xlink:href="#Computer_Modern_Bright-48"/>
      </g>
     </g>
    </g>
    <g id="ytick_3">
     <g id="line2d_8"/>
     <g id="text_9">
      <!-- $100$ -->
      <g style="fill:#262626;" transform="translate(31.130503 181.823268)scale(0.12 -0.12)">
       <use transform="scale(0.996264)" xlink:href="#Computer_Modern_Bright-49"/>
       <use transform="translate(50.643218 0)scale(0.996264)" xlink:href="#Computer_Modern_Bright-48"/>
       <use transform="translate(101.286436 0)scale(0.996264)" xlink:href="#Computer_Modern_Bright-48"/>
      </g>
     </g>
    </g>
    <g id="ytick_4">
     <g id="line2d_9"/>
     <g id="text_10">
      <!-- $150$ -->
      <g style="fill:#262626;" transform="translate(31.130503 151.441391)scale(0.12 -0.12)">
       <use transform="scale(0.996264)" xlink:href="#Computer_Modern_Bright-49"/>
       <use transform="translate(50.643218 0)scale(0.996264)" xlink:href="#Computer_Modern_Bright-53"/>
       <use transform="translate(101.286436 0)scale(0.996264)" xlink:href="#Computer_Modern_Bright-48"/>
      </g>
     </g>
    </g>
    <g id="ytick_5">
     <g id="line2d_10"/>
     <g id="text_11">
      <!-- $200$ -->
      <g style="fill:#262626;" transform="translate(31.130503 121.059514)scale(0.12 -0.12)">
       <use transform="scale(0.996264)" xlink:href="#Computer_Modern_Bright-50"/>
       <use transform="translate(50.643218 0)scale(0.996264)" xlink:href="#Computer_Modern_Bright-48"/>
       <use transform="translate(101.286436 0)scale(0.996264)" xlink:href="#Computer_Modern_Bright-48"/>
      </g>
     </g>
    </g>
    <g id="ytick_6">
     <g id="line2d_11"/>
     <g id="text_12">
      <!-- $250$ -->
      <g style="fill:#262626;" transform="translate(31.130503 90.677637)scale(0.12 -0.12)">
       <use transform="scale(0.996264)" xlink:href="#Computer_Modern_Bright-50"/>
       <use transform="translate(50.643218 0)scale(0.996264)" xlink:href="#Computer_Modern_Bright-53"/>
       <use transform="translate(101.286436 0)scale(0.996264)" xlink:href="#Computer_Modern_Bright-48"/>
      </g>
     </g>
    </g>
    <g id="ytick_7">
     <g id="line2d_12"/>
     <g id="text_13">
      <!-- $300$ -->
      <defs>
       <path d="M 8.09375 50.71875 
C 8.90625 51.921875 9.5 53.234375 10.40625 54.4375 
C 12.5 57.25 15.40625 59.453125 18.703125 60.765625 
C 23.90625 62.875 31.5 62.875 35.59375 58.21875 
C 39.203125 54.078125 37.703125 47.609375 34.40625 43.78125 
C 31.40625 40.25 27.5 38.53125 21.703125 38.53125 
C 20 38.53125 18.40625 38.03125 16.703125 38.03125 
L 16.703125 33 
L 23.59375 33 
C 29.40625 33 33.203125 32.109375 36.40625 28.6875 
C 41.90625 22.859375 41.40625 12.515625 35.296875 7.203125 
C 32.203125 4.59375 27.90625 3.78125 23.90625 4.078125 
C 16.09375 4.6875 9.203125 8.8125 4.59375 15.234375 
C 4.09375 14.234375 4.09375 12.828125 3.90625 11.71875 
C 3.59375 10.109375 3.59375 10.109375 4.59375 8.8125 
C 7.5 4.890625 13.203125 1.28125 17.703125 -0.03125 
C 25.703125 -2.4375 35 -1.34375 41.203125 4.78125 
C 42.40625 6 43.5 7.296875 44.40625 8.703125 
C 48.09375 14.53125 48.203125 22.15625 44.09375 27.78125 
C 42.40625 30.09375 40.203125 31.90625 37.703125 33.3125 
C 36 34.3125 34 35.3125 32 35.515625 
C 37.796875 38.234375 43.203125 42.828125 44.203125 50.359375 
C 45.09375 57.375 41 61.6875 36.796875 64.1875 
C 30.296875 68 21.796875 68 15.09375 64.671875 
C 12 63.171875 9.203125 60.96875 7.09375 58.25 
C 6.703125 57.75 5.203125 56.046875 5.203125 55.234375 
C 5.203125 54.734375 5.59375 54.234375 5.90625 53.828125 
z
" id="Computer_Modern_Bright-51"/>
      </defs>
      <g style="fill:#262626;" transform="translate(31.130503 60.29576)scale(0.12 -0.12)">
       <use transform="scale(0.996264)" xlink:href="#Computer_Modern_Bright-51"/>
       <use transform="translate(50.643218 0)scale(0.996264)" xlink:href="#Computer_Modern_Bright-48"/>
       <use transform="translate(101.286436 0)scale(0.996264)" xlink:href="#Computer_Modern_Bright-48"/>
      </g>
     </g>
    </g>
    <g id="text_14">
     <!-- no. of EFMs -->
     <defs>
      <path d="M 12.59375 37.28125 
L 12.5 37.28125 
L 12.5 47.390625 
L 6.40625 47.390625 
L 6.40625 0 
L 12.796875 0 
L 12.796875 21.9375 
C 12.796875 26.84375 12.5 31.875 14.703125 36.46875 
C 15.796875 38.78125 17.5 40.78125 19.796875 41.984375 
C 21.703125 42.890625 23.703125 42.890625 25.796875 42.6875 
C 28.796875 42.6875 31.703125 41.890625 33.59375 39.375 
C 35.40625 37.0625 35.5 34.0625 35.5 31.25 
L 35.5 0 
L 41.90625 0 
L 41.90625 26.859375 
C 41.90625 31.875 42.40625 37.375 40 41.890625 
C 38.09375 45.5 34.40625 47.203125 30.5 47.703125 
C 28.5 48 26.40625 48 24.40625 47.609375 
C 19.203125 46.5 14.40625 42.296875 12.59375 37.28125 
z
" id="Computer_Modern_Bright-110"/>
      <path d="M 9.90625 7.828125 
L 9.90625 0 
L 17.703125 0 
L 17.703125 7.828125 
z
" id="Computer_Modern_Bright-46"/>
      <path d="M 10.59375 47.015625 
L 2 47.015625 
L 2 42 
L 10.59375 42 
L 10.59375 -0.5 
L 16.90625 -0.5 
L 16.90625 42 
L 29.296875 42 
L 29.296875 47.015625 
L 16.796875 47.015625 
L 16.796875 55.78125 
C 16.796875 57.1875 16.5 58.921875 17.09375 60.328125 
C 19.203125 64.75 26.296875 65.5625 32.09375 64.5625 
C 33.296875 64.359375 34.40625 63.953125 35.59375 63.75 
L 35.59375 69.390625 
C 28.796875 70.5 21.296875 70.5 15.703125 65.921875 
C 14.796875 65.125 14 64.34375 13.296875 63.328125 
C 11.203125 60.75 10.59375 57.875 10.59375 53.390625 
z
" id="Computer_Modern_Bright-102"/>
      <path d="M 8 69.328125 
L 8 0 
L 55.40625 0 
L 55.40625 5.625 
L 15 5.625 
L 15 33.671875 
L 51.09375 33.671875 
L 51.09375 39 
L 15 39 
L 15 64 
L 54 64 
L 54 69.328125 
z
" id="Computer_Modern_Bright-69"/>
      <path d="M 8 69.328125 
L 8 0 
L 15 0 
L 15 32 
L 48.09375 32 
L 48.09375 37.3125 
L 15 37.3125 
L 15 64 
L 52.40625 64 
L 52.40625 69.328125 
z
" id="Computer_Modern_Bright-70"/>
      <path d="M 8.40625 69.59375 
L 8.40625 0 
L 14.59375 0 
L 14.59375 63.265625 
L 14.703125 63.265625 
C 15.09375 61.5625 16.5 58.140625 16.90625 57.03125 
L 21.296875 45.984375 
C 25.59375 35.453125 38.5 4.109375 39.09375 2.515625 
C 39.40625 1.40625 39.90625 1.203125 41.203125 1.203125 
L 43.90625 1.203125 
C 44.296875 1.203125 44.796875 1.109375 45.296875 1.203125 
C 45.796875 1.3125 45.90625 1.8125 46.09375 2.203125 
C 46.40625 3.109375 46.796875 3.921875 47.203125 4.8125 
C 51.796875 16.0625 70 60.546875 70.703125 63.265625 
L 70.796875 63.265625 
L 70.796875 0 
L 77 0 
L 77 69.59375 
C 74 69.59375 70.40625 70.09375 67.796875 69.59375 
L 67.09375 68.09375 
C 58.90625 47.984375 50.5 28.140625 42.703125 7.625 
C 41 12.171875 39.203125 16.578125 37.40625 21.015625 
C 30.703125 37.09375 24.5 53.703125 17.5 69.59375 
C 15 70.203125 11.296875 69.59375 8.40625 69.59375 
z
" id="Computer_Modern_Bright-77"/>
      <path d="M 3.09375 9.640625 
C 2.90625 8.234375 2.59375 6.9375 2.40625 5.53125 
C 2.203125 4.421875 1.90625 3.921875 2.90625 3.421875 
C 7 1.015625 11.90625 -0.296875 17.703125 -0.796875 
C 24.203125 -1.40625 32.40625 0.109375 35.59375 6.53125 
C 36.5 8.34375 37 10.34375 37.09375 12.359375 
C 37.5 19.578125 31.796875 24.203125 26.90625 25.90625 
C 21.40625 28.015625 13.90625 27.3125 10.09375 31.53125 
C 8.09375 33.84375 8 37.265625 9.90625 39.671875 
C 13.90625 45.296875 26.796875 42.875 31.90625 40.375 
C 32.703125 39.96875 33.40625 39.46875 34.296875 39.265625 
L 35.203125 44.6875 
C 30.5 46.796875 26.40625 48 19.90625 48 
C 14.296875 48 9.203125 46.703125 6 43.484375 
C 2.796875 40.171875 1.703125 34.640625 3.59375 30.4375 
C 5.40625 26.40625 9.203125 23.796875 13.296875 22.5 
C 19.203125 20.390625 25.90625 21.390625 29.796875 16.578125 
C 32 13.765625 31.59375 9.546875 29.09375 7.03125 
C 24.296875 2.609375 14.09375 4.21875 8.5 6.625 
C 6.59375 7.4375 4.90625 8.640625 3.09375 9.640625 
z
" id="Computer_Modern_Bright-115"/>
     </defs>
     <g style="fill:#262626;" transform="translate(24.805892 173.484257)rotate(-90)scale(0.14 -0.14)">
      <use transform="scale(0.996264)" xlink:href="#Computer_Modern_Bright-110"/>
      <use transform="translate(48.152497 0)scale(0.996264)" xlink:href="#Computer_Modern_Bright-111"/>
      <use transform="translate(98.795715 0)scale(0.996264)" xlink:href="#Computer_Modern_Bright-46"/>
      <use transform="translate(168.699956 0)scale(0.996264)" xlink:href="#Computer_Modern_Bright-111"/>
      <use transform="translate(219.343174 0)scale(0.996264)" xlink:href="#Computer_Modern_Bright-102"/>
      <use transform="translate(281.111329 0)scale(0.996264)" xlink:href="#Computer_Modern_Bright-69"/>
      <use transform="translate(339.849116 0)scale(0.996264)" xlink:href="#Computer_Modern_Bright-70"/>
      <use transform="translate(395.681174 0)scale(0.996264)" xlink:href="#Computer_Modern_Bright-77"/>
      <use transform="translate(480.778471 0)scale(0.996264)" xlink:href="#Computer_Modern_Bright-115"/>
     </g>
    </g>
   </g>
   <g id="patch_3">
    <path clip-path="url(#p803700b3ef)" d="M 55.559719 238.435925 
L 67.43151 238.435925 
L 67.43151 179.495083 
L 55.559719 179.495083 
z
" style="fill:#cc6680;opacity:0.4;"/>
   </g>
   <g id="patch_4">
    <path clip-path="url(#p803700b3ef)" d="M 67.43151 238.435925 
L 79.303301 238.435925 
L 79.303301 203.192947 
L 67.43151 203.192947 
z
" style="fill:#cc6680;opacity:0.4;"/>
   </g>
   <g id="patch_5">
    <path clip-path="url(#p803700b3ef)" d="M 79.303301 238.435925 
L 91.175092 238.435925 
L 91.175092 169.772883 
L 79.303301 169.772883 
z
" style="fill:#cc6680;opacity:0.4;"/>
   </g>
   <g id="patch_6">
    <path clip-path="url(#p803700b3ef)" d="M 91.175092 238.435925 
L 103.046883 238.435925 
L 103.046883 195.901297 
L 91.175092 195.901297 
z
" style="fill:#cc6680;opacity:0.4;"/>
   </g>
   <g id="patch_7">
    <path clip-path="url(#p803700b3ef)" d="M 103.046883 238.435925 
L 114.918674 238.435925 
L 114.918674 230.536637 
L 103.046883 230.536637 
z
" style="fill:#cc6680;opacity:0.4;"/>
   </g>
   <g id="patch_8">
    <path clip-path="url(#p803700b3ef)" d="M 114.918674 238.435925 
L 126.790465 238.435925 
L 126.790465 205.01586 
L 114.918674 205.01586 
z
" style="fill:#cc6680;opacity:0.4;"/>
   </g>
   <g id="patch_9">
    <path clip-path="url(#p803700b3ef)" d="M 126.790465 238.435925 
L 138.662256 238.435925 
L 138.662256 215.953336 
L 126.790465 215.953336 
z
" style="fill:#cc6680;opacity:0.4;"/>
   </g>
   <g id="patch_10">
    <path clip-path="url(#p803700b3ef)" d="M 138.662256 238.435925 
L 150.534047 238.435925 
L 150.534047 231.751912 
L 138.662256 231.751912 
z
" style="fill:#cc6680;opacity:0.4;"/>
   </g>
   <g id="patch_11">
    <path clip-path="url(#p803700b3ef)" d="M 150.534047 238.435925 
L 162.405838 238.435925 
L 162.405838 229.928999 
L 150.534047 229.928999 
z
" style="fill:#cc6680;opacity:0.4;"/>
   </g>
   <g id="patch_12">
    <path clip-path="url(#p803700b3ef)" d="M 162.405838 238.435925 
L 174.277628 238.435925 
L 174.277628 228.713724 
L 162.405838 228.713724 
z
" style="fill:#cc6680;opacity:0.4;"/>
   </g>
   <g id="patch_13">
    <path clip-path="url(#p803700b3ef)" d="M 174.277628 238.435925 
L 186.149419 238.435925 
L 186.149419 221.422074 
L 174.277628 221.422074 
z
" style="fill:#cc6680;opacity:0.4;"/>
   </g>
   <g id="patch_14">
    <path clip-path="url(#p803700b3ef)" d="M 186.149419 238.435925 
L 198.02121 238.435925 
L 198.02121 224.460261 
L 186.149419 224.460261 
z
" style="fill:#cc6680;opacity:0.4;"/>
   </g>
   <g id="patch_15">
    <path clip-path="url(#p803700b3ef)" d="M 198.02121 238.435925 
L 209.893001 238.435925 
L 209.893001 226.283174 
L 198.02121 226.283174 
z
" style="fill:#cc6680;opacity:0.4;"/>
   </g>
   <g id="patch_16">
    <path clip-path="url(#p803700b3ef)" d="M 209.893001 238.435925 
L 221.764792 238.435925 
L 221.764792 234.790099 
L 209.893001 234.790099 
z
" style="fill:#cc6680;opacity:0.4;"/>
   </g>
   <g id="patch_17">
    <path clip-path="url(#p803700b3ef)" d="M 221.764792 238.435925 
L 233.636583 238.435925 
L 233.636583 237.22065 
L 221.764792 237.22065 
z
" style="fill:#cc6680;opacity:0.4;"/>
   </g>
   <g id="patch_18">
    <path clip-path="url(#p803700b3ef)" d="M 233.636583 238.435925 
L 245.508374 238.435925 
L 245.508374 237.22065 
L 233.636583 237.22065 
z
" style="fill:#cc6680;opacity:0.4;"/>
   </g>
   <g id="patch_19">
    <path clip-path="url(#p803700b3ef)" d="M 245.508374 238.435925 
L 257.380165 238.435925 
L 257.380165 237.22065 
L 245.508374 237.22065 
z
" style="fill:#cc6680;opacity:0.4;"/>
   </g>
   <g id="patch_20">
    <path clip-path="url(#p803700b3ef)" d="M 257.380165 238.435925 
L 269.251956 238.435925 
L 269.251956 237.828287 
L 257.380165 237.828287 
z
" style="fill:#cc6680;opacity:0.4;"/>
   </g>
   <g id="patch_21">
    <path clip-path="url(#p803700b3ef)" d="M 269.251956 238.435925 
L 281.123747 238.435925 
L 281.123747 238.435925 
L 269.251956 238.435925 
z
" style="fill:#cc6680;opacity:0.4;"/>
   </g>
   <g id="patch_22">
    <path d="M 55.559719 238.435925 
L 55.559719 32.355653 
" style="fill:none;stroke:#262626;stroke-linecap:square;stroke-linejoin:miter;stroke-width:1.25;"/>
   </g>
   <g id="patch_23">
    <path d="M 292.401948 238.435925 
L 292.401948 32.355653 
" style="fill:none;stroke:#262626;stroke-linecap:square;stroke-linejoin:miter;stroke-width:1.25;"/>
   </g>
   <g id="patch_24">
    <path d="M 55.559719 238.435925 
L 292.401948 238.435925 
" style="fill:none;stroke:#262626;stroke-linecap:square;stroke-linejoin:miter;stroke-width:1.25;"/>
   </g>
   <g id="patch_25">
    <path d="M 55.559719 32.355653 
L 292.401948 32.355653 
" style="fill:none;stroke:#262626;stroke-linecap:square;stroke-linejoin:miter;stroke-width:1.25;"/>
   </g>
   <g id="text_15">
    <!-- [glu] = 100 mM, [O$_2$] = 0.21 mM -->
    <defs>
     <path d="M 6.40625 69.6875 
L 6.40625 0 
L 12.703125 0 
L 12.703125 69.6875 
z
" id="Computer_Modern_Bright-108"/>
     <path d="M 6.40625 47 
L 6.40625 12.96875 
C 6.40625 10.046875 6.5 7.140625 7.703125 4.421875 
C 9.59375 0.515625 13.59375 -1 17.703125 -1 
C 23.203125 -1 28.703125 0.8125 32.703125 4.734375 
C 33.796875 5.828125 34.796875 6.9375 35.5 8.34375 
L 35.59375 8.34375 
L 35.59375 -0.390625 
L 41.90625 -0.390625 
L 41.90625 47 
L 35.5 47 
L 35.5 22.90625 
C 35.5 18.6875 36.09375 14.0625 33.90625 10.25 
C 32.296875 7.4375 29.5 5.234375 26.40625 4.234375 
C 24.296875 3.625 22.09375 3.625 19.90625 3.828125 
C 17.796875 4.03125 15.5 4.234375 14.09375 6.03125 
C 12.09375 8.453125 12.796875 14.171875 12.796875 17.6875 
L 12.796875 47 
z
" id="Computer_Modern_Bright-117"/>
     <path d="M 6.296875 37.921875 
C 4.296875 37.328125 4.40625 34.515625 6.5 34.109375 
C 7.09375 33.90625 7.796875 34 8.40625 34 
L 68.5 34 
C 69.296875 34 70.09375 34 70.703125 34.609375 
C 71.90625 35.71875 71.09375 37.828125 69.5 38.03125 
C 68.09375 38.125 66.703125 38.03125 65.296875 38.03125 
L 8 38.03125 
C 7.5 38.03125 6.796875 38.125 6.296875 37.921875 
z
M 5.09375 18.015625 
C 4.40625 16.90625 5.09375 15.390625 6.296875 15.09375 
C 6.90625 14.890625 7.5 15 8.09375 15 
L 68.59375 15 
C 69.40625 15 70.09375 15 70.703125 15.59375 
C 72 16.796875 71.09375 18.8125 69.40625 19.015625 
C 68 19.109375 66.59375 19.015625 65.203125 19.015625 
L 8.09375 19.015625 
C 6.796875 19.015625 5.796875 19.109375 5.09375 18.015625 
z
" id="Computer_Modern_Bright-61"/>
     <path d="M 12.59375 37.359375 
L 12.5 37.359375 
L 12.5 47.390625 
L 6.40625 47.390625 
L 6.40625 0 
L 12.796875 0 
L 12.796875 22.046875 
C 12.796875 26.953125 12.5 31.875 14.703125 36.375 
C 16.59375 40.28125 19.90625 43.390625 25.796875 42.78125 
C 28.796875 42.78125 31.796875 41.984375 33.703125 39.453125 
C 35.5 37.140625 35.59375 34.140625 35.59375 31.3125 
L 35.59375 0 
L 42 0 
L 42 22.046875 
C 42 26.953125 41.703125 31.875 43.90625 36.375 
C 45.796875 40.28125 49.09375 43.390625 55 42.78125 
C 58 42.78125 61 41.984375 62.90625 39.453125 
C 64.703125 37.140625 64.796875 34.140625 64.796875 31.3125 
L 64.796875 0 
L 71.203125 0 
L 71.203125 26.5625 
C 71.203125 31.375 71.796875 36.78125 69.703125 41.1875 
C 67.59375 45.296875 64.203125 47.5 58.703125 47.5 
C 55.5 47.796875 52.296875 47.3125 49.40625 45.84375 
C 45.90625 43.921875 43.296875 40.75 41.703125 37.265625 
C 41 40.578125 40.203125 42.828125 38 45 
C 35.703125 47.0625 32.59375 48 29.59375 48 
C 22.296875 48.59375 17.703125 45.5625 14.59375 41 
C 13.796875 39.875 13 38.671875 12.59375 37.359375 
z
" id="Computer_Modern_Bright-109"/>
     <path d="M 9.90625 7.828125 
L 9.90625 0 
L 12.296875 0 
L 9.796875 -11 
L 13.796875 -11 
C 15.09375 -7.34375 16.40625 -3.765625 17.59375 -0.09375 
C 17.703125 2.40625 17.703125 5.125 17.703125 7.828125 
z
" id="Computer_Modern_Bright-44"/>
     <path d="M 14.40625 60.046875 
C 2.5 46.59375 1.796875 24.90625 13.203125 10.953125 
C 17.203125 6.03125 22.5 2.109375 29.09375 0.09375 
C 39.5 -3.21875 49.703125 0.09375 56.296875 4.921875 
C 67.59375 13.15625 72.40625 27.71875 70.296875 41.265625 
C 68.09375 55.125 57.796875 67.484375 43.796875 70.296875 
C 31 72.90625 20.296875 66.875 14.40625 60.046875 
z
M 54.90625 58.9375 
C 61.703125 52.3125 64.203125 42.875 63.703125 33.53125 
C 63 20.1875 56.203125 9.34375 45.90625 5.515625 
C 36.296875 1.609375 26 5.625 20.09375 12.25 
C 15.5 17.375 12.59375 25 12.09375 33.53125 
C 11.5 43.875 14.703125 54.734375 23.40625 61.046875 
C 25 62.15625 26.796875 63.15625 28.59375 63.96875 
C 38.40625 67.875 49.203125 64.671875 54.90625 58.9375 
z
" id="Computer_Modern_Bright-79"/>
    </defs>
    <g style="fill:#262626;" transform="translate(71.939538 26.355653)scale(0.14 -0.14)">
     <use transform="translate(0 14.943915)scale(0.996264)" xlink:href="#Computer_Modern_Bright-91"/>
     <use transform="translate(27.673887 14.943915)scale(0.996264)" xlink:href="#Computer_Modern_Bright-103"/>
     <use transform="translate(75.826384 14.943915)scale(0.996264)" xlink:href="#Computer_Modern_Bright-108"/>
     <use transform="translate(94.921343 14.943915)scale(0.996264)" xlink:href="#Computer_Modern_Bright-117"/>
     <use transform="translate(143.07384 14.943915)scale(0.996264)" xlink:href="#Computer_Modern_Bright-93"/>
     <use transform="translate(202.212939 14.943915)scale(0.996264)" xlink:href="#Computer_Modern_Bright-61"/>
     <use transform="translate(309.504261 14.943915)scale(0.996264)" xlink:href="#Computer_Modern_Bright-49"/>
     <use transform="translate(360.147479 14.943915)scale(0.996264)" xlink:href="#Computer_Modern_Bright-48"/>
     <use transform="translate(410.790696 14.943915)scale(0.996264)" xlink:href="#Computer_Modern_Bright-48"/>
     <use transform="translate(492.899126 14.943915)scale(0.996264)" xlink:href="#Computer_Modern_Bright-109"/>
     <use transform="translate(570.109252 14.943915)scale(0.996264)" xlink:href="#Computer_Modern_Bright-77"/>
     <use transform="translate(655.20655 14.943915)scale(0.996264)" xlink:href="#Computer_Modern_Bright-44"/>
     <use transform="translate(714.068885 14.943915)scale(0.996264)" xlink:href="#Computer_Modern_Bright-91"/>
     <use transform="translate(741.742772 14.943915)scale(0.996264)" xlink:href="#Computer_Modern_Bright-79"/>
     <use transform="translate(817.292484 0)scale(0.697382)" xlink:href="#Computer_Modern_Bright-50"/>
     <use transform="translate(853.240701 14.943915)scale(0.996264)" xlink:href="#Computer_Modern_Bright-93"/>
     <use transform="translate(912.3798 14.943915)scale(0.996264)" xlink:href="#Computer_Modern_Bright-61"/>
     <use transform="translate(1019.671122 14.943915)scale(0.996264)" xlink:href="#Computer_Modern_Bright-48"/>
     <use transform="translate(1070.314339 14.943915)scale(0.996264)" xlink:href="#Computer_Modern_Bright-46"/>
     <use transform="translate(1097.711463 14.943915)scale(0.996264)" xlink:href="#Computer_Modern_Bright-50"/>
     <use transform="translate(1148.354681 14.943915)scale(0.996264)" xlink:href="#Computer_Modern_Bright-49"/>
     <use transform="translate(1230.46311 14.943915)scale(0.996264)" xlink:href="#Computer_Modern_Bright-109"/>
     <use transform="translate(1307.673236 14.943915)scale(0.996264)" xlink:href="#Computer_Modern_Bright-77"/>
    </g>
   </g>
  </g>
  <g id="axes_2">
   <g id="patch_26">
    <path d="M 316.12855 238.435925 
L 552.97078 238.435925 
L 552.97078 32.355653 
L 316.12855 32.355653 
z
" style="fill:#ffffff;"/>
   </g>
   <g id="matplotlib.axis_3">
    <g id="xtick_6">
     <g id="line2d_13"/>
     <g id="text_16">
      <!-- $0.0$ -->
      <g style="fill:#262626;" transform="translate(308.108698 252.33812)scale(0.12 -0.12)">
       <use transform="scale(0.996264)" xlink:href="#Computer_Modern_Bright-48"/>
       <use transform="translate(50.643218 0)scale(0.996264)" xlink:href="#Computer_Modern_Bright_Math_Slanted-58"/>
       <use transform="translate(79.700665 0)scale(0.996264)" xlink:href="#Computer_Modern_Bright-48"/>
      </g>
     </g>
    </g>
    <g id="xtick_7">
     <g id="line2d_14"/>
     <g id="text_17">
      <!-- $0.2$ -->
      <g style="fill:#262626;" transform="translate(364.499705 252.33812)scale(0.12 -0.12)">
       <use transform="scale(0.996264)" xlink:href="#Computer_Modern_Bright-48"/>
       <use transform="translate(50.643218 0)scale(0.996264)" xlink:href="#Computer_Modern_Bright_Math_Slanted-58"/>
       <use transform="translate(79.700665 0)scale(0.996264)" xlink:href="#Computer_Modern_Bright-50"/>
      </g>
     </g>
    </g>
    <g id="xtick_8">
     <g id="line2d_15"/>
     <g id="text_18">
      <!-- $0.4$ -->
      <g style="fill:#262626;" transform="translate(420.890712 252.33812)scale(0.12 -0.12)">
       <use transform="scale(0.996264)" xlink:href="#Computer_Modern_Bright-48"/>
       <use transform="translate(50.643218 0)scale(0.996264)" xlink:href="#Computer_Modern_Bright_Math_Slanted-58"/>
       <use transform="translate(79.700665 0)scale(0.996264)" xlink:href="#Computer_Modern_Bright-52"/>
      </g>
     </g>
    </g>
    <g id="xtick_9">
     <g id="line2d_16"/>
     <g id="text_19">
      <!-- $0.6$ -->
      <g style="fill:#262626;" transform="translate(477.281719 252.33812)scale(0.12 -0.12)">
       <use transform="scale(0.996264)" xlink:href="#Computer_Modern_Bright-48"/>
       <use transform="translate(50.643218 0)scale(0.996264)" xlink:href="#Computer_Modern_Bright_Math_Slanted-58"/>
       <use transform="translate(79.700665 0)scale(0.996264)" xlink:href="#Computer_Modern_Bright-54"/>
      </g>
     </g>
    </g>
    <g id="xtick_10">
     <g id="line2d_17"/>
     <g id="text_20">
      <!-- $0.8$ -->
      <g style="fill:#262626;" transform="translate(533.672726 252.33812)scale(0.12 -0.12)">
       <use transform="scale(0.996264)" xlink:href="#Computer_Modern_Bright-48"/>
       <use transform="translate(50.643218 0)scale(0.996264)" xlink:href="#Computer_Modern_Bright_Math_Slanted-58"/>
       <use transform="translate(79.700665 0)scale(0.996264)" xlink:href="#Computer_Modern_Bright-56"/>
      </g>
     </g>
    </g>
    <g id="text_21">
     <!-- growth rate [h$^{-1}$] -->
     <g style="fill:#262626;" transform="translate(383.137313 269.780509)scale(0.14 -0.14)">
      <use transform="scale(0.996264)" xlink:href="#Computer_Modern_Bright-103"/>
      <use transform="translate(48.152497 0)scale(0.996264)" xlink:href="#Computer_Modern_Bright-114"/>
      <use transform="translate(80.115856 0)scale(0.996264)" xlink:href="#Computer_Modern_Bright-111"/>
      <use transform="translate(127.853344 0)scale(0.996264)" xlink:href="#Computer_Modern_Bright-119"/>
      <use transform="translate(193.440385 0)scale(0.996264)" xlink:href="#Computer_Modern_Bright-116"/>
      <use transform="translate(229.554773 0)scale(0.996264)" xlink:href="#Computer_Modern_Bright-104"/>
      <use transform="translate(309.172482 0)scale(0.996264)" xlink:href="#Computer_Modern_Bright-114"/>
      <use transform="translate(341.135841 0)scale(0.996264)" xlink:href="#Computer_Modern_Bright-97"/>
      <use transform="translate(387.627923 0)scale(0.996264)" xlink:href="#Computer_Modern_Bright-116"/>
      <use transform="translate(423.742311 0)scale(0.996264)" xlink:href="#Computer_Modern_Bright-101"/>
      <use transform="translate(500.03919 0)scale(0.996264)" xlink:href="#Computer_Modern_Bright-91"/>
      <use transform="translate(527.713077 0)scale(0.996264)" xlink:href="#Computer_Modern_Bright-104"/>
      <use transform="translate(575.865574 36.153639)scale(0.697382)" xlink:href="#Computer_Modern_Bright_Math_Symbols-0"/>
      <use transform="translate(630.106568 36.153639)scale(0.697382)" xlink:href="#Computer_Modern_Bright-49"/>
      <use transform="translate(666.054785 0)scale(0.996264)" xlink:href="#Computer_Modern_Bright-93"/>
     </g>
    </g>
   </g>
   <g id="matplotlib.axis_4">
    <g id="ytick_8">
     <g id="line2d_18"/>
    </g>
    <g id="ytick_9">
     <g id="line2d_19"/>
    </g>
    <g id="ytick_10">
     <g id="line2d_20"/>
    </g>
    <g id="ytick_11">
     <g id="line2d_21"/>
    </g>
    <g id="ytick_12">
     <g id="line2d_22"/>
    </g>
    <g id="ytick_13">
     <g id="line2d_23"/>
    </g>
    <g id="ytick_14">
     <g id="line2d_24"/>
    </g>
   </g>
   <g id="patch_27">
    <path clip-path="url(#pce240c390a)" d="M 316.12855 238.435925 
L 328.000341 238.435925 
L 328.000341 42.168999 
L 316.12855 42.168999 
z
" style="fill:#cc6680;opacity:0.4;"/>
   </g>
   <g id="patch_28">
    <path clip-path="url(#pce240c390a)" d="M 328.000341 238.435925 
L 339.872132 238.435925 
L 339.872132 187.394371 
L 328.000341 187.394371 
z
" style="fill:#cc6680;opacity:0.4;"/>
   </g>
   <g id="patch_29">
    <path clip-path="url(#pce240c390a)" d="M 339.872132 238.435925 
L 351.743923 238.435925 
L 351.743923 179.495083 
L 339.872132 179.495083 
z
" style="fill:#cc6680;opacity:0.4;"/>
   </g>
   <g id="patch_30">
    <path clip-path="url(#pce240c390a)" d="M 351.743923 238.435925 
L 363.615714 238.435925 
L 363.615714 226.890811 
L 351.743923 226.890811 
z
" style="fill:#cc6680;opacity:0.4;"/>
   </g>
   <g id="patch_31">
    <path clip-path="url(#pce240c390a)" d="M 363.615714 238.435925 
L 375.487505 238.435925 
L 375.487505 237.828287 
L 363.615714 237.828287 
z
" style="fill:#cc6680;opacity:0.4;"/>
   </g>
   <g id="patch_32">
    <path clip-path="url(#pce240c390a)" d="M 375.487505 238.435925 
L 387.359296 238.435925 
L 387.359296 213.522785 
L 375.487505 213.522785 
z
" style="fill:#cc6680;opacity:0.4;"/>
   </g>
   <g id="patch_33">
    <path clip-path="url(#pce240c390a)" d="M 387.359296 238.435925 
L 399.231087 238.435925 
L 399.231087 236.613012 
L 387.359296 236.613012 
z
" style="fill:#cc6680;opacity:0.4;"/>
   </g>
   <g id="patch_34">
    <path clip-path="url(#pce240c390a)" d="M 399.231087 238.435925 
L 411.102878 238.435925 
L 411.102878 238.435925 
L 399.231087 238.435925 
z
" style="fill:#cc6680;opacity:0.4;"/>
   </g>
   <g id="patch_35">
    <path clip-path="url(#pce240c390a)" d="M 411.102878 238.435925 
L 422.974669 238.435925 
L 422.974669 238.435925 
L 411.102878 238.435925 
z
" style="fill:#cc6680;opacity:0.4;"/>
   </g>
   <g id="patch_36">
    <path clip-path="url(#pce240c390a)" d="M 422.974669 238.435925 
L 434.84646 238.435925 
L 434.84646 238.435925 
L 422.974669 238.435925 
z
" style="fill:#cc6680;opacity:0.4;"/>
   </g>
   <g id="patch_37">
    <path clip-path="url(#pce240c390a)" d="M 434.84646 238.435925 
L 446.718251 238.435925 
L 446.718251 238.435925 
L 434.84646 238.435925 
z
" style="fill:#cc6680;opacity:0.4;"/>
   </g>
   <g id="patch_38">
    <path clip-path="url(#pce240c390a)" d="M 446.718251 238.435925 
L 458.590042 238.435925 
L 458.590042 238.435925 
L 446.718251 238.435925 
z
" style="fill:#cc6680;opacity:0.4;"/>
   </g>
   <g id="patch_39">
    <path clip-path="url(#pce240c390a)" d="M 458.590042 238.435925 
L 470.461833 238.435925 
L 470.461833 238.435925 
L 458.590042 238.435925 
z
" style="fill:#cc6680;opacity:0.4;"/>
   </g>
   <g id="patch_40">
    <path clip-path="url(#pce240c390a)" d="M 470.461833 238.435925 
L 482.333624 238.435925 
L 482.333624 238.435925 
L 470.461833 238.435925 
z
" style="fill:#cc6680;opacity:0.4;"/>
   </g>
   <g id="patch_41">
    <path clip-path="url(#pce240c390a)" d="M 482.333624 238.435925 
L 494.205414 238.435925 
L 494.205414 238.435925 
L 482.333624 238.435925 
z
" style="fill:#cc6680;opacity:0.4;"/>
   </g>
   <g id="patch_42">
    <path clip-path="url(#pce240c390a)" d="M 494.205414 238.435925 
L 506.077205 238.435925 
L 506.077205 238.435925 
L 494.205414 238.435925 
z
" style="fill:#cc6680;opacity:0.4;"/>
   </g>
   <g id="patch_43">
    <path clip-path="url(#pce240c390a)" d="M 506.077205 238.435925 
L 517.948996 238.435925 
L 517.948996 238.435925 
L 506.077205 238.435925 
z
" style="fill:#cc6680;opacity:0.4;"/>
   </g>
   <g id="patch_44">
    <path clip-path="url(#pce240c390a)" d="M 517.948996 238.435925 
L 529.820787 238.435925 
L 529.820787 238.435925 
L 517.948996 238.435925 
z
" style="fill:#cc6680;opacity:0.4;"/>
   </g>
   <g id="patch_45">
    <path clip-path="url(#pce240c390a)" d="M 529.820787 238.435925 
L 541.692578 238.435925 
L 541.692578 238.435925 
L 529.820787 238.435925 
z
" style="fill:#cc6680;opacity:0.4;"/>
   </g>
   <g id="patch_46">
    <path d="M 316.12855 238.435925 
L 316.12855 32.355653 
" style="fill:none;stroke:#262626;stroke-linecap:square;stroke-linejoin:miter;stroke-width:1.25;"/>
   </g>
   <g id="patch_47">
    <path d="M 552.97078 238.435925 
L 552.97078 32.355653 
" style="fill:none;stroke:#262626;stroke-linecap:square;stroke-linejoin:miter;stroke-width:1.25;"/>
   </g>
   <g id="patch_48">
    <path d="M 316.12855 238.435925 
L 552.97078 238.435925 
" style="fill:none;stroke:#262626;stroke-linecap:square;stroke-linejoin:miter;stroke-width:1.25;"/>
   </g>
   <g id="patch_49">
    <path d="M 316.12855 32.355653 
L 552.97078 32.355653 
" style="fill:none;stroke:#262626;stroke-linecap:square;stroke-linejoin:miter;stroke-width:1.25;"/>
   </g>
   <g id="text_22">
    <!-- [glu] = 100 mM, [O$_2$] = 0.0021 mM -->
    <g style="fill:#262626;" transform="translate(325.185899 26.355653)scale(0.14 -0.14)">
     <use transform="translate(0 14.943915)scale(0.996264)" xlink:href="#Computer_Modern_Bright-91"/>
     <use transform="translate(27.673887 14.943915)scale(0.996264)" xlink:href="#Computer_Modern_Bright-103"/>
     <use transform="translate(75.826384 14.943915)scale(0.996264)" xlink:href="#Computer_Modern_Bright-108"/>
     <use transform="translate(94.921343 14.943915)scale(0.996264)" xlink:href="#Computer_Modern_Bright-117"/>
     <use transform="translate(143.07384 14.943915)scale(0.996264)" xlink:href="#Computer_Modern_Bright-93"/>
     <use transform="translate(202.212939 14.943915)scale(0.996264)" xlink:href="#Computer_Modern_Bright-61"/>
     <use transform="translate(309.504261 14.943915)scale(0.996264)" xlink:href="#Computer_Modern_Bright-49"/>
     <use transform="translate(360.147479 14.943915)scale(0.996264)" xlink:href="#Computer_Modern_Bright-48"/>
     <use transform="translate(410.790696 14.943915)scale(0.996264)" xlink:href="#Computer_Modern_Bright-48"/>
     <use transform="translate(492.899126 14.943915)scale(0.996264)" xlink:href="#Computer_Modern_Bright-109"/>
     <use transform="translate(570.109252 14.943915)scale(0.996264)" xlink:href="#Computer_Modern_Bright-77"/>
     <use transform="translate(655.20655 14.943915)scale(0.996264)" xlink:href="#Computer_Modern_Bright-44"/>
     <use transform="translate(714.068885 14.943915)scale(0.996264)" xlink:href="#Computer_Modern_Bright-91"/>
     <use transform="translate(741.742772 14.943915)scale(0.996264)" xlink:href="#Computer_Modern_Bright-79"/>
     <use transform="translate(817.292484 0)scale(0.697382)" xlink:href="#Computer_Modern_Bright-50"/>
     <use transform="translate(853.240701 14.943915)scale(0.996264)" xlink:href="#Computer_Modern_Bright-93"/>
     <use transform="translate(912.3798 14.943915)scale(0.996264)" xlink:href="#Computer_Modern_Bright-61"/>
     <use transform="translate(1019.671122 14.943915)scale(0.996264)" xlink:href="#Computer_Modern_Bright-48"/>
     <use transform="translate(1070.314339 14.943915)scale(0.996264)" xlink:href="#Computer_Modern_Bright-46"/>
     <use transform="translate(1097.711463 14.943915)scale(0.996264)" xlink:href="#Computer_Modern_Bright-48"/>
     <use transform="translate(1148.354681 14.943915)scale(0.996264)" xlink:href="#Computer_Modern_Bright-48"/>
     <use transform="translate(1198.997899 14.943915)scale(0.996264)" xlink:href="#Computer_Modern_Bright-50"/>
     <use transform="translate(1249.641116 14.943915)scale(0.996264)" xlink:href="#Computer_Modern_Bright-49"/>
     <use transform="translate(1331.749546 14.943915)scale(0.996264)" xlink:href="#Computer_Modern_Bright-109"/>
     <use transform="translate(1408.959672 14.943915)scale(0.996264)" xlink:href="#Computer_Modern_Bright-77"/>
    </g>
   </g>
  </g>
 </g>
 <defs>
  <clipPath id="p803700b3ef">
   <rect height="206.080272" width="236.842229" x="55.559719" y="32.355653"/>
  </clipPath>
  <clipPath id="pce240c390a">
   <rect height="206.080272" width="236.842229" x="316.12855" y="32.355653"/>
  </clipPath>
 </defs>
</svg>
